<?xml version="1.0" encoding="UTF-8" standalone="no"?><svg width="258px" height="40px" viewBox="0 0 258 40" version="1.1" xmlns="http://www.w3.org/2000/svg" xmlns:xlink="http://www.w3.org/1999/xlink">        <title>logo</title>    <desc>Created with Sketch.</desc>    <defs></defs>    <g id="Page-1" stroke="none" stroke-width="1" fill="none" fill-rule="evenodd">        <g id="logo" fill="#E30028" fill-rule="nonzero">            <path d="M7.45346341,2.43882927 L7.43395122,2.43882927 C7.43395122,2.43882927 6.22419512,5.44370732 5.48273171,7.512 L9.42419512,7.512 L7.45346341,2.43882927 Z M8.93639024,14.028748 L8.93639024,13.736065 C9.54094309,13.6580163 11.0043577,13.6189919 11.0043577,12.4677724 C11.0043577,12.0388293 10.8482602,11.4921626 10.6726504,11.0043577 C10.1458211,9.4824065 9.79492683,8.52663415 9.79492683,8.52663415 L5.112,8.52663415 C5.112,8.52663415 4.44858537,10.4388293 4.15590244,11.433626 C4.05834146,11.7656585 3.94126829,12.1750894 3.94126829,12.428748 C3.94126829,13.6970407 5.26809756,13.6580163 5.69736585,13.736065 L5.69736585,14.028748 L0.000130081301,14.028748 L0.000130081301,13.736065 C0.000130081301,13.736065 0.995252033,13.6775285 1.61964228,13.2677724 C2.06809756,12.9555772 2.59525203,12.2531382 3.18029268,10.8092358 C4.42907317,7.74582114 6.82907317,1.5022439 6.82907317,1.5022439 C6.38029268,0.780292683 5.42419512,0.722081301 4.74126829,0.663544715 L4.74126829,0.370861789 L10.8876098,0.370861789 L10.8876098,0.663544715 C9.85313821,0.741268293 9.42419512,1.0924878 9.32663415,1.46354472 C9.32663415,1.46354472 11.7458211,7.80468293 13.131187,11.3946016 C13.8921626,13.3848455 15.1994797,13.6580163 16.0580163,13.736065 L16.0580163,14.028748 L8.93639024,14.028748 Z" id="Fill-1"></path>            <path d="M29.7556098,14.0286504 L29.7556098,13.7362927 C29.7556098,13.7362927 31.1604878,13.6969431 31.6482927,13.2286504 C32.1360976,12.7606829 32.2336585,12.1945041 32.2336585,11.2579187 C32.2336585,9.56068293 32.0580488,8.40946341 31.9214634,6.61434146 C31.8434146,5.48295935 31.7653659,4.76068293 31.7458537,3.62897561 L31.6873171,3.60978862 C31.6873171,3.60978862 30.9458537,5.13173984 30.0873171,6.67287805 C29.3263415,8.03873171 28.7604878,9.03385366 28.155935,10.1850732 C27.7266667,11.0042602 26.7900813,13.0335285 26.5169106,14.0875122 L26.1852033,14.0875122 C26.1852033,14.0875122 25.9900813,13.4240976 25.4437398,11.9798699 C24.760813,10.165561 23.7852033,8.25336585 23.160813,6.8484878 C22.6534959,5.71678049 22.2827642,4.95613008 21.8144715,3.82409756 L21.7754472,3.82409756 C21.7754472,3.82409756 20.9754472,9.6582439 20.9754472,11.9997073 C20.9754472,12.8387317 21.1120325,13.072878 21.7169106,13.4042602 C22.2437398,13.6774309 23.1217886,13.7554797 23.1217886,13.7554797 L23.1217886,14.0286504 L17.1318699,14.0286504 L17.1318699,13.7362927 C17.1318699,13.7362927 18.4782114,13.5798699 18.9855285,13.0143415 C19.4534959,12.4875122 19.6879675,11.6875122 19.9026016,10.5362927 C20.3900813,7.82409756 21.0144715,2.40003252 21.0144715,2.40003252 C20.7022764,1.81434146 20.6047154,1.44393496 19.8635772,0.995154472 C19.4730081,0.76100813 18.5952846,0.663447154 18.5952846,0.663447154 L18.5952846,0.370764228 L24.760813,0.370764228 L24.760813,0.663447154 C24.760813,0.663447154 23.2973984,0.741495935 23.0242276,1.54149593 C23.7461789,3.31710569 24.760813,5.2484878 25.8534959,7.74604878 C26.2827642,8.74117073 27.0242276,10.3411707 27.0242276,10.3411707 C27.0242276,10.3411707 28.155935,8.27287805 28.8385366,7.02409756 C29.9117073,5.05336585 30.7702439,3.64881301 31.6482927,1.63873171 C31.4141463,0.780520325 29.775122,0.663447154 29.775122,0.663447154 L29.775122,0.370764228 L35.784878,0.370764228 L35.784878,0.663447154 C35.784878,0.663447154 35.2190244,0.72198374 34.6726829,0.917105691 C34.1260163,1.11222764 33.8138211,1.52198374 33.8138211,2.18539837 C33.8138211,4.19515447 33.8921951,4.93629268 34.0287805,6.73173984 C34.1260163,7.90214634 34.301626,9.97043902 34.477561,11.2387317 C34.7312195,12.9945041 35.1214634,13.2091382 35.7455285,13.4432846 C36.4287805,13.7164553 37.0528455,13.7362927 37.0528455,13.7362927 L37.0528455,14.0286504 L29.7556098,14.0286504 Z" id="Fill-3"></path>            <path d="M49.9115447,14.0286504 L39.219187,14.0286504 L39.219187,13.7362927 C39.219187,13.7362927 40.6435772,13.6774309 41.1313821,13.2875122 C41.619187,12.8972683 41.6972358,12.2143415 41.7557724,11.3945041 C41.8143089,10.5362927 41.8533333,9.05336585 41.8533333,7.39515447 C41.8533333,5.63873171 41.8728455,4.99515447 41.8143089,3.19970732 C41.7752846,1.89271545 41.716748,1.42442276 41.2484553,1.11222764 C40.7021138,0.76100813 39.5313821,0.663447154 39.5313821,0.663447154 L39.5313821,0.370764228 C39.5313821,0.370764228 43.9606504,0.390276423 47.7261789,0.390276423 C49.1115447,0.390276423 49.540813,0.370764228 49.7749593,3.25203252e-05 L49.9895935,3.25203252e-05 L49.8139837,3.18052033 L49.5603252,3.18052033 C49.5603252,3.18052033 49.5017886,2.04881301 49.0334959,1.6975935 C48.5847154,1.36588618 47.8822764,1.32653659 47.1213008,1.2878374 C46.6530081,1.2683252 45.9895935,1.24881301 45.424065,1.24881301 C44.6826016,1.24881301 44.0582114,1.2683252 44.0582114,1.2683252 C43.9996748,2.96556098 43.9606504,4.97531707 43.9606504,6.59515447 L47.335935,6.53629268 C47.5505691,6.53629268 48.038374,6.49726829 48.2920325,6.22409756 C48.6042276,5.87287805 48.6627642,5.48295935 48.7603252,4.97531707 L49.0139837,4.97531707 L49.0139837,9.15092683 L48.7603252,9.15092683 C48.7603252,9.15092683 48.5456911,7.92165854 48.1164228,7.51190244 L43.9606504,7.51190244 C43.9606504,7.51190244 43.9411382,9.77531707 44.019187,11.2188943 C44.0972358,12.7021463 44.3313821,13.2484878 46.3017886,13.2484878 C47.6286179,13.2484878 48.9554472,12.9554797 49.8334959,12.1945041 C50.3213008,11.765561 50.7115447,10.8289756 50.7115447,10.8289756 L50.9456911,10.9265366 L49.9115447,14.0286504 Z" id="Fill-5"></path>            <path d="M58.7893659,1.01450407 L58.7698537,7.19986992 L60.9552195,7.43369106 C61.9113171,7.00474797 63.0625366,5.89255285 63.0625366,4.19499187 C63.0625366,1.63889431 60.3113171,1.01450407 58.7893659,1.01450407 M68.1939187,14.1458862 C65.9695285,14.1458862 64.0576585,13.423935 62.6918049,11.4336911 C61.7747317,10.0873496 61.3259512,8.79954472 61.0332683,7.99954472 C60.408878,8.0779187 58.7698537,8.35108943 58.7698537,8.35108943 C58.7698537,8.35108943 58.7893659,10.1657236 58.8674146,11.4336911 C58.9259512,12.1556423 58.906439,13.2873496 59.8235122,13.5214959 C60.2918049,13.6385691 61.1308293,13.7361301 61.1308293,13.7361301 L61.1308293,14.028813 L54.4189593,14.028813 L54.4189593,13.7361301 C54.4189593,13.7361301 55.5506667,13.6971057 56.0186341,13.326374 C56.5844878,12.8775935 56.5844878,12.1166179 56.6235122,11.4922276 C56.682374,10.7117398 56.7018862,9.01450407 56.7018862,7.39499187 C56.7018862,6.00930081 56.682374,4.37060163 56.6235122,3.16117073 C56.5653008,1.85352846 56.4869268,1.38556098 56.0384715,1.07336585 C55.5113171,0.702308943 54.4774959,0.663609756 54.4774959,0.663609756 L54.4774959,0.370926829 C54.4774959,0.370926829 57.9698537,0.312390244 59.7259512,0.312390244 C62.9259512,0.312390244 65.4426992,1.44377236 65.4426992,3.88279675 C65.4426992,5.79499187 63.8430244,6.77060163 62.7893659,7.19986992 C62.7893659,7.19986992 63.4914797,9.05352846 65.3646504,11.2190569 C65.7939187,11.7068618 66.8475772,12.6629593 67.7451382,13.1117398 C68.8183089,13.6385691 69.9109919,13.7361301 70.223187,13.7556423 L70.223187,14.028813 C69.7353821,14.0873496 68.8378211,14.1458862 68.1939187,14.1458862" id="Fill-7"></path>            <path d="M76.2333333,1.11229268 C75.6284553,1.54123577 75.6284553,2.20465041 75.5897561,3.0244878 C75.5308943,4.37082927 75.5308943,5.4241626 75.5308943,6.96562602 C75.5308943,8.56562602 75.5308943,10.165626 75.5897561,11.4144065 C75.6284553,12.4482276 75.6674797,13.0335935 76.3113821,13.3653008 C76.8186992,13.6189593 78.0089431,13.7360325 78.0089431,13.7360325 L78.0089431,14.0287154 L70.9458537,14.0287154 L70.9458537,13.7360325 C70.9458537,13.7360325 72.0385366,13.6189593 72.584878,13.384813 C73.1308943,13.1509919 73.2869919,12.584813 73.3458537,11.4335935 C73.4043902,10.165626 73.4043902,8.58513821 73.4043902,6.98513821 C73.4043902,5.48269919 73.4043902,4.70221138 73.3653659,3.12204878 C73.3263415,1.91229268 73.2287805,1.444 72.78,1.11229268 C72.3507317,0.780260163 71.0043902,0.663512195 71.0043902,0.663512195 L71.0043902,0.370829268 L78.0479675,0.370829268 L78.0479675,0.663512195 C78.0479675,0.663512195 76.7211382,0.780260163 76.2333333,1.11229268" id="Fill-9"></path>            <path d="M92.7012033,14.1261463 C92.7012033,14.1261463 92.2524228,14.0285854 91.7255935,14.0285854 C91.1597398,14.0285854 90.3402276,14.3215935 89.071935,14.3215935 C84.955187,14.3215935 80.9356748,11.9798049 80.9356748,7.31704065 C80.9356748,3.33655285 84.0966504,0.11704065 89.0524228,0.11704065 C91.2377886,0.11704065 92.8182764,0.721918699 93.0329106,0.721918699 C93.4426667,0.721918699 93.5012033,0.507284553 93.7158374,0.292650407 L93.9499837,0.331674797 C93.9499837,0.331674797 93.676813,1.99021138 93.5987642,4.13622764 L93.3060813,4.13622764 C93.3060813,4.13622764 93.1890081,2.75086179 92.7207154,2.16582114 C91.9987642,1.26826016 90.4377886,0.897528455 88.9942114,0.897528455 C86.3015285,0.897528455 83.6478699,2.96582114 83.6478699,6.57525203 C83.6478699,11.1020813 86.457626,13.5017561 89.5987642,13.5017561 C90.7694959,13.5017561 91.6865691,13.2285854 92.4670569,12.5264715 C93.1890081,11.8825691 93.4816911,11.0825691 93.7938862,10.3606179 L94.0670569,10.4386667 C94.0670569,10.4386667 93.5987642,12.7606179 92.7012033,14.1261463" id="Fill-11"></path>            <path d="M102.633236,2.43882927 L102.613724,2.43882927 C102.613724,2.43882927 101.403967,5.44370732 100.662504,7.512 L104.603967,7.512 L102.633236,2.43882927 Z M104.116163,14.028748 L104.116163,13.736065 C104.720715,13.6580163 106.18413,13.6189919 106.18413,12.4677724 C106.18413,12.0388293 106.028033,11.4921626 105.852423,11.0043577 C105.325593,9.4824065 104.974699,8.52663415 104.974699,8.52663415 L100.291772,8.52663415 C100.291772,8.52663415 99.6283577,10.4388293 99.3356748,11.433626 C99.2381138,11.7656585 99.1210407,12.1750894 99.1210407,12.428748 C99.1210407,13.6970407 100.44787,13.6580163 100.877138,13.736065 L100.877138,14.028748 L95.1799024,14.028748 L95.1799024,13.736065 C95.1799024,13.736065 96.1750244,13.6775285 96.7994146,13.2677724 C97.2478699,12.9555772 97.7750244,12.2531382 98.360065,10.8092358 C99.6088455,7.74582114 102.008846,1.5022439 102.008846,1.5022439 C101.560065,0.780292683 100.603967,0.722081301 99.9210407,0.663544715 L99.9210407,0.370861789 L106.067382,0.370861789 L106.067382,0.663544715 C105.032911,0.741268293 104.603967,1.0924878 104.506407,1.46354472 C104.506407,1.46354472 106.925593,7.80468293 108.310959,11.3946016 C109.071935,13.3848455 110.379252,13.6580163 111.237789,13.736065 L111.237789,14.028748 L104.116163,14.028748 Z" id="Fill-13"></path>            <path d="M127.862049,1.05356098 C127.374244,1.26819512 127.218146,1.71697561 127.179122,3.06331707 C127.101073,6.36055285 127.120585,8.78039024 127.120585,12.6434797 C127.120585,13.1507967 127.179122,14.2825041 127.179122,14.2825041 L126.671805,14.380065 L116.603837,3.41453659 L116.584325,3.43404878 C116.584325,3.43404878 116.603837,8.50689431 116.642862,10.6922602 C116.682211,12.7215285 116.877008,13.1507967 117.345301,13.3459187 C118.086764,13.6581138 119.062374,13.7361626 119.062374,13.7361626 L119.062374,14.0285203 L113.052943,14.0285203 L113.052943,13.7361626 C113.052943,13.7361626 114.067577,13.6581138 114.770016,13.3264065 C115.218797,13.1117724 115.394407,12.4288455 115.452618,10.9459187 C115.570016,7.94136585 115.609041,2.30234146 115.609041,2.30234146 C115.609041,2.30234146 114.945626,1.52185366 114.340748,1.15144715 C113.73587,0.780390244 113.306602,0.741365854 112.740748,0.663642276 L112.740748,0.370634146 L118.828228,0.370634146 L118.828228,0.663642276 C118.828228,0.663642276 117.774569,0.761203252 117.559935,1.30721951 C120.877008,5.09258537 126.164488,10.653561 126.164488,10.653561 C126.164488,10.653561 126.105951,6.43892683 125.969366,3.41453659 C125.891317,1.63892683 125.715707,1.22917073 125.091317,1.03404878 C124.330667,0.780390244 123.550179,0.643804878 123.550179,0.643804878 L123.550179,0.370634146 L129.423024,0.370634146 L129.423024,0.643804878 C129.423024,0.643804878 128.466927,0.780390244 127.862049,1.05356098" id="Fill-15"></path>            <path d="M146.418146,2.43882927 L146.398634,2.43882927 C146.398634,2.43882927 145.189203,5.44370732 144.447415,7.512 L148.388878,7.512 L146.418146,2.43882927 Z M147.901073,14.028748 L147.901073,13.736065 C148.505951,13.6580163 149.969366,13.6189919 149.969366,12.4677724 C149.969366,12.0388293 149.812943,11.4921626 149.637333,11.0043577 C149.110504,9.4824065 148.75961,8.52663415 148.75961,8.52663415 L144.077008,8.52663415 C144.077008,8.52663415 143.413593,10.4388293 143.120911,11.433626 C143.02335,11.7656585 142.906276,12.1750894 142.906276,12.428748 C142.906276,13.6970407 144.233106,13.6580163 144.662374,13.736065 L144.662374,14.028748 L138.964813,14.028748 L138.964813,13.736065 C138.964813,13.736065 139.959935,13.6775285 140.584325,13.2677724 C141.033106,12.9555772 141.559935,12.2531382 142.145301,10.8092358 C143.394081,7.74582114 145.793756,1.5022439 145.793756,1.5022439 C145.344976,0.780292683 144.389203,0.722081301 143.706276,0.663544715 L143.706276,0.370861789 L149.852293,0.370861789 L149.852293,0.663544715 C148.818146,0.741268293 148.388878,1.0924878 148.291317,1.46354472 C148.291317,1.46354472 150.710504,7.80468293 152.09587,11.3946016 C152.856846,13.3848455 154.164163,13.6580163 155.022699,13.736065 L155.022699,14.028748 L147.901073,14.028748 Z" id="Fill-17"></path>            <path d="M168.974049,14.1261463 C168.974049,14.1261463 168.525268,14.0285854 167.998439,14.0285854 C167.432585,14.0285854 166.613073,14.3215935 165.34478,14.3215935 C161.228033,14.3215935 157.20852,11.9798049 157.20852,7.31704065 C157.20852,3.33655285 160.369496,0.11704065 165.325268,0.11704065 C167.510634,0.11704065 169.090797,0.721918699 169.305756,0.721918699 C169.715187,0.721918699 169.774049,0.507284553 169.988358,0.292650407 L170.222829,0.331674797 C170.222829,0.331674797 169.949659,1.99021138 169.87161,4.13622764 L169.578602,4.13622764 C169.578602,4.13622764 169.461854,2.75086179 168.993561,2.16582114 C168.27161,1.26826016 166.710634,0.897528455 165.267057,0.897528455 C162.574049,0.897528455 159.920715,2.96582114 159.920715,6.57525203 C159.920715,11.1020813 162.730472,13.5017561 165.87161,13.5017561 C167.042341,13.5017561 167.959415,13.2285854 168.739577,12.5264715 C169.461854,11.8825691 169.754211,11.0825691 170.066407,10.3606179 L170.339577,10.4386667 C170.339577,10.4386667 169.87161,12.7606179 168.974049,14.1261463" id="Fill-19"></path>            <path d="M178.905789,2.43882927 L178.886276,2.43882927 C178.886276,2.43882927 177.676846,5.44370732 176.935057,7.512 L180.87652,7.512 L178.905789,2.43882927 Z M180.388715,14.028748 L180.388715,13.736065 C180.993593,13.6580163 182.457008,13.6189919 182.457008,12.4677724 C182.457008,12.0388293 182.300585,11.4921626 182.124976,11.0043577 C181.598146,9.4824065 181.247252,8.52663415 181.247252,8.52663415 L176.56465,8.52663415 C176.56465,8.52663415 175.901236,10.4388293 175.608228,11.433626 C175.510992,11.7656585 175.393593,12.1750894 175.393593,12.428748 C175.393593,13.6970407 176.720423,13.6580163 177.150016,13.736065 L177.150016,14.028748 L171.452455,14.028748 L171.452455,13.736065 C171.452455,13.736065 172.447577,13.6775285 173.071967,13.2677724 C173.520423,12.9555772 174.047577,12.2531382 174.632618,10.8092358 C175.881398,7.74582114 178.281398,1.5022439 178.281398,1.5022439 C177.832618,0.780292683 176.876846,0.722081301 176.193593,0.663544715 L176.193593,0.370861789 L182.339935,0.370861789 L182.339935,0.663544715 C181.305789,0.741268293 180.87652,1.0924878 180.778959,1.46354472 C180.778959,1.46354472 183.198146,7.80468293 184.583512,11.3946016 C185.344488,13.3848455 186.651805,13.6580163 187.510341,13.736065 L187.510341,14.028748 L180.388715,14.028748 Z" id="Fill-21"></path>            <path d="M199.217951,2.40009756 C197.715512,1.32660163 196.115837,1.09245528 194.905756,1.09245528 C194.086569,1.09245528 194.14478,1.13180488 194.086569,2.14643902 C194.008195,3.68757724 194.028033,4.91684553 194.028033,6.86806504 C194.028033,8.93635772 194.028033,10.8677398 194.067057,12.2531057 C194.437789,13.0921301 195.842341,13.4238374 196.642341,13.4238374 C197.989008,13.4238374 199.335024,12.9753821 200.154537,12.1753821 C201.598114,10.7509919 201.891122,9.15099187 201.891122,7.37538211 C201.891122,5.40465041 200.896,3.59001626 199.217951,2.40009756 M196.583805,14.1653008 C195.510959,14.1653008 194.242667,14.0092033 192.974374,14.0092033 C191.589008,14.0092033 189.189008,14.0287154 189.189008,14.0287154 L189.189008,13.7360325 C189.189008,13.7360325 190.515837,13.6774959 191.042667,13.3067642 C191.803642,12.779935 191.78413,12.0579837 191.823154,11.1213984 C191.881691,9.87294309 191.881691,8.91684553 191.881691,7.37538211 C191.881691,5.67782114 191.901203,4.70221138 191.842667,3.18026016 C191.78413,1.71684553 191.686569,1.40465041 191.276813,1.13180488 C190.769496,0.800097561 189.442667,0.663512195 189.442667,0.663512195 L189.442667,0.370829268 C191.354862,0.370829268 193.871935,0.331804878 196.27161,0.331804878 C200.27161,0.331804878 204.505756,2.41960976 204.505756,7.10221138 C204.505756,10.9457886 201.403317,14.1653008 196.583805,14.1653008" id="Fill-23"></path>            <path d="M217.949854,14.0286504 L207.257496,14.0286504 L207.257496,13.7362927 C207.257496,13.7362927 208.681886,13.6774309 209.169691,13.2875122 C209.657496,12.8972683 209.73522,12.2143415 209.794081,11.3945041 C209.852618,10.5362927 209.891642,9.05336585 209.891642,7.39515447 C209.891642,5.63873171 209.910829,4.99515447 209.852618,3.19970732 C209.813268,1.89271545 209.755057,1.42442276 209.286439,1.11222764 C208.740423,0.76100813 207.569691,0.663447154 207.569691,0.663447154 L207.569691,0.370764228 C207.569691,0.370764228 211.998634,0.390276423 215.764163,0.390276423 C217.149854,0.390276423 217.578797,0.370764228 217.812943,3.25203252e-05 L218.027577,3.25203252e-05 L217.851967,3.18052033 L217.598634,3.18052033 C217.598634,3.18052033 217.539772,2.04881301 217.071805,1.6975935 C216.623024,1.36588618 215.920585,1.32653659 215.15961,1.2878374 C214.690992,1.2683252 214.027902,1.24881301 213.462049,1.24881301 C212.720585,1.24881301 212.096195,1.2683252 212.096195,1.2683252 C212.037659,2.96556098 211.998634,4.97531707 211.998634,6.59515447 L215.374244,6.53629268 C215.588878,6.53629268 216.076683,6.49726829 216.330341,6.22409756 C216.642211,5.87287805 216.701073,5.48295935 216.798634,4.97531707 L217.051967,4.97531707 L217.051967,9.15092683 L216.798634,9.15092683 C216.798634,9.15092683 216.584,7.92165854 216.154407,7.51190244 L211.998634,7.51190244 C211.998634,7.51190244 211.979447,9.77531707 212.057171,11.2188943 C212.13522,12.7021463 212.369366,13.2484878 214.340098,13.2484878 C215.666602,13.2484878 216.993756,12.9554797 217.871805,12.1945041 C218.35961,11.765561 218.749528,10.8289756 218.749528,10.8289756 L218.984,10.9265366 L217.949854,14.0286504 Z" id="Fill-25"></path>            <path d="M234.124911,14.0286504 L234.124911,13.7362927 C234.124911,13.7362927 235.529789,13.6969431 236.017593,13.2286504 C236.505398,12.7606829 236.602959,12.1945041 236.602959,11.2579187 C236.602959,9.56068293 236.42735,8.40946341 236.290764,6.61434146 C236.212715,5.48295935 236.134667,4.76068293 236.115154,3.62897561 L236.056618,3.60978862 C236.056618,3.60978862 235.315154,5.13173984 234.456943,6.67287805 C233.695967,8.03873171 233.129789,9.03385366 232.524911,10.1850732 C232.095967,11.0042602 231.159382,13.0335285 230.886211,14.0875122 L230.554504,14.0875122 C230.554504,14.0875122 230.359382,13.4240976 229.813041,11.9798699 C229.130114,10.165561 228.154504,8.25336585 227.530114,6.8484878 C227.022797,5.71678049 226.652065,4.95613008 226.183772,3.82409756 L226.144748,3.82409756 C226.144748,3.82409756 225.344748,9.6582439 225.344748,11.9997073 C225.344748,12.8387317 225.481333,13.072878 226.086211,13.4042602 C226.613041,13.6774309 227.491415,13.7554797 227.491415,13.7554797 L227.491415,14.0286504 L221.501171,14.0286504 L221.501171,13.7362927 C221.501171,13.7362927 222.847187,13.5798699 223.354829,13.0143415 C223.822797,12.4875122 224.056943,11.6875122 224.271577,10.5362927 C224.759382,7.82409756 225.383772,2.40003252 225.383772,2.40003252 C225.071577,1.81434146 224.974016,1.44393496 224.232553,0.995154472 C223.842634,0.76100813 222.964585,0.663447154 222.964585,0.663447154 L222.964585,0.370764228 L229.130114,0.370764228 L229.130114,0.663447154 C229.130114,0.663447154 227.666699,0.741495935 227.393528,1.54149593 C228.11548,3.31710569 229.130114,5.2484878 230.222797,7.74604878 C230.65174,8.74117073 231.393528,10.3411707 231.393528,10.3411707 C231.393528,10.3411707 232.524911,8.27287805 233.208163,7.02409756 C234.281008,5.05336585 235.139545,3.64881301 236.017593,1.63873171 C235.783447,0.780520325 234.144748,0.663447154 234.144748,0.663447154 L234.144748,0.370764228 L240.153854,0.370764228 L240.153854,0.663447154 C240.153854,0.663447154 239.588325,0.72198374 239.041659,0.917105691 C238.495317,1.11222764 238.183122,1.52198374 238.183122,2.18539837 C238.183122,4.19515447 238.261496,4.93629268 238.398081,6.73173984 C238.495317,7.90214634 238.670927,9.97043902 238.846862,11.2387317 C239.10052,12.9945041 239.490764,13.2091382 240.115154,13.4432846 C240.798081,13.7164553 241.422146,13.7362927 241.422146,13.7362927 L241.422146,14.0286504 L234.124911,14.0286504 Z" id="Fill-27"></path>            <path d="M256.017366,0.956064756 C255.588098,1.1706989 255.11948,1.580455 254.514927,2.53655256 C253.324683,4.46825988 251.47135,7.90208102 251.47135,7.90208102 C251.432,8.3703737 251.412488,9.09265012 251.412488,9.81427614 C251.412488,10.4386664 251.432,11.0825688 251.451513,11.5508615 C251.510049,12.3898859 251.510049,13.0337883 252.173464,13.3850078 C252.680781,13.6386664 253.890537,13.7362274 253.890537,13.7362274 L253.890537,14.0285851 L246.749399,14.0285851 L246.749399,13.7362274 C246.749399,13.7362274 247.978342,13.618829 248.485984,13.4041948 C249.012488,13.1703737 249.168586,12.6432192 249.227122,11.5898859 C249.285984,10.399642 249.266147,8.64386963 249.266147,8.64386963 C249.266147,8.64386963 247.159155,4.70240622 245.753952,2.45850378 C245.266147,1.67801598 244.817692,1.20972329 244.485984,1.01460134 C243.978667,0.721918415 243.315253,0.663707033 243.315253,0.663707033 L243.315253,0.370698902 L249.207935,0.370698902 L249.207935,0.663707033 C248.817366,0.70240622 247.880781,0.81947939 247.880781,1.52191841 C247.880781,1.85362573 247.998179,2.22435744 248.349399,2.90728427 C248.739318,3.68744687 250.885659,7.29720297 250.885659,7.29720297 C250.885659,7.29720297 252.153952,5.13167451 253.071025,3.02435744 C253.344196,2.3999672 253.461269,1.9706989 253.461269,1.63899159 C253.461269,0.70240622 252.466147,0.70240622 251.997854,0.663707033 L251.997854,0.370698902 L257.168261,0.370698902 L257.168261,0.663707033 C257.168261,0.663707033 256.563708,0.682894024 256.017366,0.956064756" id="Fill-29"></path>            <path d="M13.5507317,26.2050407 C10.4095935,26.2050407 8.96569106,29.3461789 8.96569106,32.4486179 C8.96569106,36.4092683 11.1315447,39.0043902 13.9604878,39.0043902 C17.1019512,39.0043902 18.6043902,36.155935 18.6043902,32.6437398 C18.6043902,29.2291057 16.7702439,26.2050407 13.5507317,26.2050407 M13.6678049,39.784878 C9.92178862,39.784878 6.25349593,37.0531707 6.25349593,32.6629268 C6.25349593,28.5269919 9.62878049,25.4437398 13.8629268,25.4437398 C17.8434146,25.4437398 21.3162602,28.1757724 21.3162602,32.5071545 C21.3162602,36.7995122 17.784878,39.784878 13.6678049,39.784878" id="Fill-32"></path>            <path d="M34.8969431,28.5462439 L34.6432846,28.5462439 C34.5652358,28.0782764 34.5457236,27.356 34.0579187,27.0242927 C33.6286504,26.7316098 32.965561,26.6925854 32.2045854,26.6538862 C31.1506016,26.5950244 29.1801951,26.6148618 29.1801951,26.6148618 C29.1216585,28.3120976 29.1411707,31.9995772 29.1411707,31.9995772 C29.1411707,31.9995772 31.2484878,31.9410407 32.5945041,31.9020163 C33.0237724,31.8828293 33.4335285,31.8242927 33.6286504,31.5706341 C33.8823089,31.2386016 33.9603577,30.8681951 34.0384065,30.360878 L34.292065,30.360878 L34.292065,34.6142114 L34.0384065,34.6142114 C34.0384065,34.6142114 33.9798699,34.0678699 33.8237724,33.5995772 C33.7066992,33.2483577 33.4533659,32.9166504 32.5749919,32.9166504 C31.3066992,32.8974634 29.1411707,32.8974634 29.1411707,32.8974634 C29.1411707,32.8974634 29.1216585,35.258439 29.2192195,36.877626 C29.2777561,37.9117724 29.3753171,38.5166504 30.1948293,38.8093333 C30.7801951,39.0239675 31.6384065,39.1020163 31.6384065,39.1020163 L31.6384065,39.394374 L24.6338537,39.394374 L24.6338537,39.1020163 C24.6338537,39.1020163 25.8240976,39.0629919 26.3314146,38.672748 C26.8972683,38.2431545 26.9167805,37.4629919 26.9558049,36.7995772 C27.0338537,35.4142114 27.0338537,33.8142114 27.0338537,32.7020163 C27.0338537,31.3950244 26.9948293,29.4242927 26.9558049,28.5657561 C26.8972683,27.4925854 26.8972683,26.8096585 26.4289756,26.4974634 C25.8826341,26.1462439 24.6732033,26.0294959 24.6732033,26.0294959 L24.6732033,25.7364878 C24.6732033,25.7364878 26.7606829,25.7755122 28.1070244,25.7755122 C29.3558049,25.7755122 31.287187,25.756 32.8094634,25.756 C34.0969431,25.756 34.6627967,25.7173008 34.8579187,25.3270569 L35.0725528,25.3270569 L34.8969431,28.5462439 Z" id="Fill-34"></path>            <path d="M50.5068618,27.8046829 L50.4873496,27.8046829 C50.4873496,27.8046829 49.2775935,30.809561 48.5361301,32.8778537 L52.4775935,32.8778537 L50.5068618,27.8046829 Z M51.9897886,39.3946016 L51.9897886,39.1019187 C52.5943415,39.0238699 54.0577561,38.9848455 54.0577561,37.833626 C54.0577561,37.4046829 53.9016585,36.8580163 53.7260488,36.3702114 C53.1992195,34.8482602 52.8483252,33.8924878 52.8483252,33.8924878 L48.1653984,33.8924878 C48.1653984,33.8924878 47.5019837,35.8046829 47.2093008,36.7994797 C47.1117398,37.1315122 46.9946667,37.5409431 46.9946667,37.7946016 C46.9946667,39.0628943 48.3214959,39.0238699 48.7507642,39.1019187 L48.7507642,39.3946016 L43.0535285,39.3946016 L43.0535285,39.1019187 C43.0535285,39.1019187 44.0486504,39.0433821 44.6730407,38.633626 C45.1214959,38.3214309 45.6486504,37.6189919 46.2336911,36.1750894 C47.4824715,33.1116748 49.8824715,26.8680976 49.8824715,26.8680976 C49.4336911,26.1461463 48.4775935,26.087935 47.7946667,26.0293984 L47.7946667,25.7367154 L53.9410081,25.7367154 L53.9410081,26.0293984 C52.9065366,26.107122 52.4775935,26.4583415 52.3800325,26.8293984 C52.3800325,26.8293984 54.7992195,33.1705366 56.1845854,36.7604553 C56.945561,38.7506992 58.252878,39.0238699 59.1110894,39.1019187 L59.1110894,39.3946016 L51.9897886,39.3946016 Z" id="Fill-36"></path>            <path d="M64.8874146,26.3803577 L64.8679024,32.5657236 L67.0532683,32.7995447 C68.0093659,32.3706016 69.1605854,31.2584065 69.1605854,29.5608455 C69.1605854,27.004748 66.4093659,26.3803577 64.8874146,26.3803577 M74.2919675,39.5117398 C72.0675772,39.5117398 70.1553821,38.7897886 68.7898537,36.7995447 C67.8727805,35.4532033 67.424,34.1653984 67.1313171,33.3653984 C66.5069268,33.4437724 64.8679024,33.7169431 64.8679024,33.7169431 C64.8679024,33.7169431 64.8874146,35.5315772 64.9654634,36.7995447 C65.024,37.5214959 65.0044878,38.6532033 65.921561,38.8873496 C66.3898537,39.0044228 67.228878,39.1019837 67.228878,39.1019837 L67.228878,39.3946667 L60.5170081,39.3946667 L60.5170081,39.1019837 C60.5170081,39.1019837 61.6487154,39.0629593 62.1166829,38.6922276 C62.6825366,38.2434472 62.6825366,37.4824715 62.721561,36.8580813 C62.7804228,36.0775935 62.799935,34.3803577 62.799935,32.7608455 C62.799935,31.3751545 62.7804228,29.7364553 62.721561,28.5270244 C62.6630244,27.2193821 62.5849756,26.7514146 62.1365203,26.4392195 C61.6093659,26.0681626 60.5755447,26.0294634 60.5755447,26.0294634 L60.5755447,25.7367805 C60.5755447,25.7367805 64.0679024,25.6782439 65.824,25.6782439 C69.024,25.6782439 71.540748,26.809626 71.540748,29.2486504 C71.540748,31.1608455 69.9410732,32.1364553 68.8874146,32.5657236 C68.8874146,32.5657236 69.5895285,34.4193821 71.4626992,36.5849106 C71.8919675,37.0727154 72.945626,38.028813 73.843187,38.4775935 C74.9163577,39.0044228 76.0090407,39.1019837 76.3212358,39.1214959 L76.3212358,39.3946667 C75.8334309,39.4532033 74.9358699,39.5117398 74.2919675,39.5117398" id="Fill-38"></path>            <path d="M88.2434472,28.8193821 L87.9897886,28.7803577 C87.9897886,28.7803577 88.0483252,28.3514146 88.0483252,28.0193821 C88.0483252,27.3364553 87.8532033,26.907187 86.312065,26.8681626 C84.6532033,26.8294634 83.0145041,26.8294634 83.0145041,26.8294634 C83.0145041,26.8294634 82.9754797,30.809626 82.9754797,32.3897886 C82.9754797,33.7169431 82.9754797,35.6681626 83.0145041,36.8971057 C83.0535285,37.7751545 83.0925528,38.4385691 83.7364553,38.7702764 C84.2437724,39.023935 85.4336911,39.1019837 85.4336911,39.1019837 L85.4336911,39.3946667 L78.3315772,39.3946667 L78.3315772,39.1019837 C78.3315772,39.1019837 79.5218211,38.9653984 80.0291382,38.731252 C80.6730407,38.4385691 80.7315772,37.6775935 80.7706016,36.8580813 C80.8291382,35.6093008 80.8291382,33.5803577 80.8291382,32.409626 C80.8291382,30.8681626 80.7901138,26.8294634 80.7901138,26.8294634 C80.7901138,26.8294634 79.0340163,26.8294634 77.4343415,26.907187 C76.8486504,26.9462114 76.4197073,27.0242602 76.0684878,27.2584065 C75.5611707,27.590439 75.3465366,28.2535285 75.1709268,28.6827967 L74.8977561,28.6242602 L75.8733659,25.1315772 L76.088,25.1514146 C76.1465366,25.3660488 76.088,25.8148293 77.8636098,25.8730407 C79.5998699,25.9315772 80.8486504,25.9514146 82.1949919,25.9514146 C83.3852358,25.9514146 84.6532033,25.9315772 86.3897886,25.892878 C88.1068618,25.8538537 88.5751545,25.7758049 88.9653984,25.1123902 L89.1995447,25.1514146 L88.2434472,28.8193821 Z" id="Fill-40"></path>            <path d="M94.8582114,39.628878 C93.0045528,39.628878 91.9512195,38.9849756 91.5411382,38.828878 L91.2484553,39.4334309 L90.995122,39.4334309 L90.6829268,35.3752195 L90.9557724,35.3361951 C91.1317073,36.2142439 91.4045528,36.8776585 91.8533333,37.521561 C92.1073171,37.8922927 93.1996748,38.828878 94.8582114,38.828878 C96.419187,38.828878 97.8435772,38.0483902 97.8435772,36.3508293 C97.8435772,34.8483902 96.9265041,34.2630244 95.5021138,33.5218862 C93.5313821,32.4874146 91.3268293,31.8243252 91.3268293,29.0340813 C91.3268293,27.1417236 93.0435772,25.5218862 95.5801626,25.5218862 C97.2972358,25.5218862 98.4091057,25.9905041 98.6045528,25.9905041 C98.8969106,25.9905041 99.0725203,25.599935 99.0725203,25.599935 L99.3069919,25.599935 L99.4630894,29.0145691 L99.1895935,29.0340813 C99.0725203,28.3901789 98.9752846,27.902374 98.4091057,27.199935 C98.019187,26.7121301 97.0045528,26.2828618 95.8338211,26.2828618 C94.6045528,26.2828618 93.4143089,26.9661138 93.4143089,28.4487154 C93.4143089,29.6776585 94.4289431,30.3804228 95.521626,30.9853008 C97.4143089,32.0386341 100.067967,32.6828618 100.067967,35.4337561 C100.067967,37.9700163 97.921626,39.628878 94.8582114,39.628878" id="Fill-42"></path>            <path d="M116.053041,26.1072195 C115.135967,26.1072195 114.433854,26.7706341 114.433854,27.7072195 C114.433854,28.8779512 115.448163,29.677626 116.501821,30.6340488 C116.892065,30.4194146 117.750602,29.6974634 117.750602,28.0389268 C117.750602,27.0047805 117.145724,26.1072195 116.053041,26.1072195 M114.901821,31.8828293 C114.492065,32.1166504 113.302146,33.1117724 113.302146,34.6142114 C113.302146,37.677626 115.896943,38.0873821 116.814016,38.0873821 C118.62865,38.0873821 119.682309,36.4093333 119.682309,36.4093333 C119.682309,36.4093333 117.009138,33.7361626 114.901821,31.8828293 M126.003935,39.8431545 C123.779545,39.8431545 122.257919,38.9849431 120.209138,36.9361626 C119.448163,37.8142114 117.82865,39.6873821 115.311577,39.6873821 C113.028976,39.6873821 111.175317,38.0288455 111.175317,35.8434797 C111.175317,33.1706341 113.262797,32.1166504 114.414016,31.4142114 C113.653366,30.7706341 112.44361,30.0096585 112.44361,28.4096585 C112.44361,26.7904715 114.004585,25.4242927 116.482309,25.4242927 C118.316455,25.4242927 119.877431,26.3218537 119.877431,28.0389268 C119.877431,29.658439 118.335967,30.4974634 116.931089,31.0242927 C119.116455,33.0340488 120.931089,34.8093333 120.931089,34.8093333 C121.301821,34.3410407 122.452715,32.3706341 122.452715,31.6096585 C122.452715,30.6340488 121.06735,30.5169756 120.618894,30.458439 L120.618894,30.1654309 L127.155154,30.1654309 L127.155154,30.458439 C126.238081,30.5950244 124.735642,30.7507967 123.155154,32.877626 C122.530764,33.7166504 121.477431,35.3361626 121.477431,35.3361626 C122.238407,36.0386016 124.774667,38.4971382 127.701496,38.4971382 C129.594179,38.4971382 130.667024,37.6581138 131.701171,36.2142114 L131.993854,36.4093333 C130.745073,38.1654309 129.262472,39.8431545 126.003935,39.8431545" id="Fill-44"></path>            <path d="M141.336065,39.628878 C139.482407,39.628878 138.429073,38.9849756 138.018992,38.828878 L137.726309,39.4334309 L137.472976,39.4334309 L137.16078,35.3752195 L137.433626,35.3361951 C137.609561,36.2142439 137.882407,36.8776585 138.331187,37.521561 C138.585171,37.8922927 139.677528,38.828878 141.336065,38.828878 C142.897041,38.828878 144.321431,38.0483902 144.321431,36.3508293 C144.321431,34.8483902 143.404358,34.2630244 141.979967,33.5218862 C140.009236,32.4874146 137.804683,31.8243252 137.804683,29.0340813 C137.804683,27.1417236 139.521431,25.5218862 142.058016,25.5218862 C143.775089,25.5218862 144.886959,25.9905041 145.082081,25.9905041 C145.374764,25.9905041 145.550374,25.599935 145.550374,25.599935 L145.78452,25.599935 L145.940943,29.0145691 L145.667447,29.0340813 C145.550374,28.3901789 145.453138,27.902374 144.886959,27.199935 C144.496715,26.7121301 143.482407,26.2828618 142.311675,26.2828618 C141.082407,26.2828618 139.892163,26.9661138 139.892163,28.4487154 C139.892163,29.6776585 140.906797,30.3804228 141.99948,30.9853008 C143.892163,32.0386341 146.545496,32.6828618 146.545496,35.4337561 C146.545496,37.9700163 144.399154,39.628878 141.336065,39.628878" id="Fill-46"></path>            <path d="M161.706211,39.492 C161.706211,39.492 161.257431,39.394439 160.730602,39.394439 C160.165073,39.394439 159.345236,39.6874472 158.077268,39.6874472 C153.96052,39.6874472 149.940683,37.3456585 149.940683,32.6828943 C149.940683,28.7024065 153.101659,25.4828943 158.057431,25.4828943 C160.242797,25.4828943 161.823285,26.0877724 162.038244,26.0877724 C162.447675,26.0877724 162.506211,25.8731382 162.720846,25.6585041 L162.954992,25.6975285 C162.954992,25.6975285 162.681821,27.356065 162.603772,29.5020813 L162.311089,29.5020813 C162.311089,29.5020813 162.194016,28.1167154 161.726049,27.5316748 C161.003772,26.6341138 159.442797,26.2633821 157.99922,26.2633821 C155.306537,26.2633821 152.652878,28.3316748 152.652878,31.9411057 C152.652878,36.467935 155.462634,38.8676098 158.604098,38.8676098 C159.774829,38.8676098 160.691577,38.594439 161.472065,37.8923252 C162.194016,37.2484228 162.486699,36.4484228 162.798894,35.7264715 L163.072065,35.8045203 C163.072065,35.8045203 162.603772,38.1264715 161.706211,39.492" id="Fill-48"></path>            <path d="M170.994179,26.4781463 C170.389301,26.9070894 170.389301,27.5705041 170.350602,28.3903415 C170.29174,29.7366829 170.29174,30.7900163 170.29174,32.3314797 C170.29174,33.9314797 170.29174,35.5314797 170.350602,36.7802602 C170.389301,37.8140813 170.428325,38.3994472 171.072228,38.7311545 C171.579545,38.984813 172.769789,39.1018862 172.769789,39.1018862 L172.769789,39.3945691 L165.706374,39.3945691 L165.706374,39.1018862 C165.706374,39.1018862 166.799382,38.984813 167.345398,38.7506667 C167.89174,38.5168455 168.047837,37.9506667 168.106374,36.7994472 C168.165236,35.5314797 168.165236,33.9509919 168.165236,32.3509919 C168.165236,30.8485528 168.165236,30.068065 168.126211,28.4879024 C168.087187,27.2781463 167.989626,26.8098537 167.540846,26.4781463 C167.111577,26.1461138 165.765236,26.0293659 165.765236,26.0293659 L165.765236,25.7366829 L172.808813,25.7366829 L172.808813,26.0293659 C172.808813,26.0293659 171.481984,26.1461138 170.994179,26.4781463" id="Fill-50"></path>            <path d="M186.486439,39.3945041 L175.794407,39.3945041 L175.794407,39.1021463 C175.794407,39.1021463 177.218472,39.0432846 177.706276,38.6533659 C178.194081,38.263122 178.27213,37.5801951 178.330667,36.7603577 C178.389528,35.9021463 178.428553,34.4192195 178.428553,32.7610081 C178.428553,31.0045854 178.44774,30.3610081 178.389528,28.565561 C178.350179,27.2585691 178.291967,26.7902764 177.82335,26.4780813 C177.277333,26.1268618 176.106602,26.0293008 176.106602,26.0293008 L176.106602,25.7366179 C176.106602,25.7366179 180.535545,25.7561301 184.301073,25.7561301 C185.686439,25.7561301 186.115707,25.7366179 186.349854,25.3658862 L186.564488,25.3658862 L186.388878,28.546374 L186.13522,28.546374 C186.13522,28.546374 186.076683,27.4146667 185.608715,27.0634472 C185.159935,26.7317398 184.457496,26.6923902 183.69652,26.6536911 C183.227902,26.6341789 182.564488,26.6146667 181.998959,26.6146667 C181.257496,26.6146667 180.633106,26.6341789 180.633106,26.6341789 C180.574569,28.3314146 180.535545,30.3411707 180.535545,31.9610081 L183.911154,31.9021463 C184.125463,31.9021463 184.613268,31.863122 184.867252,31.5899512 C185.179122,31.2387317 185.237659,30.848813 185.33522,30.3411707 L185.588878,30.3411707 L185.588878,34.5167805 L185.33522,34.5167805 C185.33522,34.5167805 185.120911,33.2875122 184.691317,32.8777561 L180.535545,32.8777561 C180.535545,32.8777561 180.516033,35.1411707 180.594081,36.584748 C180.67213,38.068 180.906276,38.6143415 182.876683,38.6143415 C184.203512,38.6143415 185.530667,38.3213333 186.408715,37.5603577 C186.896195,37.1314146 187.286439,36.1948293 187.286439,36.1948293 L187.520585,36.2923902 L186.486439,39.3945041 Z" id="Fill-52"></path>            <path d="M204.866764,26.4194146 C204.378959,26.6340488 204.222862,27.0828293 204.183512,28.4291707 C204.105463,31.7264065 204.125301,34.1462439 204.125301,38.0093333 C204.125301,38.5166504 204.183512,39.6483577 204.183512,39.6483577 L203.67652,39.7459187 L193.608553,28.7803902 L193.588715,28.7999024 C193.588715,28.7999024 193.608553,33.872748 193.647577,36.0581138 C193.686602,38.0873821 193.881724,38.5166504 194.349691,38.7117724 C195.091154,39.0239675 196.066764,39.1020163 196.066764,39.1020163 L196.066764,39.394374 L190.057333,39.394374 L190.057333,39.1020163 C190.057333,39.1020163 191.071967,39.0239675 191.774407,38.6922602 C192.223187,38.477626 192.398797,37.7946992 192.457333,36.3117724 C192.574407,33.3072195 192.613431,27.6681951 192.613431,27.6681951 C192.613431,27.6681951 191.950016,26.8877073 191.345138,26.5173008 C190.740585,26.1462439 190.310992,26.1072195 189.745138,26.0294959 L189.745138,25.7364878 L195.832943,25.7364878 L195.832943,26.0294959 C195.832943,26.0294959 194.778959,26.1270569 194.564325,26.6730732 C197.881724,30.458439 203.168878,36.0194146 203.168878,36.0194146 C203.168878,36.0194146 203.110667,31.8047805 202.974081,28.7803902 C202.895707,27.0047805 202.720098,26.5950244 202.095707,26.3999024 C201.335057,26.1462439 200.554569,26.0096585 200.554569,26.0096585 L200.554569,25.7364878 L206.427415,25.7364878 L206.427415,26.0096585 C206.427415,26.0096585 205.471317,26.1462439 204.866764,26.4194146" id="Fill-54"></path>            <path d="M221.178699,39.492 C221.178699,39.492 220.729919,39.394439 220.203089,39.394439 C219.637236,39.394439 218.817724,39.6874472 217.549756,39.6874472 C213.432683,39.6874472 209.413171,37.3456585 209.413171,32.6828943 C209.413171,28.7024065 212.574146,25.4828943 217.529919,25.4828943 C219.715285,25.4828943 221.295772,26.0877724 221.510407,26.0877724 C221.920163,26.0877724 221.978699,25.8731382 222.193333,25.6585041 L222.42748,25.6975285 C222.42748,25.6975285 222.154309,27.356065 222.07626,29.5020813 L221.783577,29.5020813 C221.783577,29.5020813 221.666504,28.1167154 221.198211,27.5316748 C220.47626,26.6341138 218.915285,26.2633821 217.471707,26.2633821 C214.778699,26.2633821 212.125366,28.3316748 212.125366,31.9411057 C212.125366,36.467935 214.935122,38.8676098 218.07626,38.8676098 C219.247317,38.8676098 220.164065,38.594439 220.944553,37.8923252 C221.666504,37.2484228 221.958862,36.4484228 222.271057,35.7264715 L222.544553,35.8045203 C222.544553,35.8045203 222.07626,38.1264715 221.178699,39.492" id="Fill-56"></path>            <path d="M235.695675,39.3945041 L225.003317,39.3945041 L225.003317,39.1021463 C225.003317,39.1021463 226.427707,39.0432846 226.915512,38.6533659 C227.403317,38.263122 227.481041,37.5801951 227.539902,36.7603577 C227.598439,35.9021463 227.637463,34.4192195 227.637463,32.7610081 C227.637463,31.0045854 227.65665,30.3610081 227.598439,28.565561 C227.559089,27.2585691 227.500878,26.7902764 227.03226,26.4780813 C226.486244,26.1268618 225.315512,26.0293008 225.315512,26.0293008 L225.315512,25.7366179 C225.315512,25.7366179 229.744455,25.7561301 233.509984,25.7561301 C234.895675,25.7561301 235.324618,25.7366179 235.558764,25.3658862 L235.773398,25.3658862 L235.597789,28.546374 L235.344455,28.546374 C235.344455,28.546374 235.285593,27.4146667 234.817626,27.0634472 C234.368846,26.7317398 233.666407,26.6923902 232.905431,26.6536911 C232.436813,26.6341789 231.773724,26.6146667 231.20787,26.6146667 C230.466407,26.6146667 229.842016,26.6341789 229.842016,26.6341789 C229.78348,28.3314146 229.744455,30.3411707 229.744455,31.9610081 L233.120065,31.9021463 C233.334699,31.9021463 233.822504,31.863122 234.076163,31.5899512 C234.388033,31.2387317 234.446894,30.848813 234.544455,30.3411707 L234.797789,30.3411707 L234.797789,34.5167805 L234.544455,34.5167805 C234.544455,34.5167805 234.329821,33.2875122 233.900228,32.8777561 L229.744455,32.8777561 C229.744455,32.8777561 229.725268,35.1411707 229.802992,36.584748 C229.881041,38.068 230.115187,38.6143415 232.085919,38.6143415 C233.412423,38.6143415 234.739577,38.3213333 235.617626,37.5603577 C236.105431,37.1314146 236.49535,36.1948293 236.49535,36.1948293 L236.729821,36.2923902 L235.695675,39.3945041 Z" id="Fill-58"></path>            <path d="M243.598049,39.628878 C241.74439,39.628878 240.691057,38.9849756 240.281301,38.828878 L239.988293,39.4334309 L239.734634,39.4334309 L239.422439,35.3752195 L239.695935,35.3361951 C239.87122,36.2142439 240.144715,36.8776585 240.593496,37.521561 C240.846829,37.8922927 241.939512,38.828878 243.598049,38.828878 C245.159024,38.828878 246.583415,38.0483902 246.583415,36.3508293 C246.583415,34.8483902 245.666016,34.2630244 244.241626,33.5218862 C242.27122,32.4874146 240.066667,31.8243252 240.066667,29.0340813 C240.066667,27.1417236 241.783415,25.5218862 244.32,25.5218862 C246.037073,25.5218862 247.149268,25.9905041 247.34439,25.9905041 C247.637073,25.9905041 247.812683,25.599935 247.812683,25.599935 L248.046829,25.599935 L248.202602,29.0145691 L247.929431,29.0340813 C247.812683,28.3901789 247.714797,27.902374 247.149268,27.199935 C246.759024,26.7121301 245.74439,26.2828618 244.573659,26.2828618 C243.34439,26.2828618 242.154472,26.9661138 242.154472,28.4487154 C242.154472,29.6776585 243.16878,30.3804228 244.261463,30.9853008 C246.153821,32.0386341 248.807805,32.6828618 248.807805,35.4337561 C248.807805,37.9700163 246.661463,39.628878 243.598049,39.628878" id="Fill-60"></path>        </g>    </g></svg>