<?xml version="1.0" encoding="iso-8859-1"?>
<!-- Generator: Adobe Illustrator 16.0.4, SVG Export Plug-In . SVG Version: 6.00 Build 0)  -->
<!DOCTYPE svg PUBLIC "-//W3C//DTD SVG 1.1//EN" "http://www.w3.org/Graphics/SVG/1.1/DTD/svg11.dtd">
<svg version="1.1" xmlns="http://www.w3.org/2000/svg" xmlns:xlink="http://www.w3.org/1999/xlink" x="0px" y="0px" width="35px"
	 height="35px" viewBox="0 0 35 35" style="enable-background:new 0 0 35 35;" xml:space="preserve">
<g id="Layer_1_1_">
	<g>
		<polygon style="fill:#FFFFFF;" points="4.277,0 -0.022,0 -0.022,13.503 		"/>
		<path style="fill:#FFFFFF;" d="M16.257,19.706c0-2.71-1.5-3.292-4.703-3.292h-0.649v6.314h0.649
			C14.69,22.729,16.257,22.348,16.257,19.706z"/>
		<polygon style="fill:#FFFFFF;" points="10.681,35 18.16,35 11.084,25.506 10.681,25.506 		"/>
		<polygon style="fill:#FFFFFF;" points="8.666,13.324 6.158,5.15 3.718,13.324 		"/>
		<path style="fill:#FFFFFF;" d="M8.129,0l4.389,13.346c2.284,0,3.964,0.202,5.284,1.231c1.321,1.052,2.128,2.777,2.128,4.836
			c0,3.539-1.725,5.531-5.039,5.934L22.214,35H35V0H8.129z"/>
		<polygon style="fill:#FFFFFF;" points="7.345,17.041 7.345,17.041 2.598,17.041 -0.022,25.573 -0.022,35 7.345,35 		"/>
	</g>
</g>
<g id="Layer_1">
</g>
</svg>
