<?xml version="1.0" standalone="no"?>
<!DOCTYPE svg PUBLIC "-//W3C//DTD SVG 20010904//EN"
 "http://www.w3.org/TR/2001/REC-SVG-20010904/DTD/svg10.dtd">
<svg version="1.0" xmlns="http://www.w3.org/2000/svg"
 width="620.000000pt" height="126.000000pt" viewBox="0 0 620.000000 126.000000"
 preserveAspectRatio="xMidYMid meet">
<metadata>
Created by potrace 1.16, written by Peter Selinger 2001-2019
</metadata>
<g transform="translate(0.000000,126.000000) scale(0.100000,-0.100000)"
fill="#000000" stroke="none">
<path d="M0 630 l0 -630 3100 0 3100 0 0 630 0 630 -3100 0 -3100 0 0 -630z
m2324 -332 c-4 -7 -32 -44 -63 -83 -81 -104 -80 -102 -48 -82 38 24 34 4 -4
-24 -24 -17 -36 -20 -48 -12 -12 7 -23 8 -35 1 -22 -12 -46 -3 -46 17 0 13 -5
12 -30 -6 -24 -18 -32 -20 -44 -10 -11 10 -20 10 -37 1 -17 -10 -24 -9 -36 2
-20 21 -1 63 39 88 31 19 118 29 118 13 0 -3 -11 -21 -25 -39 -36 -47 -31 -51
18 -12 53 44 79 58 109 58 16 1 35 17 61 50 23 30 46 50 58 50 14 0 18 -4 13
-12z m466 3 c0 -7 -40 -63 -124 -170 -7 -10 1 -8 22 5 19 10 43 31 54 47 10
15 28 27 39 27 26 0 24 -5 -13 -52 -23 -29 -26 -38 -12 -30 10 5 28 20 39 32
42 47 131 70 123 33 -3 -13 -12 -17 -31 -16 -19 1 -34 -7 -52 -29 -14 -17 -24
-33 -21 -35 8 -9 96 45 117 71 11 14 29 26 40 26 20 0 26 -15 9 -25 -5 -3 -19
-19 -31 -36 -20 -28 -20 -30 -3 -21 11 6 28 20 39 32 11 12 32 28 47 36 27 14
108 20 108 7 0 -3 -12 -21 -26 -40 -25 -34 -29 -58 -4 -28 7 8 17 15 23 15 13
0 -21 -38 -46 -52 -12 -6 -23 -6 -32 2 -10 9 -19 8 -36 0 -17 -10 -24 -9 -37
3 -13 14 -19 14 -43 2 -22 -12 -29 -12 -38 -1 -6 7 -7 16 -3 21 4 4 -13 -2
-36 -14 -46 -23 -72 -22 -72 3 0 13 -7 11 -36 -6 l-35 -21 -6 22 -5 21 -30
-22 c-23 -16 -35 -19 -47 -11 -12 7 -23 8 -35 1 -22 -12 -46 -3 -46 16 0 13
-6 12 -35 -5 -19 -11 -39 -18 -45 -14 -16 10 -12 41 10 60 11 10 20 23 20 29
0 5 -22 -12 -49 -38 -35 -34 -55 -47 -69 -44 -10 3 -26 2 -34 -3 -11 -6 -20
-4 -28 7 -11 12 -8 22 16 57 17 23 40 43 52 45 22 3 30 -12 12 -23 -5 -3 -19
-20 -31 -37 l-23 -31 30 17 c17 10 39 31 49 46 16 24 25 28 67 28 58 0 63 -18
21 -69 l-28 -34 33 23 c17 13 32 20 32 15 0 -4 7 3 16 15 18 27 64 52 96 52
15 1 35 17 61 50 35 45 67 65 67 41z m1034 -46 c-10 -15 -12 -25 -5 -25 6 0
11 -4 11 -10 0 -5 -8 -10 -19 -10 -10 0 -36 -21 -57 -46 -42 -52 -24 -48 45
11 37 30 50 35 93 35 54 0 54 1 4 -65 -26 -35 -27 -37 -5 -17 14 12 29 22 33
22 13 0 45 44 46 63 0 9 6 17 14 17 7 0 21 11 30 25 9 14 25 25 36 25 24 0 25
-8 3 -32 -9 -11 -11 -18 -5 -18 7 0 12 -4 12 -10 0 -5 -8 -10 -18 -10 -16 0
-31 -15 -80 -82 -7 -10 17 4 53 32 61 46 106 62 119 42 8 -13 -7 -28 -51 -51
-23 -11 -44 -25 -48 -31 -10 -17 18 -11 53 10 37 23 42 24 42 9 0 -14 -88 -52
-106 -45 -8 3 -14 12 -14 21 0 12 -5 11 -32 -5 -23 -14 -35 -16 -45 -8 -7 5
-10 14 -7 19 3 5 -11 -1 -31 -12 -26 -15 -39 -19 -47 -11 -7 7 -19 7 -35 1
-28 -10 -43 -5 -43 17 0 11 -7 10 -29 -7 -29 -21 -51 -19 -51 5 0 10 -10 9
-38 -6 -40 -19 -72 -16 -72 7 0 9 -10 8 -37 -6 -44 -23 -57 -24 -72 -5 -27 32
40 106 97 106 31 0 28 -26 -5 -46 -16 -10 -39 -24 -53 -32 -34 -21 -9 -27 29
-7 17 8 33 16 35 16 3 0 21 16 40 35 40 40 96 49 96 14 0 -21 -26 -28 -32 -10
-2 6 -19 -5 -37 -24 -19 -20 -32 -38 -29 -42 4 -3 27 6 52 21 46 27 72 59 68
83 -2 6 4 12 12 12 8 0 23 11 33 25 10 13 28 25 41 25 22 0 22 -1 6 -25z
m-1386 -12 c-2 -10 -10 -18 -18 -18 -8 0 -16 8 -18 18 -2 12 3 17 18 17 15 0
20 -5 18 -17z m390 0 c-2 -10 -10 -18 -18 -18 -8 0 -16 8 -18 18 -2 12 3 17
18 17 15 0 20 -5 18 -17z m190 0 c-2 -10 -10 -18 -18 -18 -8 0 -16 8 -18 18
-2 12 3 17 18 17 15 0 20 -5 18 -17z m283 -31 c-5 -9 -7 -28 -4 -42 5 -30 -27
-65 -69 -75 -24 -6 -28 -4 -28 15 0 17 4 21 20 17 15 -4 24 2 37 26 16 32 15
32 -4 15 -38 -34 -37 -18 2 22 41 42 62 52 46 22z m141 -15 c4 -6 -3 -27 -14
-47 -21 -34 -21 -34 -2 -17 23 19 34 22 34 8 0 -14 -68 -53 -80 -46 -17 10
-11 41 12 71 l23 28 -34 -25 c-18 -13 -55 -54 -83 -91 -31 -43 -57 -68 -69
-68 -10 0 -19 3 -19 6 0 3 32 47 72 99 70 91 73 94 113 93 22 0 43 -5 47 -11z"/>
<path d="M1985 150 c-22 -22 -35 -40 -29 -40 13 0 79 68 73 75 -3 2 -23 -13
-44 -35z"/>
<path d="M2156 169 c-30 -23 -58 -67 -34 -54 23 14 49 39 59 57 12 23 8 23
-25 -3z"/>
<path d="M2610 155 c-18 -19 -31 -37 -28 -40 7 -7 56 32 68 56 17 30 -3 22
-40 -16z"/>
<path d="M3037 153 c-20 -20 -35 -39 -32 -42 3 -3 22 12 42 32 21 20 35 39 32
42 -3 3 -22 -11 -42 -32z"/>
<path d="M4096 185 c-11 -8 -15 -15 -9 -15 6 0 16 7 23 15 16 19 11 19 -14 0z"/>
<path d="M3832 157 c-18 -18 -32 -36 -32 -40 0 -13 48 23 65 49 22 34 4 30
-33 -9z"/>
</g>
</svg>
