<?xml version="1.0" encoding="UTF-8"?>
<svg width="353px" height="149px" viewBox="0 0 353 149" version="1.1" xmlns="http://www.w3.org/2000/svg" xmlns:xlink="http://www.w3.org/1999/xlink">
    <title>Group</title>
    <defs>
        <path d="M338.8,0 C338.8,31.1647916 338.2704,53.6861711 337.211201,67.5641386 C335.891705,84.8525993 320.803567,100.894097 304.365217,107.466447 C299.338129,109.476368 254.21639,118.387552 169,134.2 L169,134.2 L168.993,134.198 L166.471457,133.727697 C83.4238249,118.210019 39.4116002,109.456269 34.4347826,107.466447 C17.9964334,100.894097 2.90829492,83.7525993 1.58879882,66.4641386 C0.553401836,52.8980355 0.0240696703,31.422996 0.000802322342,2.03902004 L0,0 L0,0 Z" id="path-1"></path>
        <filter x="-3.7%" y="-6.3%" width="107.4%" height="118.6%" filterUnits="objectBoundingBox" id="filter-2">
            <feOffset dx="0" dy="4" in="SourceAlpha" result="shadowOffsetOuter1"></feOffset>
            <feGaussianBlur stdDeviation="3.5" in="shadowOffsetOuter1" result="shadowBlurOuter1"></feGaussianBlur>
            <feColorMatrix values="0 0 0 0 0.450980392   0 0 0 0 0.450980392   0 0 0 0 0.450980392  0 0 0 0.231889205 0" type="matrix" in="shadowBlurOuter1"></feColorMatrix>
        </filter>
    </defs>
    <g id="Navigation" stroke="none" stroke-width="1" fill="none" fill-rule="evenodd">
        <g id="Brand-bar/edu/D/Final" transform="translate(-604.000000, 0.000000)">
            <g id="Group" transform="translate(611.000000, 0.000000)">
                <g id="Combined-Shape">
                    <use fill="black" fill-opacity="1" filter="url(#filter-2)" xlink:href="#path-1"></use>
                    <use fill="#FFFFFF" fill-rule="evenodd" xlink:href="#path-1"></use>
                </g>
                <g id="uchicago_wordmark" transform="translate(38.000000, 29.000000)" fill="#800000" fill-rule="nonzero">
                    <path d="M260.978053,3.7775809 L260.978053,3.7775809 L260.978053,3.6856938 C260.932147,3.04248408 260.932147,2.21550015 260.932147,1.34257267 L260.932147,1.20474202 L260.794427,1.25068557 C260.564895,1.29662912 259.509047,1.29662912 258.453199,1.29662912 L255.193843,1.29662912 C254.551153,1.29662912 253.954369,1.29662912 253.17396,1.25068557 L253.128054,1.25068557 L253.082147,1.25068557 C252.944428,1.34257267 252.898521,1.52634688 252.898521,1.57229043 C252.898521,1.71012108 252.944428,1.84795174 253.036241,1.89389529 L253.357586,1.93983884 C254.229808,2.03172594 254.275714,2.12361305 254.275714,4.00729866 L254.275714,10.3475088 C254.275714,12.2311944 254.229808,12.3230815 253.357586,12.4149686 L252.852615,12.4609121 L252.806709,12.5068557 C252.714896,12.5987428 252.668989,12.782517 252.714896,12.8744041 C252.714896,13.0122347 252.806709,13.1041218 252.898521,13.1500654 L252.944428,13.1500654 L252.990334,13.1500654 C253.81665,13.1041218 254.413434,13.1041218 255.193843,13.1041218 C255.882439,13.1041218 256.525129,13.1041218 257.535071,13.1500654 L257.580977,13.1500654 L257.626884,13.1500654 C257.764603,13.1041218 257.810509,12.9203476 257.810509,12.8284605 C257.810509,12.6906299 257.764603,12.5527992 257.67279,12.5068557 L257.0301,12.4149686 C256.111972,12.3230815 256.066065,12.2311944 256.066065,10.3475088 L256.066065,7.91250053 C256.066065,7.59089567 256.066065,7.59089567 256.525129,7.59089567 L257.718697,7.59089567 C258.31548,7.59089567 258.820451,7.59089567 259.049983,7.68278277 C259.279515,7.77466988 259.417234,7.91250053 259.509047,8.23410539 L259.692673,8.96920222 L259.738579,9.01514577 C259.922205,9.15297642 260.289457,9.15297642 260.381269,8.96920222 L260.381269,8.92325866 L260.381269,8.87731511 C260.381269,8.69354091 260.381269,8.46382315 260.335363,8.18816184 C260.335363,7.86655698 260.289457,7.49900857 260.289457,7.17740371 C260.289457,6.8098553 260.289457,6.44230688 260.335363,6.12070202 C260.335363,5.84504072 260.381269,5.61532296 260.381269,5.3856052 L260.381269,5.33966165 L260.381269,5.2937181 C260.289457,5.15588744 260.105831,5.15588744 260.059924,5.15588744 C259.922205,5.15588744 259.784486,5.20183099 259.738579,5.2937181 L259.554954,6.07475847 C259.463141,6.48825044 259.325422,6.53419399 259.187702,6.58013754 C259.004077,6.62608109 258.453199,6.67202464 257.718697,6.67202464 L256.525129,6.67202464 C256.066065,6.67202464 256.066065,6.67202464 256.066065,6.35041978 L256.066065,2.67493566 C256.066065,2.12361305 256.066065,2.12361305 256.479223,2.12361305 L257.535071,2.12361305 C258.269574,2.12361305 258.820451,2.12361305 259.187702,2.21550015 C259.922205,2.39927435 260.151737,2.90465342 260.335363,3.7775809 L260.335363,3.82352445 L260.381269,3.869468 C260.427176,3.91541155 260.564895,3.96135511 260.656708,3.96135511 C260.748521,3.96135511 260.932147,3.869468 260.978053,3.7775809 M249.180101,7.17740371 C249.180101,4.19107286 247.206124,0.975024259 242.936826,0.975024259 C239.264312,0.975024259 236.509926,3.73163735 236.509926,7.31523436 C236.509926,10.3475088 238.713435,13.4257267 242.936826,13.4257267 C246.471621,13.4716703 249.180101,10.7610007 249.180101,7.17740371 Z M247.114311,7.72872633 C247.114311,11.3582669 244.956709,12.6446863 243.120452,12.6446863 C239.493844,12.6446863 238.529809,8.96920222 238.529809,6.76391175 C238.529809,3.08842763 240.733318,1.80200819 242.615481,1.80200819 C245.966651,1.80200819 247.114311,5.01805679 247.114311,7.72872633 Z M232.699692,37.775809 C232.699692,45.4024385 238.346183,52.1101971 247.757001,52.1101971 C255.928346,52.1101971 262.447059,45.9078176 262.447059,37.3163735 C262.447059,29.8735181 257.535071,22.7982112 247.757001,22.7982112 C239.080686,22.8441548 232.699692,29.3221955 232.699692,37.775809 Z M236.923084,36.443446 C236.923084,27.1628486 242.615481,24.1765178 247.022498,24.1765178 C255.10203,24.1765178 258.177761,31.7112602 258.177761,38.69468 C258.177761,47.0104628 253.357586,50.8237776 248.261972,50.8237776 C239.998815,50.8237776 236.923084,42.691769 236.923084,36.443446 Z M227.604079,1.89389529 C227.695892,1.80200819 227.741798,1.71012108 227.741798,1.57229043 C227.741798,1.43445977 227.649985,1.29662912 227.558172,1.25068557 L227.512266,1.25068557 L227.466359,1.25068557 C226.226886,1.34257267 225.492383,1.34257267 224.161096,1.25068557 L224.11519,1.25068557 L224.069284,1.25068557 C223.977471,1.29662912 223.885658,1.38851622 223.885658,1.52634688 C223.839751,1.66417753 223.885658,1.80200819 224.023377,1.89389529 L224.069284,1.93983884 L224.436535,1.98578239 C224.75788,2.03172594 224.987412,2.12361305 225.033319,2.1695566 C224.987412,2.39927435 224.344722,3.54786314 223.977471,4.28295997 L223.885658,4.42079062 C223.4725,5.24777455 222.967529,6.12070202 222.370746,7.17740371 C221.911681,6.35041978 221.452617,5.43154875 220.993553,4.51267772 C220.809927,4.14512931 220.626301,3.82352445 220.488582,3.45597604 C220.350863,3.18031473 219.983611,2.30738725 219.937705,2.1695566 C219.937705,2.12361305 220.029518,2.07766949 220.580395,1.98578239 L220.855833,1.93983884 L220.90174,1.89389529 C220.993553,1.80200819 221.039459,1.61823398 220.993553,1.48040333 C220.947646,1.34257267 220.90174,1.25068557 220.764021,1.25068557 L220.718114,1.25068557 L220.672208,1.25068557 C220.25905,1.29662912 219.61636,1.29662912 218.790044,1.29662912 C217.963728,1.29662912 217.321038,1.29662912 216.770161,1.25068557 L216.724255,1.25068557 L216.678348,1.25068557 C216.586536,1.29662912 216.540629,1.38851622 216.494723,1.52634688 C216.448816,1.66417753 216.494723,1.80200819 216.586536,1.89389529 L216.632442,1.93983884 L217.183319,2.03172594 C217.642383,2.12361305 217.871916,2.1695566 218.468699,3.31814538 L220.534488,7.36117791 C221.039459,8.3259925 221.085366,8.5097667 221.085366,9.47458128 L221.085366,10.3934523 C221.085366,12.3230815 221.039459,12.4149686 220.167237,12.5068557 L219.570453,12.5527992 L219.524547,12.5987428 C219.432734,12.6906299 219.386828,12.8744041 219.432734,12.9662912 C219.432734,13.1041218 219.524547,13.196009 219.61636,13.2419525 L219.662266,13.2419525 L219.708173,13.2419525 C220.672208,13.196009 221.268991,13.196009 222.003494,13.196009 C222.737997,13.196009 223.334781,13.196009 224.390629,13.2419525 L224.436535,13.2419525 L224.482441,13.2419525 C224.574254,13.196009 224.620161,13.1041218 224.666067,12.9662912 C224.666067,12.8284605 224.666067,12.6906299 224.574254,12.5987428 L224.528348,12.5527992 L223.793845,12.5068557 C222.967529,12.4609121 222.875716,12.3230815 222.875716,10.3934523 L222.875716,9.47458128 C222.875716,8.14221829 222.921623,8.00438763 223.702032,6.67202464 L224.803786,4.74239548 C224.895599,4.55862127 224.987412,4.42079062 225.079225,4.23701641 C225.767821,3.04248408 226.272792,2.1695566 227.007295,2.03172594 L227.604079,1.89389529 L227.604079,1.89389529 Z M221.406711,23.4873645 C220.672208,23.3035903 218.422793,22.8441548 216.035658,22.8441548 C209.654665,22.8441548 205.47718,24.8197275 202.630981,27.8060583 C200.014314,30.608615 198.820747,34.2381555 198.820747,37.8217525 C198.820747,41.5431802 200.152034,44.8970595 202.722794,47.4239548 C205.98215,50.7318905 210.572793,52.1101971 215.6225,52.1101971 C217.917822,52.1101971 220.947646,51.604818 223.197061,51.0075518 C223.977471,50.7778341 224.75788,50.6400034 225.262851,50.6400034 C225.446476,50.5021728 225.446476,50.272455 225.308757,50.1346243 C224.528348,49.858963 224.298816,48.8022613 224.298816,47.1482935 L224.298816,44.7592288 C224.298816,42.5998819 224.344722,41.4053496 226.135073,41.2215754 L226.823669,41.1296882 C227.099108,40.8540269 227.099108,40.2567608 226.777763,40.0729866 C225.40057,40.1648737 223.931564,40.2108172 222.278933,40.2108172 C219.799986,40.2108172 217.458758,40.1648737 216.219284,40.0729866 C215.943845,40.2108172 215.897939,40.945914 216.219284,41.1296882 L218.101448,41.359406 C220.718114,41.6350673 220.855833,41.9107286 220.855833,45.4483821 L220.855833,47.1482935 C220.855833,48.4806565 220.626301,49.2616969 220.442676,49.5833017 C219.983611,50.3183985 218.422793,50.8697212 215.806126,50.8697212 C207.313437,50.8697212 203.135952,44.4835675 203.135952,36.3515589 C203.135952,30.0113488 206.716653,24.1765178 214.933904,24.1765178 C219.249108,24.1765178 222.416652,25.6007679 223.610219,30.195123 C223.885658,30.4707843 224.620161,30.4248408 224.75788,30.0572923 C224.390629,27.530397 224.11519,25.3251065 224.11519,23.9008564 C223.518406,23.9468 222.233026,23.6711387 221.406711,23.4873645 Z M214.199401,1.02096781 L214.199401,0.975024259 L214.199401,0.929080708 C214.153495,0.791250053 213.969869,0.791250053 213.878056,0.791250053 C213.83215,0.791250053 213.786243,0.791250053 213.69443,0.837193605 L213.648524,0.837193605 L213.602618,0.883137156 C213.373085,1.29662912 213.281273,1.29662912 212.363144,1.29662912 L205.064022,1.29662912 C204.283612,1.29662912 203.916361,1.25068557 203.870454,0.883137156 L203.870454,0.837193605 L203.870454,0.791250053 C203.824548,0.745306502 203.732735,0.69936295 203.640922,0.69936295 C203.595016,0.69936295 203.457297,0.69936295 203.365484,0.745306502 L203.319577,0.791250053 L203.319577,0.837193605 C203.181858,1.52634688 202.952326,2.67493566 202.676887,3.45597604 L202.676887,3.50191959 L202.722794,3.54786314 C202.814607,3.7775809 203.181858,3.869468 203.365484,3.73163735 L203.41139,3.73163735 L203.41139,3.6856938 C203.595016,3.27220183 203.778642,2.90465342 204.191799,2.53710501 C204.559051,2.1695566 205.47718,2.12361305 206.257589,2.12361305 L207.221624,2.12361305 C207.634782,2.12361305 207.634782,2.12361305 207.634782,2.53710501 L207.634782,10.4393959 C207.634782,12.369025 207.542969,12.4149686 206.670747,12.5068557 L206.028057,12.5527992 L205.98215,12.5527992 C205.890337,12.5987428 205.798525,12.7365734 205.844431,12.9203476 C205.844431,13.0581783 205.890337,13.196009 206.028057,13.2419525 L206.073963,13.2419525 L206.11987,13.2419525 C207.175717,13.196009 207.864314,13.196009 208.55291,13.196009 C209.241507,13.196009 209.792384,13.196009 210.848232,13.2419525 L210.894138,13.2419525 L210.940045,13.2419525 C211.077764,13.1500654 211.12367,12.9662912 211.12367,12.9203476 C211.12367,12.782517 211.077764,12.6446863 210.985951,12.5987428 L210.343261,12.5068557 C209.471039,12.4149686 209.425132,12.3230815 209.425132,10.4393959 L209.425132,2.49116146 C209.425132,2.30738725 209.425132,2.12361305 209.471039,2.12361305 C209.516945,2.07766949 209.700571,2.07766949 209.83829,2.07766949 L211.077764,2.07766949 C212.041799,2.07766949 212.684489,2.21550015 213.05174,2.49116146 C213.235366,2.62899211 213.373085,3.04248408 213.418992,3.6856938 L213.418992,3.73163735 L213.464898,3.7775809 C213.510805,3.869468 213.648524,3.91541155 213.786243,3.91541155 C213.969869,3.91541155 214.107588,3.82352445 214.153495,3.73163735 L214.153495,3.6856938 L214.153495,3.63975024 C213.923963,3.13437118 214.015775,1.71012108 214.199401,1.02096781 Z M198.132151,10.3934523 L198.132151,4.09918576 C198.132151,2.1695566 198.178057,2.03172594 199.096186,1.98578239 L199.55525,1.93983884 L199.601157,1.93983884 C199.692969,1.89389529 199.738876,1.75606463 199.738876,1.61823398 C199.738876,1.57229043 199.692969,1.34257267 199.55525,1.29662912 L199.509344,1.29662912 L199.463437,1.29662912 C198.637121,1.34257267 197.994431,1.34257267 197.305835,1.34257267 C196.571332,1.34257267 195.928642,1.34257267 195.102326,1.29662912 L195.05642,1.29662912 L195.010514,1.29662912 C194.872794,1.38851622 194.826888,1.57229043 194.826888,1.61823398 C194.826888,1.75606463 194.872794,1.89389529 194.964607,1.93983884 L195.010514,1.93983884 L195.469578,1.98578239 C196.387706,2.07766949 196.433613,2.1695566 196.433613,4.09918576 L196.433613,10.3934523 C196.433613,12.2771379 196.387706,12.369025 195.469578,12.5068557 L194.964607,12.5527992 L194.918701,12.5987428 C194.826888,12.6906299 194.780981,12.8744041 194.826888,12.9662912 C194.826888,13.1041218 194.918701,13.196009 195.010514,13.2419525 L195.05642,13.2419525 L195.102326,13.2419525 C196.020455,13.196009 196.571332,13.196009 197.305835,13.196009 C197.994431,13.196009 198.591215,13.196009 199.463437,13.2419525 L199.509344,13.2419525 L199.55525,13.2419525 C199.692969,13.1500654 199.738876,12.9662912 199.738876,12.9203476 C199.738876,12.782517 199.692969,12.6446863 199.601157,12.5987428 L199.096186,12.5068557 C198.178057,12.369025 198.132151,12.2771379 198.132151,10.3934523 Z M195.240046,50.4102856 C193.403788,50.1805679 192.852911,49.5833017 191.659344,45.9078176 L185.875134,28.9087036 C185.232444,27.0250179 184.543848,25.0953888 183.99297,23.2576467 C183.901158,22.9819854 183.625719,22.8900983 183.35028,22.8900983 C182.891216,23.4414209 182.156713,24.2224613 181.146772,24.4981226 C181.284491,25.1872759 181.009052,25.9683163 180.412269,27.4844535 L176.097064,38.9243978 C174.306714,43.6565836 173.113147,46.4131967 172.378644,48.3428258 C171.78186,49.858963 170.863731,50.3183985 169.85379,50.4102856 L168.476597,50.5481163 C168.201159,50.7778341 168.292971,51.4210438 168.56841,51.604818 C169.716071,51.5588744 171.230983,51.4669873 172.608176,51.4669873 C174.582152,51.5129309 175.913439,51.5129309 177.015193,51.604818 C177.382445,51.4210438 177.382445,50.7778341 177.107006,50.5481163 L175.729813,50.4102856 C174.719872,50.3183985 174.490339,50.0886808 174.490339,49.5833017 C174.490339,49.1238662 174.765778,47.9752774 175.408468,46.0915918 L176.877474,41.6350673 C177.152912,40.7621398 177.428351,40.6243092 178.484199,40.6243092 L184.865193,40.6243092 C186.150573,40.6243092 186.288292,40.7621398 186.609637,41.6810109 L188.491801,47.4239548 C188.813146,48.4347129 189.042678,49.2157533 189.042678,49.6751888 C189.042678,50.0886808 188.445894,50.3643421 187.573672,50.4562292 L186.334198,50.5940599 C186.05876,50.8237776 186.05876,51.4669873 186.426011,51.6507615 C187.665485,51.604818 189.27221,51.5129309 191.292093,51.5129309 C193.174256,51.5129309 194.689169,51.5588744 196.387706,51.6507615 C196.617239,51.4669873 196.663145,50.8237776 196.387706,50.5940599 L195.240046,50.4102856 Z M184.314315,38.8784542 L179.126889,38.8784542 C177.933322,38.8784542 177.887415,38.8325107 178.254667,37.8676961 L180.91724,30.5167279 C181.376304,29.2303084 181.789462,28.2195503 181.927181,28.0357761 L182.018994,28.0357761 C182.294432,28.5411551 182.661684,29.6897439 182.983029,30.7005021 L185.27835,37.5920348 C185.645602,38.7406236 185.553789,38.8784542 184.314315,38.8784542 Z M186.05876,3.63975024 C186.05876,2.95059697 186.334198,1.80200819 188.032736,1.80200819 C189.593555,1.80200819 190.052619,2.81276632 190.282151,3.6856938 L190.328058,3.73163735 C190.373964,3.82352445 190.465777,3.82352445 190.603496,3.82352445 C190.741216,3.82352445 190.924841,3.7775809 191.016654,3.63975024 L191.016654,3.59380669 L191.016654,3.63975024 C191.016654,2.90465342 190.878935,1.89389529 190.695309,1.43445977 L190.649403,1.34257267 L190.55759,1.34257267 C190.419871,1.34257267 190.190338,1.29662912 189.960806,1.25068557 C189.547648,1.15879847 188.859052,1.02096781 188.308175,1.02096781 C186.05876,1.02096781 184.589754,2.30738725 184.589754,4.19107286 C184.589754,5.79909716 185.829228,6.85579885 186.56373,7.36117791 L188.216362,8.46382315 C189.455836,9.24486352 189.593555,10.0718475 189.593555,10.8069443 C189.593555,11.7258153 188.950865,12.6906299 187.527765,12.6906299 C185.737415,12.6906299 184.957005,11.3123233 184.63566,10.1637346 L184.63566,10.117791 C184.589754,10.0259039 184.497941,9.97996035 184.360222,9.97996035 C184.222503,9.97996035 184.084783,10.0259039 183.99297,10.1637346 L183.947064,10.2096781 L183.947064,10.2556217 C183.99297,11.036662 184.222503,12.369025 184.452035,12.782517 L184.452035,12.8284605 L184.497941,12.8284605 C184.865193,13.0122347 185.829228,13.5176138 187.298233,13.5176138 C189.639461,13.5176138 191.20028,12.1393073 191.20028,10.117791 C191.20028,8.69354091 190.465777,7.54495212 188.950865,6.62608109 L187.527765,5.75315361 C186.976888,5.3856052 186.05876,4.65050838 186.05876,3.63975024 Z M181.605836,13.2878961 C181.697649,13.2419525 181.743555,13.1041218 181.697649,13.0122347 C181.697649,12.9203476 181.605836,12.8284605 181.55993,12.782517 L181.514023,12.782517 C181.100865,12.7365734 180.687707,12.5987428 180.366362,12.3230815 C179.172795,11.3123233 178.20876,9.79618614 176.831567,7.68278277 C176.739754,7.54495212 176.739754,7.45306502 176.739754,7.45306502 C177.336538,7.22334726 178.98917,6.35041978 178.98917,4.42079062 C178.98917,2.95059697 178.162854,2.21550015 177.474257,1.84795174 C176.602035,1.38851622 175.454374,1.29662912 174.490339,1.29662912 C172.883614,1.29662912 171.644141,1.34257267 170.542386,1.43445977 L170.49648,1.43445977 C170.404667,1.48040333 170.312854,1.61823398 170.312854,1.75606463 C170.312854,1.89389529 170.358761,2.03172594 170.450574,2.12361305 L170.49648,2.12361305 L171.093264,2.21550015 C171.690047,2.30738725 171.735954,2.39927435 171.735954,4.14512931 L171.735954,10.4853394 C171.735954,12.369025 171.690047,12.4609121 170.817825,12.5527992 L170.312854,12.5987428 L170.266948,12.6446863 C170.175135,12.782517 170.175135,12.9203476 170.175135,13.0581783 C170.221041,13.196009 170.266948,13.2878961 170.358761,13.2878961 L170.404667,13.2878961 L170.450574,13.2878961 C171.230983,13.2419525 171.873673,13.2419525 172.654082,13.2419525 C173.388585,13.2419525 173.985369,13.2419525 174.765778,13.2878961 L174.811684,13.2878961 L174.857591,13.2878961 C174.99531,13.2419525 175.041217,13.0581783 175.041217,12.9662912 C175.041217,12.8284605 174.99531,12.6906299 174.949404,12.5987428 L174.903497,12.5527992 L174.490339,12.5068557 C173.572211,12.369025 173.572211,12.3230815 173.572211,10.4393959 L173.572211,8.23410539 C173.572211,8.00438763 173.572211,8.00438763 174.260807,8.00438763 C174.949404,8.00438763 175.178936,8.18816184 175.408468,8.5097667 C175.683907,8.87731511 176.005252,9.38269418 176.28069,9.88807325 C176.602035,10.3934523 176.877474,10.8528878 177.107006,11.1744927 C178.300573,12.9203476 179.218702,13.4716703 180.871333,13.4716703 C181.100865,13.3797832 181.376304,13.3338396 181.605836,13.2878961 L181.605836,13.2878961 Z M176.326597,6.71796819 C175.821626,7.08551661 175.133029,7.13146016 174.582152,7.13146016 C173.801743,7.13146016 173.526304,7.08551661 173.480398,7.08551661 C173.480398,6.9936295 173.480398,6.8098553 173.480398,6.58013754 L173.480398,2.44521791 C173.480398,2.03172594 173.480398,2.03172594 174.490339,2.03172594 C176.464316,2.03172594 177.152912,3.41003249 177.152912,4.60456483 C177.152912,5.61532296 176.877474,6.25853268 176.326597,6.71796819 Z M167.191217,10.6691136 L167.191217,10.6691136 L167.191217,10.5772265 C167.099404,10.3934523 166.915779,10.3475088 166.778059,10.3475088 C166.686246,10.3475088 166.594434,10.3934523 166.548527,10.3934523 L166.502621,10.4393959 C165.99765,11.450154 165.538586,11.9555331 165.309053,12.0933637 C164.941802,12.2771379 164.390925,12.3230815 163.105545,12.3230815 C161.636539,12.3230815 161.269288,12.1393073 161.085662,11.9555331 C160.85613,11.6798718 160.764317,11.1285491 160.764317,10.2096781 L160.764317,7.77466988 C160.764317,7.45306502 160.764317,7.45306502 161.223381,7.45306502 L162.233323,7.45306502 C162.830106,7.45306502 163.289171,7.45306502 163.564609,7.54495212 C163.794141,7.59089567 163.931861,7.77466988 164.023673,8.09627474 L164.161393,8.78542801 L164.207299,8.83137156 C164.253206,8.92325866 164.390925,8.96920222 164.528644,8.96920222 C164.71227,8.96920222 164.804083,8.92325866 164.895896,8.78542801 L164.895896,8.73948446 L164.895896,8.69354091 C164.895896,8.5097667 164.895896,8.28004894 164.849989,8.05033119 C164.849989,7.72872633 164.804083,7.36117791 164.804083,6.9936295 C164.804083,6.62608109 164.804083,6.25853268 164.849989,5.93692782 C164.849989,5.66126651 164.895896,5.43154875 164.895896,5.24777455 L164.895896,5.20183099 L164.895896,5.15588744 C164.849989,5.06400034 164.71227,4.97211324 164.528644,4.97211324 C164.390925,4.97211324 164.253206,5.01805679 164.207299,5.10994389 L164.023673,5.89098427 C163.931861,6.30447623 163.840048,6.35041978 163.702328,6.39636333 C163.518703,6.44230688 162.967826,6.48825044 162.233323,6.48825044 L161.223381,6.48825044 C160.764317,6.48825044 160.764317,6.48825044 160.764317,6.12070202 L160.764317,2.67493566 C160.764317,2.12361305 160.764317,2.12361305 161.177475,2.12361305 L162.462855,2.12361305 C163.197358,2.12361305 163.794141,2.12361305 164.161393,2.21550015 C164.941802,2.39927435 165.125428,2.90465342 165.35496,3.6856938 L165.400866,3.7775809 L165.446773,3.82352445 C165.492679,3.91541155 165.630399,3.91541155 165.722211,3.91541155 C165.859931,3.91541155 165.99765,3.869468 166.089463,3.7775809 L166.135369,3.73163735 L166.089463,3.45597604 C165.99765,2.44521791 165.905837,1.57229043 165.814024,1.29662912 L165.768118,1.15879847 L165.630399,1.20474202 C165.446773,1.25068557 164.345018,1.25068557 163.289171,1.25068557 L159.983908,1.25068557 C159.295311,1.25068557 158.744434,1.25068557 157.918118,1.20474202 L157.872212,1.20474202 L157.826305,1.20474202 C157.688586,1.29662912 157.64268,1.48040333 157.64268,1.52634688 C157.64268,1.66417753 157.688586,1.80200819 157.780399,1.84795174 L158.101744,1.89389529 C159.019873,1.98578239 159.065779,2.12361305 159.065779,3.96135511 L159.065779,10.3015652 C159.065779,12.2311944 158.973966,12.2771379 158.101744,12.369025 L157.459054,12.4149686 L157.413148,12.4609121 C157.321335,12.5527992 157.275428,12.7365734 157.321335,12.8284605 C157.321335,12.9662912 157.413148,13.0581783 157.50496,13.1041218 L157.550867,13.1041218 L157.596773,13.1041218 C158.606715,13.0581783 159.249405,13.0581783 159.983908,13.0581783 L161.590633,13.0581783 C163.105545,13.0581783 164.666363,13.0581783 166.318995,13.1041218 L166.410808,13.1041218 L166.456714,13.0122347 C166.64034,12.6906299 167.099404,11.3123233 167.191217,10.6691136 Z M155.117826,1.89389529 C155.209639,1.80200819 155.209639,1.61823398 155.209639,1.52634688 C155.209639,1.38851622 155.117826,1.29662912 155.07192,1.25068557 L155.026013,1.25068557 L154.980107,1.25068557 C154.383323,1.29662912 153.832446,1.29662912 153.281569,1.29662912 C152.592972,1.29662912 151.904376,1.29662912 151.445312,1.25068557 L151.399405,1.25068557 L151.353499,1.25068557 C151.261686,1.29662912 151.169873,1.43445977 151.169873,1.57229043 C151.169873,1.71012108 151.21578,1.84795174 151.307592,1.93983884 L151.353499,1.98578239 L151.72075,2.03172594 C152.317534,2.12361305 152.409347,2.21550015 152.409347,2.21550015 C152.409347,2.3533308 152.409347,2.49116146 152.271627,2.85870987 C151.950282,3.63975024 151.123967,5.66126651 150.618996,6.8098553 C150.481277,7.13146016 150.343557,7.49900857 150.159932,7.91250053 C149.838587,8.69354091 149.425429,9.65835549 149.058177,10.4393959 C148.231862,8.5097667 147.451452,6.58013754 146.671043,4.65050838 C146.166072,3.36408894 145.844727,2.44521791 145.798821,2.21550015 C145.844727,2.1695566 145.982447,2.07766949 146.487417,2.03172594 L146.808762,1.98578239 L146.854669,1.93983884 C146.946482,1.84795174 146.992388,1.71012108 146.992388,1.57229043 C146.992388,1.43445977 146.900575,1.29662912 146.808762,1.25068557 L146.762856,1.25068557 L146.716949,1.25068557 C145.93654,1.29662912 145.29385,1.29662912 144.605254,1.29662912 C143.870751,1.29662912 143.319874,1.29662912 142.768996,1.25068557 L142.72309,1.25068557 L142.677184,1.29662912 C142.585371,1.34257267 142.493558,1.48040333 142.493558,1.61823398 C142.493558,1.75606463 142.539464,1.89389529 142.631277,1.93983884 L142.677184,1.98578239 L143.044435,2.03172594 C143.733032,2.12361305 143.962564,2.44521791 144.375722,3.41003249 L147.405546,10.9907185 C147.772797,11.9095895 148.048236,12.6906299 148.231862,13.3338396 L148.231862,13.3797832 L148.277768,13.4257267 C148.369581,13.4716703 148.5073,13.4716703 148.599113,13.4716703 C148.690926,13.4716703 148.782739,13.4257267 148.874552,13.3797832 L148.920458,13.3338396 L148.920458,13.2878961 C149.241803,12.3230815 150.068119,10.2556217 150.756715,8.69354091 L151.72075,6.53419399 C152.547066,4.69645193 153.235662,3.27220183 153.694727,2.49116146 C153.924259,2.12361305 154.153791,1.98578239 154.521043,1.93983884 L155.117826,1.89389529 L155.117826,1.89389529 Z M143.595312,26.4736953 C140.381862,28.9546471 138.270166,32.9976796 138.270166,37.6839219 C138.270166,43.1512045 140.886833,47.0104628 144.283909,49.3076404 C147.359639,51.3751002 150.986247,52.1561406 154.796481,52.1561406 C157.50496,52.1561406 160.534785,51.5129309 161.49882,51.191326 C161.957884,51.0075518 162.462855,50.8697212 162.967826,50.7778341 C163.610516,49.9508501 164.71227,47.194237 164.987708,44.9889466 C164.804083,44.7132853 164.161393,44.6213982 163.885954,44.8051724 C162.921919,47.2861241 160.488878,50.8697212 155.026013,50.8697212 C148.094142,50.8697212 142.447651,45.9537612 142.447651,37.0866557 C142.447651,28.3114374 147.956423,24.2224613 154.42923,24.2224613 C160.580691,24.2224613 162.462855,27.530397 163.105545,30.4248408 C163.380983,30.7005021 164.023673,30.6545585 164.253206,30.3329537 C163.931861,27.7601148 163.702328,25.0953888 163.656422,24.1305742 C163.289171,24.1765178 162.967826,24.0846307 162.462855,23.9468 C160.488878,23.3954774 157.275428,22.9360419 154.980107,22.9360419 C150.618996,22.8441548 146.671043,24.0386871 143.595312,26.4736953 Z M138.178354,10.3934523 L138.178354,4.09918576 C138.178354,2.1695566 138.22426,2.03172594 139.142389,1.98578239 L139.601453,1.93983884 L139.647359,1.93983884 C139.739172,1.89389529 139.785079,1.75606463 139.785079,1.61823398 C139.785079,1.57229043 139.739172,1.34257267 139.601453,1.29662912 L139.555546,1.29662912 L139.50964,1.29662912 C138.683324,1.34257267 138.040634,1.34257267 137.352038,1.34257267 C136.571628,1.34257267 135.974845,1.34257267 135.148529,1.29662912 L135.102623,1.29662912 L135.056716,1.29662912 C134.918997,1.38851622 134.873091,1.57229043 134.873091,1.61823398 C134.873091,1.75606463 134.918997,1.89389529 135.01081,1.93983884 L135.056716,1.93983884 L135.515781,1.98578239 C136.388003,2.07766949 136.479816,2.21550015 136.479816,4.09918576 L136.479816,10.3934523 C136.479816,12.2771379 136.433909,12.369025 135.515781,12.5068557 L135.01081,12.5527992 L134.964903,12.5987428 C134.873091,12.6906299 134.827184,12.8744041 134.873091,12.9662912 C134.873091,13.1041218 134.964903,13.196009 135.056716,13.2419525 L135.102623,13.2419525 L135.148529,13.2419525 C136.066658,13.196009 136.617535,13.196009 137.352038,13.196009 C138.040634,13.196009 138.637418,13.196009 139.50964,13.2419525 L139.555546,13.2419525 L139.601453,13.2419525 C139.739172,13.1500654 139.785079,12.9662912 139.785079,12.9203476 C139.785079,12.782517 139.739172,12.6446863 139.647359,12.5987428 L139.142389,12.5068557 C138.22426,12.369025 138.178354,12.2771379 138.178354,10.3934523 Z M129.364319,45.0348901 L129.364319,29.9654052 C129.364319,25.4629372 129.456132,24.7737839 131.935079,24.5440662 L132.990927,24.4521791 C133.266366,24.2684049 133.174553,23.533308 132.899114,23.3954774 C130.787418,23.4873645 129.364319,23.533308 127.665781,23.533308 C125.87543,23.533308 124.452331,23.4873645 122.340635,23.3954774 C122.065197,23.533308 122.01929,24.2684049 122.248822,24.4521791 L123.30467,24.5440662 C125.783617,24.7737839 125.87543,25.4629372 125.87543,29.9654052 L125.87543,45.0348901 C125.87543,49.5373582 125.783617,50.1346243 123.30467,50.4102856 L122.248822,50.5481163 C121.973384,50.8237776 122.065197,51.4669873 122.340635,51.604818 C124.452331,51.5129309 125.87543,51.4669873 127.665781,51.4669873 C129.364319,51.4669873 130.787418,51.5129309 132.899114,51.604818 C133.174553,51.4669873 133.220459,50.7318905 132.990927,50.5481163 L131.935079,50.4102856 C129.456132,50.1346243 129.364319,49.5373582 129.364319,45.0348901 Z M131.521921,1.89389529 C131.613734,1.80200819 131.65964,1.66417753 131.613734,1.52634688 C131.613734,1.38851622 131.521921,1.29662912 131.430108,1.25068557 L131.384202,1.20474202 L131.338295,1.20474202 C130.741512,1.25068557 130.282448,1.25068557 129.547945,1.25068557 C128.905255,1.25068557 128.354378,1.25068557 127.482155,1.20474202 L127.436249,1.20474202 L127.390343,1.20474202 C127.29853,1.25068557 127.206717,1.34257267 127.206717,1.48040333 C127.16081,1.61823398 127.206717,1.80200819 127.344436,1.89389529 L127.390343,1.93983884 L127.711688,1.98578239 C128.308471,2.07766949 128.629816,2.1695566 128.721629,2.2614437 C128.951161,2.58304856 129.042974,3.91541155 129.042974,5.84504072 L129.042974,9.61241194 C129.042974,9.79618614 129.042974,9.97996035 129.042974,10.117791 C128.44619,9.47458128 127.8035,8.78542801 126.977185,7.86655698 L124.544144,5.10994389 C122.7997,3.13437118 121.789758,1.84795174 121.560226,1.29662912 L121.51432,1.20474202 L121.422507,1.20474202 C121.192975,1.25068557 120.917536,1.25068557 120.642097,1.25068557 C120.320752,1.25068557 119.402624,1.25068557 118.668121,1.20474202 L118.622214,1.20474202 L118.576308,1.20474202 C118.484495,1.25068557 118.438589,1.34257267 118.392682,1.48040333 C118.346776,1.61823398 118.392682,1.80200819 118.484495,1.89389529 L118.530402,1.93983884 L118.897653,1.98578239 C119.356717,2.03172594 119.723969,2.1695566 119.907594,2.3533308 C120.228939,2.72087922 120.274846,3.04248408 120.274846,3.54786314 L120.274846,8.78542801 C120.274846,9.65835549 120.274846,11.6339282 120.045314,12.1852508 C119.999407,12.2771379 119.861688,12.4149686 119.356717,12.4609121 L118.851747,12.5068557 L118.80584,12.5527992 C118.714027,12.6446863 118.668121,12.7365734 118.714027,12.8744041 C118.759934,13.0122347 118.80584,13.1041218 118.851747,13.196009 L118.897653,13.2419525 L118.943559,13.2419525 C119.540343,13.196009 120.045314,13.196009 120.779817,13.196009 C121.3766,13.196009 121.973384,13.196009 122.845606,13.2419525 L122.891512,13.2419525 L122.937419,13.196009 C123.029232,13.1500654 123.075138,13.0581783 123.075138,12.9203476 C123.075138,12.782517 123.075138,12.6446863 122.983325,12.5527992 L122.937419,12.5068557 L122.340635,12.4609121 C121.927477,12.4149686 121.606132,12.3230815 121.560226,12.1852508 C121.3766,11.863646 121.238881,10.531283 121.238881,8.6016538 L121.238881,4.74239548 C121.238881,4.42079062 121.238881,4.09918576 121.284787,3.869468 C121.560226,4.19107286 122.01929,4.74239548 122.432448,5.24777455 C122.707887,5.56937941 122.983325,5.89098427 123.166951,6.12070202 L127.252623,10.7610007 C128.629816,12.3230815 129.272506,13.0581783 129.502038,13.4257267 L129.547945,13.4716703 L129.639758,13.4716703 C129.86929,13.4716703 130.052915,13.3797832 130.098822,13.196009 L130.098822,13.1500654 L130.098822,13.1041218 C130.052915,12.9203476 130.052915,12.1852508 130.052915,10.0259039 L130.052915,5.56937941 C130.052915,4.65050838 130.052915,2.76682277 130.282448,2.21550015 C130.282448,2.1695566 130.51198,2.03172594 131.15467,1.93983884 L131.521921,1.89389529 L131.521921,1.89389529 Z M115.730109,1.89389529 C115.821922,1.80200819 115.867829,1.66417753 115.821922,1.52634688 C115.821922,1.43445977 115.730109,1.34257267 115.638297,1.25068557 L115.59239,1.25068557 L115.546484,1.25068557 C114.9497,1.29662912 114.444729,1.29662912 113.710226,1.29662912 C113.02163,1.29662912 112.37894,1.29662912 111.690344,1.25068557 L111.644437,1.25068557 L111.598531,1.29662912 C111.506718,1.34257267 111.460811,1.43445977 111.460811,1.57229043 C111.460811,1.71012108 111.460811,1.84795174 111.552624,1.93983884 L111.598531,1.98578239 L112.103501,2.03172594 C112.516659,2.07766949 112.792098,2.1695566 112.883911,2.3533308 C113.067536,2.72087922 113.205256,4.00729866 113.205256,5.93692782 L113.205256,7.95844408 C113.205256,10.0259039 112.608472,12.5068557 109.80818,12.5068557 C107.466952,12.5068557 106.365198,11.036662 106.365198,7.91250053 L106.365198,4.09918576 C106.365198,2.21550015 106.411104,2.07766949 107.283326,2.03172594 L107.742391,1.98578239 L107.788297,1.98578239 C107.88011,1.93983884 107.926016,1.80200819 107.926016,1.66417753 C107.926016,1.52634688 107.88011,1.38851622 107.742391,1.34257267 L107.696484,1.34257267 L107.650578,1.34257267 C106.824262,1.38851622 106.227478,1.38851622 105.492976,1.38851622 C104.758473,1.38851622 104.161689,1.38851622 103.335373,1.34257267 L103.289467,1.34257267 L103.24356,1.34257267 C103.105841,1.38851622 103.059935,1.57229043 103.059935,1.66417753 C103.059935,1.80200819 103.105841,1.93983884 103.197654,1.98578239 L103.24356,1.98578239 L103.702625,2.03172594 C104.574847,2.12361305 104.620753,2.2614437 104.620753,4.09918576 L104.620753,8.28004894 C104.620753,10.3934523 105.079818,11.7258153 106.043853,12.5527992 C106.824262,13.196009 107.971923,13.5635574 109.440929,13.5635574 C110.818121,13.5635574 112.149408,13.0581783 112.883911,12.2311944 C113.756133,11.3123233 114.169291,9.88807325 114.169291,7.91250053 L114.169291,5.93692782 C114.169291,5.06400034 114.169291,2.95059697 114.398823,2.39927435 C114.490636,2.21550015 114.766074,2.07766949 115.179232,2.03172594 L115.730109,1.89389529 L115.730109,1.89389529 Z M95.4853739,24.4521791 C95.7608124,24.2684049 95.6689996,23.533308 95.393561,23.3954774 C93.5573038,23.4873645 92.1342045,23.533308 90.481573,23.533308 C88.6453158,23.533308 87.2222165,23.4414209 85.1564272,23.3954774 C84.8809886,23.533308 84.8350822,24.2684049 85.0646143,24.4521791 L86.1663686,24.5440662 C88.3698772,24.7278404 88.6453158,25.4169936 88.6453158,29.8735181 L88.6453158,45.1267772 C88.6453158,49.5833017 88.553503,49.9967937 86.2122751,50.4102856 L85.4777722,50.5481163 C85.2023336,50.8237776 85.2941465,51.4669873 85.569585,51.604818 C87.2222165,51.5588744 88.6453158,51.4669873 90.481573,51.4669873 C92.1342045,51.4669873 93.5573038,51.5129309 95.8526253,51.604818 C96.1280639,51.4669873 96.1739703,50.7318905 95.9444382,50.5481163 L94.7049646,50.4102856 C92.3178302,50.1346243 92.1342045,49.5833017 92.1342045,45.1267772 L92.1342045,39.1541155 C92.1342045,37.8676961 92.2260173,37.8217525 94.2459003,37.8217525 L106.319291,37.8217525 C108.339174,37.8217525 108.430987,37.9136396 108.430987,39.1541155 L108.430987,45.1267772 C108.430987,49.5833017 108.430987,49.9967937 105.860227,50.4102856 L105.033911,50.5481163 C104.758473,50.8237776 104.850286,51.4669873 105.125724,51.604818 C107.007888,51.5129309 108.5228,51.4669873 110.221338,51.4669873 C111.873969,51.4669873 113.297069,51.5129309 115.316952,51.604818 C115.59239,51.4669873 115.638297,50.7318905 115.408764,50.5481163 L114.398823,50.4102856 C111.965782,50.1346243 111.873969,49.5833017 111.873969,45.1267772 L111.873969,29.8735181 C111.873969,25.4169936 111.965782,24.7737839 114.398823,24.5440662 L115.271045,24.4521791 C115.546484,24.2684049 115.454671,23.533308 115.179232,23.3954774 C113.297069,23.4873645 111.828063,23.533308 110.175431,23.533308 C108.430987,23.533308 107.007888,23.4873645 105.079818,23.3954774 C104.804379,23.533308 104.758473,24.2684049 104.988005,24.4521791 L105.814321,24.5440662 C108.293268,24.8197275 108.385081,25.4169936 108.385081,29.8735181 L108.385081,34.7435346 C108.385081,36.0758976 108.293268,36.0758976 106.273385,36.0758976 L94.1999938,36.0758976 C92.1801109,36.0758976 92.0882981,36.029954 92.0882981,34.7435346 L92.0882981,29.8735181 C92.0882981,25.4169936 92.1801109,24.7737839 94.6131517,24.5440662 L95.4853739,24.4521791 Z M93.786836,10.6691136 L93.786836,10.6691136 L93.786836,10.5772265 C93.6950231,10.3934523 93.5113974,10.3475088 93.3736781,10.3475088 C93.2818652,10.3475088 93.1900524,10.3934523 93.1441459,10.3934523 L93.0982395,10.4393959 C92.5932688,11.450154 92.1342045,11.9555331 91.9046723,12.0933637 C91.5374209,12.2771379 90.9865437,12.3230815 89.7011637,12.3230815 C88.232158,12.3230815 87.8649065,12.1393073 87.6812808,11.9555331 C87.4517487,11.6798718 87.4058422,11.1285491 87.4058422,10.2096781 L87.4058422,7.77466988 C87.4058422,7.45306502 87.4058422,7.45306502 87.8649065,7.45306502 L88.874848,7.45306502 C89.4716316,7.45306502 89.9306959,7.45306502 90.2061344,7.54495212 C90.4356666,7.59089567 90.5733859,7.77466988 90.6651987,8.09627474 L90.802918,8.78542801 L90.8488245,8.83137156 C90.8947309,8.92325866 91.0324502,8.96920222 91.1701695,8.96920222 C91.3537952,8.96920222 91.445608,8.92325866 91.5374209,8.78542801 L91.5374209,8.73948446 L91.5374209,8.69354091 C91.5374209,8.5097667 91.5374209,8.28004894 91.4915145,8.05033119 C91.4915145,7.72872633 91.445608,7.36117791 91.445608,6.9936295 C91.445608,6.62608109 91.445608,6.25853268 91.4915145,5.93692782 C91.4915145,5.66126651 91.5374209,5.43154875 91.5374209,5.24777455 L91.5374209,5.20183099 L91.5374209,5.15588744 C91.4915145,5.06400034 91.3537952,4.97211324 91.1701695,4.97211324 C91.0324502,4.97211324 90.8947309,5.01805679 90.8488245,5.10994389 L90.6651987,5.89098427 C90.5733859,6.30447623 90.481573,6.35041978 90.3438537,6.39636333 C90.160228,6.44230688 89.6093509,6.48825044 88.874848,6.48825044 L87.8649065,6.48825044 C87.4058422,6.48825044 87.4058422,6.48825044 87.4058422,6.12070202 L87.4058422,2.67493566 C87.4058422,2.12361305 87.4058422,2.12361305 87.8190001,2.12361305 L89.1043801,2.12361305 C89.838883,2.12361305 90.4356666,2.12361305 90.802918,2.21550015 C91.6292338,2.39927435 91.7669531,2.90465342 91.9964852,3.6856938 L92.0423916,3.7775809 L92.0882981,3.82352445 C92.1342045,3.91541155 92.2719238,3.91541155 92.3637366,3.91541155 C92.5014559,3.91541155 92.6391752,3.869468 92.7309881,3.7775809 L92.7768945,3.73163735 L92.7309881,3.45597604 C92.6391752,2.44521791 92.5473624,1.57229043 92.4555495,1.29662912 L92.3178302,1.20474202 L92.1801109,1.25068557 C91.9964852,1.29662912 90.8947309,1.29662912 89.838883,1.29662912 L86.5336201,1.29662912 C85.8450236,1.29662912 85.2941465,1.29662912 84.4678307,1.25068557 L84.4219243,1.25068557 L84.3760179,1.25068557 C84.2382986,1.34257267 84.1923921,1.52634688 84.1923921,1.57229043 C84.1923921,1.71012108 84.2382986,1.84795174 84.3301114,1.89389529 L84.6514564,1.93983884 C85.569585,2.03172594 85.6154915,2.1695566 85.6154915,4.00729866 L85.6154915,10.3475088 C85.6154915,12.2771379 85.5236786,12.3230815 84.6514564,12.4149686 L84.0087664,12.4609121 L83.96286,12.5068557 C83.8710471,12.5987428 83.8251407,12.782517 83.8710471,12.8744041 C83.8710471,13.0122347 83.96286,13.1041218 84.0546729,13.1500654 L84.1005793,13.1500654 L84.1464857,13.1500654 C85.1564272,13.1041218 85.7991172,13.1041218 86.5336201,13.1041218 L88.1403451,13.1041218 C89.6552573,13.1041218 91.2160759,13.1041218 92.8687074,13.1500654 L92.9605202,13.1500654 L93.0064267,13.0581783 C93.1900524,12.6906299 93.6491167,11.3123233 93.786836,10.6691136 Z M79.050872,10.3934523 L79.050872,4.05324221 C79.050872,2.1695566 79.0967784,2.07766949 79.9690006,1.98578239 L80.336252,1.93983884 L80.3821585,1.89389529 C80.4739713,1.84795174 80.5198778,1.71012108 80.5198778,1.57229043 C80.5198778,1.52634688 80.4739713,1.29662912 80.336252,1.25068557 L80.2903456,1.25068557 L80.2444392,1.25068557 C79.372217,1.29662912 78.8213399,1.29662912 78.1786498,1.29662912 C77.3982405,1.29662912 76.801457,1.29662912 76.0669541,1.25068557 L76.0210476,1.25068557 L75.9751412,1.25068557 C75.8374219,1.34257267 75.7915155,1.52634688 75.7915155,1.57229043 C75.7915155,1.71012108 75.8374219,1.84795174 75.9292348,1.89389529 L76.3423927,1.93983884 C77.2605213,2.03172594 77.3064277,2.1695566 77.3064277,4.00729866 L77.3064277,6.02881492 C77.3064277,6.44230688 77.3064277,6.44230688 76.5719248,6.44230688 L71.5222175,6.44230688 C70.7877147,6.44230688 70.7877147,6.44230688 70.7877147,6.02881492 L70.7877147,4.00729866 C70.7877147,2.12361305 70.8336211,2.03172594 71.7058433,1.93983884 L72.0271883,1.89389529 L72.0730947,1.84795174 C72.1649076,1.80200819 72.210814,1.66417753 72.210814,1.52634688 C72.210814,1.48040333 72.1649076,1.25068557 72.0271883,1.20474202 L71.9812818,1.20474202 L71.9353754,1.20474202 C71.1549661,1.25068557 70.5581825,1.25068557 69.9154925,1.25068557 C69.4564282,1.25068557 69.0432703,1.25068557 68.6301125,1.20474202 C68.3546739,1.20474202 68.0333289,1.20474202 67.7119839,1.15879847 L67.6660774,1.15879847 L67.620171,1.15879847 C67.5283581,1.29662912 67.5283581,1.52634688 67.5283581,1.57229043 C67.5283581,1.71012108 67.5742646,1.84795174 67.6660774,1.89389529 L67.7119839,1.89389529 L68.2169546,1.93983884 C68.9973639,1.98578239 69.1350832,2.1695566 69.1350832,4.00729866 L69.1350832,10.3475088 C69.1350832,12.1852508 69.0891768,12.2771379 68.2169546,12.4149686 L67.8956096,12.4609121 L67.8497032,12.5068557 C67.7578903,12.5987428 67.7119839,12.782517 67.7578903,12.8744041 C67.7578903,13.0122347 67.8497032,13.1041218 67.941516,13.1500654 L67.9874224,13.1500654 L68.0333289,13.1500654 C68.262861,13.1500654 68.4923932,13.1500654 68.7219253,13.1500654 C69.1350832,13.1500654 69.5482411,13.1041218 70.0532118,13.1041218 C70.6959018,13.1041218 71.2926854,13.1041218 72.3026268,13.1500654 L72.3485333,13.1500654 L72.3944397,13.1500654 C72.532159,13.1041218 72.5780654,12.9203476 72.5780654,12.8284605 C72.5780654,12.6906299 72.532159,12.5527992 72.4403461,12.5068557 L71.889469,12.4149686 C71.0631532,12.3230815 70.9254339,12.2311944 70.9254339,10.3475088 L70.9254339,7.86655698 C70.9254339,7.45306502 70.9254339,7.45306502 71.6599368,7.45306502 L76.7096441,7.45306502 C77.444147,7.45306502 77.444147,7.45306502 77.444147,7.86655698 L77.444147,10.3475088 C77.444147,12.2311944 77.444147,12.2771379 76.4801119,12.4149686 L76.1128605,12.4609121 L76.0669541,12.5068557 C75.9751412,12.5987428 75.9292348,12.782517 75.9751412,12.8744041 C75.9751412,13.0122347 76.0669541,13.1041218 76.1587669,13.1500654 L76.2046734,13.1500654 L76.2505798,13.1500654 C77.0768955,13.1041218 77.7195855,13.1041218 78.3622756,13.1041218 C79.050872,13.1041218 79.6476556,13.1041218 80.4739713,13.1500654 L80.5198778,13.1500654 L80.5657842,13.1500654 C80.7035035,13.0581783 80.7494099,12.8744041 80.7494099,12.8284605 C80.7494099,12.6906299 80.7035035,12.5527992 80.6116906,12.5068557 L80.1526263,12.4149686 C79.0967784,12.369025 79.050872,12.2771379 79.050872,10.3934523 Z M64.5444402,1.02096781 L64.5444402,0.975024259 L64.4985338,0.929080708 C64.4526274,0.791250053 64.2230952,0.791250053 64.1771888,0.791250053 C64.1312823,0.791250053 64.0853759,0.791250053 63.9935631,0.837193605 L63.9476566,0.837193605 L63.9017502,0.883137156 C63.672218,1.29662912 63.5804052,1.29662912 62.6622766,1.29662912 L55.3631543,1.29662912 C54.582745,1.29662912 54.2154935,1.25068557 54.1695871,0.883137156 L54.1695871,0.837193605 L54.1236807,0.791250053 C54.0777742,0.745306502 53.9859614,0.69936295 53.8941485,0.69936295 C53.8482421,0.69936295 53.7105228,0.69936295 53.6187099,0.745306502 L53.5728035,0.791250053 L53.5728035,0.837193605 C53.4350842,1.52634688 53.2055521,2.67493566 52.9301135,3.45597604 L52.9301135,3.50191959 L52.9760199,3.54786314 C53.0678328,3.7775809 53.4350842,3.869468 53.6187099,3.73163735 L53.6646164,3.73163735 L53.6646164,3.6856938 C53.8482421,3.27220183 54.0318678,2.90465342 54.4450257,2.49116146 C54.8122771,2.12361305 55.7304057,2.07766949 56.510815,2.07766949 L57.47485,2.07766949 C57.8880079,2.07766949 57.8880079,2.07766949 57.8880079,2.49116146 L57.8880079,10.3934523 C57.8880079,12.3230815 57.796195,12.369025 56.9239729,12.4609121 L56.2812829,12.5068557 L56.2353764,12.5068557 C56.1435636,12.5527992 56.0517507,12.6906299 56.0976571,12.8744041 C56.0976571,13.0122347 56.1435636,13.1500654 56.2812829,13.196009 L56.3271893,13.196009 L56.3730957,13.196009 C57.47485,13.1500654 58.1175401,13.1500654 58.8061365,13.1500654 C59.4947329,13.1500654 60.0456101,13.1500654 61.101458,13.196009 L61.1473644,13.196009 L61.1932708,13.196009 C61.3309901,13.1500654 61.3768966,12.9662912 61.3768966,12.8744041 C61.3768966,12.7365734 61.3309901,12.5987428 61.2391773,12.5527992 L60.5964873,12.4609121 C59.7242651,12.369025 59.6783587,12.2771379 59.6783587,10.3934523 L59.6783587,2.49116146 C59.6783587,2.30738725 59.6783587,2.12361305 59.7242651,2.12361305 C59.7701715,2.07766949 59.9537972,2.07766949 60.0915165,2.07766949 L61.3309901,2.07766949 C62.2950252,2.07766949 62.9377152,2.21550015 63.3049666,2.49116146 C63.4885923,2.62899211 63.6263116,3.04248408 63.672218,3.6856938 L63.672218,3.73163735 L63.7181245,3.7775809 C63.7640309,3.869468 63.9017502,3.91541155 64.0394695,3.91541155 C64.2230952,3.91541155 64.3608145,3.82352445 64.4067209,3.73163735 L64.4067209,3.6856938 L64.4067209,3.63975024 C64.2230952,3.13437118 64.3608145,1.71012108 64.5444402,1.02096781 Z M52.5628621,37.6839219 C52.5628621,43.1512045 55.1795285,47.0104628 58.5766043,49.3076404 C61.6523351,51.3751002 65.2789431,52.1561406 69.0891768,52.1561406 C71.7976561,52.1561406 74.8274805,51.5129309 75.7915155,51.191326 C76.2505798,51.0075518 76.7555505,50.8697212 77.2605213,50.7778341 C77.9032113,49.9508501 79.0049656,47.194237 79.2804042,44.9889466 C79.0967784,44.7132853 78.4540884,44.6213982 78.1786498,44.8051724 C77.2146148,47.2861241 74.781574,50.8697212 69.3187089,50.8697212 C62.386838,50.8697212 56.7403472,45.9537612 56.7403472,37.0866557 C56.7403472,28.3114374 62.2491187,24.2224613 68.7219253,24.2224613 C74.8733869,24.2224613 76.7555505,27.530397 77.3982405,30.4248408 C77.6736791,30.7005021 78.3163691,30.6545585 78.5459013,30.3329537 C78.2245563,27.7601148 77.9950241,25.0953888 77.9491177,24.1305742 C77.5818663,24.1765178 77.2605213,24.0846307 76.7555505,23.9468 C74.781574,23.3954774 71.568124,22.9360419 69.2728025,22.9360419 C64.8657852,22.9360419 60.9637387,24.1305742 57.8421015,26.5196389 C54.6745578,28.9546471 52.5628621,32.9976796 52.5628621,37.6839219 Z M41.5453189,30.5167279 L41.5453189,1.02096781 C17.8576012,-1.27620976 0,1.02096781 0,1.02096781 C0,1.02096781 0,30.5167279 0,30.5167279 C1.88216362,50.5021728 20.611987,52.8452939 20.7497062,52.7993503 C24.146782,52.2480277 39.8008746,49.0779227 41.5453189,30.5167279 Z M6.70233874,37.8676961 C7.06959018,38.1433574 7.52865448,38.2352445 7.94181235,38.4190187 C8.44678307,39.7513817 7.94181235,41.0378011 7.66637377,40.4864785 C7.16140304,39.5676075 6.93187089,38.7865671 6.70233874,37.8676961 Z M6.70233874,23.3954774 L6.70233874,23.3954774 C6.65643231,23.3495338 4.03976582,25.0035017 2.34122792,24.2224613 C3.58070152,23.533308 7.94181235,20.7766949 9.13537952,19.9956546 C9.68625668,20.1334852 9.91578882,19.9037675 10.0994145,19.8118804 C9.64035025,19.8578239 8.12543806,20.0875417 8.90584737,18.7092351 C9.18128595,19.9037675 11.2929817,18.8011222 12.073391,18.617348 C14.1850868,18.111969 14.1850868,20.4091465 14.0014611,21.3280176 C13.9555546,21.695566 14.6441511,21.9252837 15.0114025,21.8793402 C14.4146189,23.3495338 13.3587711,21.9712273 13.2669582,22.5225499 C13.2210518,22.7522677 12.5324553,22.9360419 12.5324553,23.4873645 C12.5324553,24.2684049 12.8538003,23.8549129 12.8538003,24.4521791 C12.8997068,25.0494452 12.6242682,24.5900097 12.6701746,25.2332194 C12.7619875,26.2439776 14.4605254,25.0953888 15.1491218,25.3710501 C15.5163733,25.5088807 15.7459054,25.8304856 16.0672504,25.7385985 C16.1590633,25.6467114 16.1131568,25.279163 16.1131568,25.1413323 C16.0672504,24.8197275 15.4704668,24.7737839 15.1950282,24.360292 C14.9654961,23.9927435 15.4704668,22.8441548 15.7459054,22.4766063 C16.1590633,24.360292 17.9035076,23.7630258 18.1789462,25.7845421 C18.3625719,26.3358647 17.5821626,26.9790744 18.1789462,27.8979454 C17.7198819,28.3573809 17.1690047,30.5167279 18.1330397,31.527486 C17.949414,31.9869215 17.7657883,33.0436232 18.6380105,33.6868329 C18.3625719,34.3300426 18.4084783,35.0651395 18.6380105,35.8461798 C18.0871333,35.8461798 18.2248526,32.8139054 14.9654961,32.6760748 C14.8736832,32.6301312 14.8736832,33.0436232 14.9654961,33.1814538 C15.378654,33.8706071 15.8836247,33.8246636 15.7459054,35.4326879 C15.699999,35.9840105 15.378654,35.3408008 15.1950282,35.2029701 C14.7818704,34.8354217 14.5064318,34.7894781 14.3228061,33.6868329 C12.9915196,34.7435346 13.1292389,35.9840105 13.2210518,36.6272202 C13.2210518,36.6272202 12.9456132,35.8461798 12.5783617,35.0191959 C12.5783617,34.9732524 13.9096482,33.3192845 14.1391804,32.9517361 C16.8935661,27.9898325 12.3488296,34.5597604 12.3488296,34.5138168 C12.1192975,33.9624942 11.8897653,33.4571152 11.752046,33.3192845 C11.7979524,33.2733409 12.5324553,32.4004135 12.8997068,31.7112602 C15.0114025,27.3006793 11.6143267,33.1814538 11.5225139,33.0895667 C11.2470753,32.859849 11.0634496,32.5841877 10.8798238,32.6760748 C10.8339174,33.365228 10.6961981,33.2733409 10.7421046,33.9624942 C10.3748531,34.4219297 9.64035025,35.2029701 9.08947309,35.5705185 C9.08947309,35.5705185 8.9517538,34.3300426 8.99766023,34.2840991 C9.27309881,33.9624942 10.3289467,32.8139054 10.5125724,32.4923006 C14.0014611,27.0250179 8.85994094,33.8246636 8.85994094,33.7327765 C8.81403451,33.5030587 8.53859593,33.1355103 8.26315735,32.859849 C8.26315735,32.859849 9.4108181,31.2977682 9.68625668,30.7464456 C11.7979524,26.3818082 7.98771877,32.6760748 7.94181235,32.6760748 C7.84999949,32.5841877 7.80409306,32.5841877 7.7122802,32.5382441 C7.62046734,32.4923006 7.84999949,31.2977682 7.98771877,30.5626714 C8.26315735,29.0924778 7.48274805,30.2870101 7.29912233,32.5841877 C7.11549661,32.6301312 6.61052588,32.6760748 6.42690016,32.8139054 C6.56461945,33.4111716 6.70233874,32.9517361 6.93187089,33.5490023 C7.2532159,34.2381555 6.51871302,35.4326879 7.16140304,36.2596718 C7.39093519,36.5812767 7.43684162,36.5353331 7.39093519,36.7650509 C6.97777732,36.7191073 6.74824517,36.7191073 6.47280659,37.0407122 C5.96783587,34.8354217 6.0137423,33.77872 6.10555516,31.527486 C6.15146159,30.5167279 6.47280659,28.9546471 6.3350873,28.9546471 C6.24327444,28.9087036 3.90204653,34.8813652 3.35116937,36.029954 C2.38713435,35.7083492 3.94795296,30.5626714 5.96783587,28.0817196 C6.15146159,27.3006793 4.91198798,28.86276 4.17748511,29.5059697 C3.48888866,30.1032359 2.6166665,30.8383327 1.6985379,30.5626714 C2.89210507,29.276252 5.64649086,26.8871873 5.96783587,26.2899211 C6.24327444,25.7845421 4.08567225,27.8979454 1.83625719,27.116905 C3.30526294,26.3818082 6.70233874,24.6359533 6.70233874,23.3954774 Z M10.788011,34.6057039 C10.788011,35.1570266 10.7421046,35.5705185 10.9257303,36.1218411 C11.2011689,36.9488251 11.0634496,36.7191073 10.6961981,36.3975024 C10.4207596,36.0758976 10.145321,35.8461798 10.0076017,35.4786314 C10.0076017,35.2029701 10.1912274,35.2029701 10.788011,34.6057039 Z M16.2508761,21.1901869 C15.9295311,20.6388643 16.664034,20.0875417 16.664034,20.0875417 C16.664034,21.6496224 18.6839169,20.5929207 19.7397648,21.0982998 C20.0152034,21.2361305 20.1529227,21.4199047 20.2906419,21.695566 C19.0970748,20.868582 16.985379,22.4766063 16.2508761,21.1901869 Z M4.36111083,8.5097667 C2.57076007,8.5097667 2.6166665,5.79909716 4.36111083,5.79909716 C6.15146159,5.79909716 6.15146159,8.5097667 4.36111083,8.5097667 Z M4.36111083,13.9311058 C2.52485364,13.9311058 2.52485364,11.2204362 4.36111083,11.2204362 C6.15146159,11.2204362 6.15146159,13.9311058 4.36111083,13.9311058 Z M6.19736801,6.53419399 L7.75818663,6.53419399 L7.75818663,8.09627474 L6.19736801,8.09627474 L6.19736801,6.53419399 Z M6.19736801,11.9555331 L7.75818663,11.9555331 L7.75818663,13.5176138 L6.19736801,13.5176138 L6.19736801,11.9555331 Z M20.4742677,16.1823398 C20.4742677,16.1823398 18.8216362,15.3094123 16.8935661,15.1715817 C15.0114025,15.033751 11.2470753,16.5498882 8.35497021,16.366114 L8.35497021,3.54786314 C8.35497021,3.54786314 11.6602332,4.00729866 13.037426,3.45597604 C17.6739754,1.66417753 20.5201741,3.6856938 20.5201741,3.6856938 L20.5201741,16.1823398 L20.4742677,16.1823398 Z M23.6877177,18.2497996 C23.7795306,18.7092351 23.3204663,18.8470658 23.3204663,18.8470658 C24.0090628,19.03084 24.3304078,18.617348 24.4681271,18.3416867 C24.7435656,19.444332 23.5959049,19.4902755 23.2745599,19.5821626 C23.2745599,19.5821626 23.825437,19.7659368 23.8713435,20.1334852 C23.9631563,21.0523563 24.5599399,21.0064127 24.6976592,20.9145256 C24.6976592,21.0064127 24.4681271,21.6036789 23.825437,21.0982998 C23.6877177,21.1901869 24.0090628,21.3739611 24.0549692,21.8333966 C24.146782,22.4306628 24.1008756,22.9819854 24.7894721,23.3035903 C24.3763142,23.6251951 23.8713435,22.7522677 23.825437,22.8900983 C23.7795306,23.027929 24.4222206,23.3035903 23.7336242,24.9575581 C23.4122792,24.7737839 23.5959049,24.8197275 23.2286534,24.360292 C22.9532149,24.1305742 22.861402,24.0846307 23.0909342,24.4521791 C23.504092,24.9575581 23.5959049,26.1061469 23.4581856,26.4277518 C23.1368406,26.2899211 23.2286534,26.0142598 22.8154956,25.6467114 C22.7695892,25.7845421 22.9532149,26.5655824 23.3663727,26.9331308 C24.0549692,27.5763406 24.3304078,28.3573809 24.3304078,28.4952116 C24.3763142,29.0924778 24.1926885,29.8275746 24.146782,30.608615 C23.825437,30.5626714 23.504092,29.5978568 23.4581856,29.6438004 C23.3663727,29.6897439 23.504092,30.608615 24.146782,31.2058811 C24.4681271,32.1247522 24.3304078,32.5841877 24.2385949,32.6301312 C24.146782,32.6760748 23.7795306,31.7112602 23.5959049,31.8950344 C24.5140335,34.192212 23.8713435,35.0191959 23.6418113,35.7542927 C23.4581856,35.0191959 23.3663727,34.4678733 23.1368406,33.6408894 C22.6318699,34.0084378 22.540057,34.6057039 21.897367,35.1570266 C21.897367,34.192212 21.3464898,31.940978 20.933332,31.3896553 C20.933332,31.3437118 20.1529227,33.4111716 19.7856712,34.3759862 C19.3266069,35.5705185 19.2807005,37.0407122 19.7856712,38.2352445 C18.6839169,36.6272202 18.5461976,33.6408894 19.5102326,33.2733409 C19.6020455,33.0436232 19.4643262,32.3544699 19.2347941,32.446357 C19.1888876,32.7679619 19.2347941,33.0895667 18.9134491,33.4111716 C18.1789462,33.1814538 18.5002912,32.2625828 18.592104,31.9869215 C19.5561391,30.8383327 18.9593555,30.5626714 18.9134491,30.608615 C18.8216362,30.8842763 18.7298233,31.2058811 18.4084783,31.2977682 C17.8116947,30.2410665 18.1789462,28.5411551 19.3725134,27.3006793 C19.4184198,26.8412437 18.8675426,27.6682277 18.4543848,27.6222841 C18.3625719,26.7034131 18.6839169,25.1872759 20.3365484,25.0953888 C20.0152034,25.0035017 19.8315776,24.9575581 19.7856712,24.6818968 C20.2906419,24.5900097 21.8514606,24.4981226 21.6219284,23.2576467 C21.4842091,23.3954774 21.4383027,23.6251951 21.0251448,23.9008564 C20.7497062,24.0846307 20.4283612,24.0846307 20.2906419,23.8549129 C21.0251448,23.6251951 20.7956127,22.7063241 19.8315776,22.9819854 C19.5561391,23.0738725 19.0970748,22.7522677 19.0970748,22.4306628 C19.3266069,22.6603806 19.7397648,22.4766063 19.9692969,22.3387757 C21.0251448,21.6496224 21.7137413,22.6603806 21.8514606,22.8900983 C21.897367,22.8900983 22.3105249,21.8793402 20.7956127,21.6036789 C20.6578934,21.2361305 20.3365484,20.6388643 19.2807005,20.6848078 C18.9593555,19.4902755 17.9035076,20.0875417 17.949414,20.6388643 C16.8476597,19.8118804 17.949414,18.8011222 18.4084783,18.6632916 C18.7298233,18.7092351 18.6380105,19.6740497 19.1888876,19.4902755 C19.3266069,19.444332 18.7757298,18.8011222 18.9593555,18.5254609 C19.4643262,18.2497996 19.4643262,18.8930093 19.6938584,18.6632916 C19.8315776,18.2497996 20.2906419,18.0200819 20.7037998,17.9741383 C21.7596477,17.6065899 22.6318699,18.8470658 23.6877177,18.2497996 Z M33.7412259,16.366114 C31.3081851,16.5039447 26.3043842,15.1256381 25.0190042,15.1256381 C22.3564313,15.1256381 21.1169577,16.1363962 21.1169577,16.1363962 C21.1169577,16.1363962 21.1169577,4.14512931 21.1169577,3.6856938 C21.1169577,3.6856938 24.6058463,2.07766949 27.1307,2.99654052 C30.2064308,4.14512931 33.7871323,3.63975024 33.7871323,3.63975024 L33.7412259,16.366114 L33.7412259,16.366114 Z M36.9546759,11.450154 C38.2859624,11.2663798 38.5154946,12.8284605 38.5154946,12.8284605 L38.5154946,12.8284605 C38.1941495,12.5527992 37.5055531,12.4609121 37.0923952,12.7365734 C35.577483,13.701388 34.2461966,13.701388 34.2461966,13.701388 L34.2461966,11.2663798 C34.2002902,11.3123233 34.4757287,11.8177024 36.9546759,11.450154 Z M38.561401,8.14221829 C38.561401,8.05033119 38.5154946,7.95844408 38.5154946,7.82061343 C38.4695881,7.59089567 37.7809917,7.45306502 37.3219274,7.63683922 C36.6333309,7.95844408 34.934793,8.92325866 34.292103,8.73948446 L34.292103,6.30447623 C35.8529216,6.9936295 36.4497052,6.35041978 36.9546759,6.35041978 C38.4695881,6.35041978 38.561401,7.77466988 38.561401,7.77466988 C38.5154946,7.95844408 38.5154946,8.05033119 38.561401,8.14221829 Z M36.8169567,33.1814538 C36.3578924,33.3192845 35.1643252,33.77872 34.8888866,34.2381555 C35.0266059,31.6653166 34.2002902,29.1384213 33.9248516,28.5411551 C33.4198809,27.3466228 34.1543837,31.2977682 34.2002902,32.2166393 C34.2002902,32.2625828 29.9309922,26.7034131 32.5017523,30.9761634 C33.1903487,32.0788086 34.2002902,32.8139054 34.2002902,32.8139054 C34.2002902,33.5949458 34.1543837,34.1462684 34.0166644,34.5597604 C33.7412259,34.7894781 28.1865479,27.1628486 31.2622787,32.446357 C31.6295301,33.0895667 33.8789451,35.0651395 33.8330387,35.111083 C33.6953194,35.4326879 33.4198809,35.8461798 33.0985358,36.1677847 C33.0526294,36.1218411 31.8131558,35.2029701 31.8131558,35.1570266 C31.721343,34.5597604 31.721343,34.0084378 30.9868401,34.4219297 C30.9868401,34.4219297 28.2324543,31.2518247 29.5178343,33.4571152 C30.0687115,34.4219297 30.4359629,34.5597604 30.5736822,34.697591 C30.5736822,34.697591 30.1605243,35.2948572 30.022805,35.8921234 C29.9768986,36.1218411 27.6356707,33.3192845 28.5537993,35.111083 C28.8292379,35.6624056 29.8850858,36.3056153 29.8850858,36.3515589 C29.7932729,36.7191073 29.6555536,37.0866557 29.5637408,37.3163735 C29.4260215,37.5920348 27.3602321,39.2460026 27.4061386,39.2460026 C27.4061386,39.2460026 27.8192964,37.9595832 28.6915186,37.3163735 C29.1964893,36.9488251 29.1964893,37.0407122 29.5178343,36.8109944 C29.5178343,36.6272202 29.3342086,36.3056153 29.1046765,36.2137282 C28.8292379,36.1218411 27.8652029,36.3056153 27.8652029,36.3056153 C27.9570157,35.8461798 27.5438578,34.7894781 27.5438578,33.6408894 C27.1766064,33.6868329 26.5339164,34.2381555 26.3961971,34.5597604 C26.3043842,36.443446 25.8912264,35.8921234 25.4780685,37.2704299 C25.0649106,36.7191073 25.5239749,35.8921234 25.1108171,35.3408008 C24.5599399,34.6057039 24.4681271,34.1003249 24.3763142,33.1814538 C24.5140335,33.0895667 25.0649106,32.4923006 24.5599399,31.113994 C24.4681271,29.0005907 25.4321621,28.2195503 23.7336242,26.7493566 C23.8713435,26.7034131 23.9631563,25.6467114 23.9631563,25.6467114 C25.2026299,26.2899211 24.9730978,24.865671 25.4321621,24.5900097 C26.2125714,24.1305742 26.0748521,23.6711387 25.7076007,23.1198161 C27.9111093,23.7630258 25.6157878,25.2332194 26.5798228,25.279163 C27.3143257,25.279163 27.77339,25.1413323 28.094735,24.6359533 C28.41608,24.1305742 28.0488286,23.8089693 28.9669572,22.9819854 C29.05877,22.8900983 29.2883022,22.3387757 28.5537993,22.200945 C28.3701736,22.1550015 28.5537993,21.5577353 28.5537993,21.5577353 C27.9570157,22.0631144 27.77339,22.7522677 26.8552614,22.2928321 C26.3502907,22.0631144 26.0748521,22.2928321 25.8453199,22.3847192 C25.8453199,22.3847192 25.7535071,21.9712273 26.166665,21.8333966 C27.2225128,21.4658482 27.452045,21.0523563 27.4061386,20.868582 C27.2684193,20.3172594 27.2225128,20.868582 27.2684193,20.3172594 C27.2684193,20.0875417 27.5438578,19.7659368 27.77339,19.5362191 C28.4619864,18.7092351 28.9669572,18.9848964 29.1505829,19.0767835 C29.5637408,18.7551787 29.6096472,18.8011222 30.022805,18.617348 C30.6654951,18.3416867 32.0885944,18.8011222 32.8690037,19.1686706 C33.2362551,19.3524448 33.6953194,19.444332 34.1543837,19.3524448 C34.1543837,19.5821626 33.970758,19.7199933 33.8330387,19.7659368 C33.6035066,19.8578239 33.2821616,19.7659368 33.328068,19.949711 C33.328068,20.0415981 33.6953194,20.0875417 33.8789451,20.1334852 C35.0266059,20.4550901 36.5415181,21.5117918 35.577483,21.282074 C35.4397638,21.2361305 36.3119859,21.9252837 36.9087695,22.7522677 L39.1122781,24.9116146 C39.0204653,25.0494452 38.240056,24.9116146 35.7611088,22.614437 C35.3938573,22.9360419 38.7450267,25.4629372 40.168126,28.1276632 C40.0304067,28.2195503 38.3318688,27.5763406 37.6891788,26.9331308 C36.7251438,25.9223727 35.6233895,23.3954774 35.1643252,23.7630258 C35.1184188,23.7630258 37.0005824,26.7034131 37.918711,28.449268 C38.3777753,29.3221955 38.7909331,30.5626714 38.7909331,31.527486 C38.9286524,36.2137282 38.240056,35.8461798 38.240056,35.8461798 C37.1383017,32.1706957 36.6333309,27.8979454 35.0266059,25.9223727 C34.3839159,25.1413323 36.7251438,29.3681391 36.8169567,33.1814538 Z M31.9967815,37.362317 C31.4918108,37.775809 31.1704658,37.9595832 31.3081851,37.7298654 C31.4459044,37.5001477 31.5377172,37.2704299 31.5836237,37.0866557 C31.5836237,37.0866557 31.9967815,37.362317 31.9967815,37.362317 Z M31.6754365,36.8109944 C31.7672494,36.3975024 31.7672494,36.1677847 31.8590622,35.8002363 C31.8590622,35.6624056 31.9049687,35.6624056 31.9049687,35.524575 C31.9049687,35.4786314 32.9608166,36.3975024 33.0526294,36.443446 C32.7771908,36.7650509 32.5476587,36.9028815 32.3181265,37.1325993 C32.042688,36.9947686 31.6295301,36.856938 31.6754365,36.8109944 Z M35.1184188,38.0055267 C33.649413,39.4757204 31.3999979,38.9243978 29.6555536,39.7054382 C28.0488286,40.3027043 26.9011678,41.772898 25.2485364,42.1404464 C24.7435656,42.278277 24.6976592,42.5539383 24.9730978,42.5539383 C25.1567235,42.5539383 26.166665,43.61064 27.77339,42.7836561 C28.3242671,42.5079948 30.022805,41.5891238 30.2982436,41.4972367 C29.380115,42.3701641 28.9210507,43.1512045 28.094735,43.61064 C27.5897643,43.8863013 25.5698814,44.6213982 23.5499985,44.2079062 C22.6318699,44.024132 21.9432734,44.8511159 22.1728056,44.8511159 C22.6318699,44.7132853 23.182747,44.8051724 23.504092,45.2186643 C24.1008756,45.6780998 24.9271913,46.275366 25.6616942,45.4024385 C25.8912264,45.1267772 27.0847935,44.5295111 28.1406414,45.6321563 C26.9929807,45.5862127 27.0847935,47.6536726 24.8812849,47.4239548 C24.0549692,47.4239548 22.2646184,45.5402692 21.7596477,46.1375354 C20.8415191,47.1482935 23.7336242,48.1131081 22.4941506,49.3995275 C21.3923963,50.5481163 20.0152034,48.4806565 20.0152034,48.4806565 C20.7037998,48.7563178 21.9891798,48.9860356 21.4383027,47.8374468 C21.2087705,47.3780112 20.7956127,46.9645193 20.7956127,46.1375354 C20.7037998,45.7240434 18.1330397,49.4454711 16.4345018,47.7455597 C15.7459054,47.1023499 14.4146189,45.6321563 13.1751453,45.0808337 C16.4345018,44.8051724 16.8935661,46.0915918 17.0771919,46.3213096 C18.1330397,47.6996161 19.0511683,46.3213096 19.2807005,46.0456483 C19.6020455,45.6780998 20.1070162,45.1267772 19.9233905,45.0348901 C18.6839169,44.437624 17.2149112,44.2997933 16.1590633,44.8051724 C18.4543848,41.6350673 20.2447355,44.6213982 20.2447355,44.6213982 C20.4742677,44.7592288 20.1988291,42.7377126 17.9035076,42.6458254 C16.4804083,42.5539383 15.2409347,43.8403578 14.2768996,43.8403578 C13.4964903,43.8403578 11.0634496,42.2323335 10.5125724,40.7621398 C11.9356717,41.8188415 13.7260225,42.4161077 14.8277768,41.7269544 C16.9394726,40.4864785 19.5561391,42.3701641 19.6938584,42.1404464 C19.0970748,41.6810109 17.7657883,39.8892124 14.1850868,40.8999705 C12.8078939,41.6810109 12.2111103,40.3027043 11.3388881,40.3027043 C12.8078939,39.0162849 13.8178354,39.6594946 14.3228061,39.7054382 C14.4605254,39.7054382 13.7260225,39.108172 13.2210518,39.0622284 C9.22719238,38.6487365 6.70233874,37.5460912 6.70233874,37.5460912 C6.70233874,37.5460912 7.02368375,36.7650509 8.72222165,37.3163735 C8.72222165,37.3163735 7.20730947,36.3975024 7.20730947,35.1570266 C7.2532159,34.4219297 7.62046734,33.5949458 7.06959018,32.9976796 C9.36491167,32.9057925 7.75818663,36.1218411 9.36491167,36.9488251 C9.4108181,36.9488251 8.90584737,36.1677847 9.59444382,35.5705185 C9.91578882,36.5353331 10.7421046,36.9947686 11.3388881,37.1785428 C11.4766074,37.0866557 11.6602332,36.8109944 11.6602332,36.8109944 C11.0634496,35.8002363 10.9716367,34.6057039 11.1552624,33.2733409 L11.2011689,33.2733409 C11.3388881,33.2733409 11.5684203,33.7327765 11.7061396,34.0543813 C12.0274846,34.7894781 12.0274846,35.8002363 12.716081,36.6731638 C13.0833325,37.1325993 13.3128646,37.6379783 13.6342096,37.8676961 C13.7719289,37.5460912 13.6801161,36.9488251 13.6342096,36.8109944 C13.5423968,36.2596718 13.2210518,35.2948572 14.1391804,34.4678733 C14.5982447,35.7083492 15.1491218,35.3867443 15.2409347,35.9840105 C15.3327475,36.8109944 15.3327475,36.7191073 15.2409347,37.362317 C15.2868411,38.2811881 16.1131568,38.5109058 16.8017533,39.108172 C18.4543848,39.9810995 19.5102326,40.4864785 20.2447355,41.6350673 C20.611987,39.7054382 15.4245604,39.3378897 16.0672504,35.6164621 C15.9754375,34.1462684 16.2508761,34.0084378 15.1950282,33.0895667 C17.2608176,33.1355103 18.4084783,36.5812767 18.5002912,37.1785428 C18.7298233,38.3271316 19.4184198,38.3730752 20.3365484,39.8892124 C20.4742677,39.9351559 18.6380105,35.8921234 20.8415191,32.446357 C20.8415191,32.446357 21.576022,34.2381555 21.254677,35.4326879 C21.0251448,36.1218411 21.254677,36.9028815 21.3005834,37.362317 C21.3464898,37.8217525 21.2087705,35.7083492 22.7695892,34.6516475 C22.861402,35.4326879 23.6418113,36.6731638 22.9073084,37.9595832 C22.0350863,39.5676075 21.9891798,38.9703413 21.9432734,40.945914 C22.0350863,40.8999705 22.2646184,39.6135511 22.861402,38.8325107 C24.146782,37.2704299 23.2286534,36.3975024 24.4681271,35.0191959 C24.5599399,35.7083492 24.7435656,35.4326879 24.8353785,36.029954 C25.0190042,37.4082606 23.5499985,38.8784542 23.8713435,38.8325107 C24.2385949,38.7865671 24.8353785,38.4649623 25.0190042,37.4082606 C25.0190042,37.4082606 25.5239749,38.3730752 25.0649106,38.69468 C24.1926885,39.2460026 24.0090628,39.8892124 24.146782,40.5783656 C24.8353785,39.7513817 25.7994135,38.8325107 25.6157878,37.6379783 C25.7076007,36.9028815 26.48801,36.6272202 26.6257292,34.9732524 C26.6716357,34.697591 26.9470743,34.3759862 27.2225128,34.192212 C27.0847935,35.111083 27.8192964,36.0758976 26.9929807,37.2244864 C27.1766064,37.3163735 27.8652029,36.3515589 28.9210507,36.6731638 C26.8552614,37.0407122 27.452045,39.2919462 25.8912264,40.3027043 C25.4321621,40.6243092 25.4780685,40.945914 25.3403492,40.9918576 C26.7634485,40.8999705 27.8192964,39.2460026 28.0029221,39.108172 C29.4260215,38.1433574 29.70146,38.0055267 30.2982436,36.443446 C30.5277758,35.8461798 30.3441501,35.6164621 31.1245594,34.7894781 C31.4459044,35.5705185 30.9868401,37.1785428 30.8491208,37.5460912 C30.5736822,38.2811881 29.70146,38.9243978 29.8850858,38.9243978 C33.649413,37.2704299 33.6035066,36.1218411 34.5216352,34.9273088 C34.7970737,34.4678733 36.1283602,33.6868329 36.6333309,33.5949458 C36.4956116,33.8246636 35.9906409,34.2840991 35.9447345,34.697591 C35.8988281,35.524575 35.6233895,36.029954 35.2102316,36.7191073 C35.4397638,36.9947686 35.8988281,36.1677847 36.3578924,36.5812767 C35.8529216,36.9028815 35.577483,37.5920348 35.1184188,38.0055267 Z M35.7611088,37.775809 C35.5315766,38.8784542 35.1643252,39.8892124 34.4757287,40.8540269 C34.0166644,41.5431802 33.8330387,40.2108172 34.2002902,38.9703413 C34.7970737,38.69468 35.3479509,38.2811881 35.7611088,37.775809 Z M32.8690037,9.75024259 C32.7771908,9.70429904 32.5935651,9.70429904 32.5017523,9.70429904 C32.4099394,9.70429904 32.3181265,9.88807325 32.4558458,9.88807325 C32.5476587,9.9340168 32.7312844,9.9340168 32.8690037,9.9340168 C33.006723,9.97996035 32.9608166,9.79618614 32.8690037,9.75024259 Z M32.4558458,10.3015652 C32.5476587,10.3475088 32.7312844,10.3475088 32.8690037,10.3475088 C32.9608166,10.3475088 32.9608166,10.1637346 32.8690037,10.1637346 C32.7771908,10.117791 32.5935651,10.117791 32.5017523,10.117791 C32.364033,10.117791 32.2722201,10.2556217 32.4558458,10.3015652 Z M32.4558458,12.6906299 C32.364033,12.5987428 32.1345008,12.4149686 31.9508751,12.2771379 C31.8131558,12.369025 31.5836237,12.5527992 31.4459044,12.6446863 C31.3540915,12.5068557 31.1704658,12.3230815 30.9409336,12.1393073 C30.8032144,12.2311944 30.3900565,12.5987428 30.2523372,12.6906299 C30.4818693,12.6906299 30.8491208,12.782517 30.8491208,13.0122347 C30.8491208,13.196009 30.8491208,14.3445977 30.8491208,14.5283719 C30.9868401,14.5743155 31.1704658,14.5283719 31.3999979,14.5283719 C31.3999979,14.3445977 31.3999979,13.0581783 31.3999979,12.8744041 C31.4918108,12.8284605 31.5377172,12.782517 31.5836237,12.7365734 C31.6754365,12.782517 31.9049687,13.1041218 32.0885944,13.1500654 C32.1804072,13.0581783 32.4558458,12.8284605 32.5476587,12.7365734 C32.685378,12.6906299 32.5476587,12.5987428 32.4558458,12.6906299 Z M31.7672494,10.8069443 C31.9049687,10.5772265 32.0885944,10.1637346 32.0885944,9.84212969 C32.0885944,9.47458128 31.8590622,8.87731511 31.2622787,8.69354091 C30.5736822,8.92325866 30.1146179,9.52052483 30.1146179,10.1637346 C30.1146179,10.531283 30.4359629,11.3582669 31.1245594,11.3582669 C31.3540915,11.1744927 31.5377172,10.9447749 31.7672494,10.8069443 Z M31.3540915,10.9447749 C31.2163722,10.8988314 30.7573079,10.531283 30.6195886,10.2096781 C30.4818693,9.84212969 30.4818693,9.42863773 30.8950272,9.15297642 C31.2163722,9.29080708 31.5836237,9.56646839 31.6295301,9.84212969 C31.6295301,10.2556217 31.5377172,10.7150572 31.3540915,10.9447749 Z M31.3081851,8.00438763 L31.8131558,7.45306502 C31.8131558,7.45306502 31.5836237,7.26929081 31.4459044,7.13146016 C31.4459044,6.9936295 31.4459044,5.89098427 31.4918108,5.84504072 C31.1245594,5.52343586 30.8491208,5.4774923 30.6654951,5.4774923 C30.3441501,5.52343586 30.022805,5.93692782 29.9309922,6.07475847 C29.8391793,6.16664558 29.8850858,6.30447623 29.9309922,6.35041978 C29.9768986,6.39636333 30.0687115,6.44230688 30.1605243,6.48825044 C30.1605243,6.48825044 30.1146179,6.48825044 30.1146179,6.44230688 C29.9768986,6.58013754 29.7473665,6.94768595 29.7473665,7.22334726 C29.7473665,7.49900857 29.9768986,7.86655698 30.1605243,8.00438763 C30.3441501,7.86655698 30.6195886,7.63683922 30.9868401,7.54495212 C31.0786529,7.77466988 31.1704658,7.91250053 31.3081851,8.00438763 Z M31.0327465,6.71796819 C30.8032144,6.62608109 30.2982436,6.39636333 30.1146179,6.25853268 C30.0687115,6.21258913 30.0687115,6.21258913 30.1146179,6.12070202 C30.2064308,5.93692782 30.3441501,5.79909716 30.4359629,5.79909716 C30.5277758,5.79909716 31.0327465,6.07475847 30.9868401,6.21258913 C31.0327465,6.30447623 31.0327465,6.53419399 31.0327465,6.71796819 Z M31.0327465,7.49900857 C30.8950272,7.49900857 30.8032144,7.54495212 30.6195886,7.63683922 C30.4818693,7.54495212 30.1146179,7.08551661 30.3900565,6.62608109 C30.3441501,6.62608109 30.2982436,6.58013754 30.2982436,6.58013754 C30.5277758,6.71796819 30.8032144,6.85579885 31.0327465,6.9017424 C31.0327465,7.08551661 31.0327465,7.26929081 31.0327465,7.31523436 C31.0327465,7.36117791 31.0327465,7.40712147 31.0327465,7.49900857 Z M29.5637408,5.20183099 C29.4260215,5.20183099 28.6456122,5.20183099 28.6456122,5.15588744 C28.5997057,4.97211324 28.5537993,4.78833903 28.6915186,4.46673417 C28.737425,4.32890352 28.6456122,4.28295997 28.5537993,4.42079062 C28.5078929,4.55862127 28.094735,5.10994389 27.6815771,5.2937181 C27.452045,5.3856052 27.9570157,5.56937941 27.9111093,5.56937941 C27.9111093,6.12070202 28.0029221,6.9017424 28.094735,7.22334726 C28.1865479,7.40712147 28.3701736,7.72872633 28.5537993,7.63683922 C28.6456122,7.59089567 28.8751443,7.17740371 28.9210507,7.08551661 C29.05877,6.9936295 28.9210507,6.8098553 28.8292379,6.94768595 C28.737425,7.03957305 28.6456122,6.9017424 28.5997057,6.8098553 C28.5537993,6.71796819 28.4619864,5.52343586 28.5078929,5.52343586 C28.5078929,5.52343586 29.4719279,5.3856052 29.5637408,5.3856052 C29.6555536,5.43154875 29.6555536,5.20183099 29.5637408,5.20183099 Z M26.9470743,7.36117791 L27.3602321,6.85579885 C27.0847935,6.8098553 26.9470743,6.76391175 26.7634485,6.53419399 L26.7634485,5.2937181 L26.3502907,4.88022613 L26.2125714,4.88022613 L25.5698814,5.43154875 C25.5239749,5.52343586 25.6616942,5.52343586 25.7535071,5.43154875 L26.2125714,5.70721006 L26.2125714,6.94768595 C26.2584778,7.08551661 26.3502907,7.22334726 26.5339164,7.40712147 L26.9470743,7.40712147 L26.9470743,7.36117791 Z M26.6257292,4.55862127 L26.8552614,4.37484707 L26.8552614,4.05324221 L26.5798228,3.7775809 L26.3043842,4.00729866 L26.3043842,4.37484707 L26.48801,4.55862127 L26.6257292,4.55862127 L26.6257292,4.55862127 Z M25.6157878,4.19107286 C25.4321621,4.19107286 24.8812849,4.23701641 24.6976592,4.23701641 C24.5140335,4.28295997 24.5140335,4.37484707 24.6517528,4.37484707 C24.8353785,4.37484707 24.8353785,4.42079062 24.9271913,4.65050838 C25.0190042,4.88022613 24.6058463,5.89098427 24.5140335,6.12070202 C24.3763142,5.93692782 23.9631563,5.01805679 23.9631563,4.88022613 C23.9631563,4.78833903 24.146782,4.69645193 24.2385949,4.69645193 C24.3763142,4.65050838 24.3763142,4.55862127 24.2845013,4.51267772 C23.9631563,4.46673417 22.7695892,4.37484707 22.5859634,4.32890352 C22.4482441,4.32890352 22.3564313,4.46673417 22.540057,4.46673417 C22.7236827,4.46673417 22.9073084,4.42079062 23.1368406,4.69645193 C23.3663727,5.01805679 24.1008756,6.62608109 24.2845013,7.31523436 C24.3763142,7.17740371 25.1108171,5.01805679 25.1567235,4.78833903 C25.2026299,4.55862127 25.3862556,4.32890352 25.5698814,4.28295997 C25.7994135,4.28295997 25.7994135,4.19107286 25.6157878,4.19107286 Z M22.1268991,9.38269418 C22.1268991,10.2556217 22.4941506,10.3475088 22.9073084,10.5772265 C23.2745599,10.8069443 23.9172499,10.7610007 24.4222206,10.6231701 C24.6058463,10.5772265 24.6976592,10.5772265 24.6976592,10.7150572 C24.6976592,10.8069443 24.8353785,10.8069443 24.8353785,10.7150572 C24.8353785,10.6231701 24.8353785,9.88807325 24.8353785,9.79618614 C24.8353785,9.70429904 24.6976592,9.70429904 24.6976592,9.79618614 C24.6976592,9.9340168 24.6976592,9.97996035 24.5599399,10.117791 C24.2385949,10.6231701 23.4122792,10.5772265 22.9532149,9.97996035 C22.8154956,9.79618614 22.6777763,9.52052483 22.8154956,9.42863773 C22.9991213,9.38269418 23.5499985,9.47458128 23.8713435,9.52052483 C24.1008756,9.52052483 24.5599399,9.56646839 24.6517528,9.61241194 C24.6976592,9.65835549 24.7894721,9.70429904 24.7894721,9.61241194 C24.7894721,9.52052483 24.7894721,9.15297642 24.7894721,9.06108932 C24.7894721,8.96920222 24.6976592,9.01514577 24.6517528,9.06108932 C24.6058463,9.10703287 24.0549692,9.19891997 23.8713435,9.24486352 C23.6418113,9.29080708 22.9991213,9.33675063 22.861402,9.29080708 C22.6777763,9.24486352 22.7236827,8.87731511 22.9073084,8.69354091 C23.3663727,8.09627474 24.2845013,8.14221829 24.6058463,8.64759736 C24.6976592,8.83137156 24.6976592,8.87731511 24.6976592,9.01514577 C24.6976592,9.10703287 24.8353785,9.10703287 24.8353785,9.01514577 C24.8353785,8.92325866 24.8353785,8.00438763 24.8353785,7.95844408 C24.8353785,7.86655698 24.6976592,7.86655698 24.6976592,7.95844408 C24.6976592,8.00438763 24.5599399,8.05033119 24.4222206,8.00438763 C24.146782,7.91250053 23.3204663,8.05033119 22.9532149,8.23410539 C22.5859634,8.4178796 22.1268991,8.83137156 22.1268991,9.38269418 Z M22.2646184,10.9447749 C22.2646184,11.2204362 22.3564313,13.3797832 22.3564313,13.701388 C22.3564313,13.8851622 22.5859634,14.0689364 22.7695892,14.2067671 C22.861402,14.0689364 23.0909342,13.7473316 23.2745599,13.6095009 C23.3663727,13.5176138 23.3204663,13.4716703 23.2286534,13.4716703 C23.0450277,13.5635574 22.9073084,13.4716703 22.861402,13.2878961 C22.861402,13.1041218 22.861402,11.2204362 22.861402,10.9447749 C22.7695892,10.9907185 22.4023377,10.9907185 22.2646184,10.9447749 Z M24.0549692,12.7365734 C23.9172499,12.8744041 23.6418113,13.2419525 23.6418113,13.4716703 C23.6418113,13.7473316 23.7795306,13.9770493 23.9172499,14.1608235 C24.1926885,13.9770493 24.3304078,13.701388 24.7894721,13.5635574 C24.8353785,13.7473316 24.9730978,13.7932751 25.1567235,13.9311058 C25.2485364,13.8392187 25.6157878,13.3797832 25.7076007,13.2878961 C25.7994135,13.196009 25.7535071,13.1500654 25.6157878,13.196009 C25.4780685,13.2878961 25.4321621,13.2419525 25.2026299,13.0122347 C25.2026299,12.8744041 25.2026299,11.9555331 25.2485364,11.9095895 C25.0649106,11.7258153 24.8812849,11.450154 24.6976592,11.450154 C24.3763142,11.4960975 24.0090628,12.0014766 23.9172499,12.1393073 C23.825437,12.2311944 23.9172499,12.6446863 23.9631563,12.6906299 C24.0549692,12.7365734 24.0549692,12.7365734 24.0549692,12.7365734 Z M24.2845013,12.9203476 C24.4681271,13.0122347 24.5599399,12.9662912 24.7894721,12.9203476 C24.7894721,13.1041218 24.7894721,13.2419525 24.7894721,13.3338396 C24.6517528,13.4257267 24.5140335,13.4716703 24.3763142,13.5635574 C24.2385949,13.4257267 24.0549692,13.3338396 24.2845013,12.9203476 Z M24.146782,12.1393073 C24.2385949,11.9555331 24.3304078,11.9555331 24.4222206,11.9555331 C24.5140335,11.9555331 24.8353785,12.1852508 24.7894721,12.3230815 C24.7894721,12.4149686 24.7894721,12.5987428 24.7894721,12.8284605 C24.5599399,12.8744041 24.3763142,12.8744041 24.146782,12.6446863 C24.1008756,12.5987428 24.1008756,12.2311944 24.146782,12.1393073 Z M26.0289457,11.7717589 C25.8453199,11.863646 26.3043842,12.0474202 26.2584778,12.0474202 C26.2584778,12.5987428 26.166665,13.4257267 26.3502907,13.701388 C26.4421035,13.8851622 26.7175421,13.9770493 26.9011678,13.9311058 C27.0847935,13.8851622 27.2684193,13.5176138 27.3602321,13.4716703 C27.4979514,13.3797832 27.3602321,13.2878961 27.2684193,13.3797832 C27.1766064,13.4716703 26.9011678,13.4257267 26.8552614,13.3338396 C26.809355,13.2419525 26.809355,12.0933637 26.8552614,12.0474202 C26.8552614,12.0474202 27.1766064,12.0474202 27.2684193,12.0474202 C27.3602321,12.0474202 27.3602321,11.8177024 27.2684193,11.8177024 C27.1307,11.8177024 26.9011678,11.7717589 26.8552614,11.7258153 C26.809355,11.6339282 26.8552614,11.2663798 26.9470743,11.1285491 C27.0388871,10.9907185 26.9011678,10.8988314 26.809355,11.0826056 C26.7175421,11.2663798 26.3961971,11.5879847 26.0289457,11.7717589 Z M26.1207585,9.38269418 C26.1207585,9.88807325 25.8912264,10.3934523 25.6157878,10.6691136 C26.1207585,10.531283 26.166665,10.2556217 26.4421035,9.88807325 C26.5798228,10.117791 26.8552614,10.3934523 27.0847935,10.4853394 C27.2225128,10.3934523 27.6356707,9.9340168 27.7274836,9.84212969 C27.452045,9.75024259 26.9011678,9.47458128 26.7634485,9.15297642 C26.6716357,8.92325866 26.6716357,8.83137156 26.809355,8.64759736 C26.9011678,8.78542801 27.5897643,9.10703287 27.9111093,8.55571025 C27.5897643,8.4178796 27.2684193,8.23410539 27.1766064,8.05033119 C27.0847935,8.14221829 26.809355,8.46382315 26.6257292,8.55571025 C26.5798228,8.37193605 26.3043842,8.18816184 26.0748521,8.14221829 C25.9830392,8.23410539 25.4780685,8.6016538 25.2485364,8.73948446 C25.1567235,8.78542801 25.2026299,8.92325866 25.2944428,8.87731511 C25.3862556,8.83137156 25.5698814,8.69354091 25.7535071,8.6016538 C25.8453199,8.69354091 26.1207585,8.92325866 26.1207585,9.38269418 Z M28.4619864,9.47458128 C28.5078929,9.15297642 28.737425,9.06108932 28.8292379,8.96920222 C28.9669572,9.10703287 29.1046765,9.29080708 29.3342086,9.29080708 C29.5178343,9.29080708 29.7473665,9.19891997 29.7932729,9.10703287 C29.6096472,8.96920222 29.2423957,8.55571025 29.1505829,8.5097667 C28.9669572,8.6016538 28.094735,9.06108932 28.0488286,9.56646839 C27.9570157,10.3015652 28.1865479,10.4393959 28.5078929,10.8528878 C28.6915186,11.0826056 29.0128636,11.0826056 29.1505829,11.0826056 C29.2883022,10.9907185 29.8391793,10.4393959 29.9309922,10.3934523 C29.9768986,10.3475088 29.8850858,10.2556217 29.8391793,10.3475088 C29.7932729,10.3934523 29.7932729,10.4393959 29.70146,10.4393959 C29.6096472,10.4393959 29.2423957,10.531283 29.0128636,10.3934523 C28.737425,10.2096781 28.41608,9.88807325 28.4619864,9.47458128 Z M28.0488286,11.8177024 C27.9111093,11.9555331 27.7274836,12.0933637 27.4979514,12.3230815 C27.6815771,12.3230815 27.8192964,12.369025 27.8652029,12.5527992 C27.9570157,12.6906299 27.8652029,13.3797832 27.9111093,13.6554445 C27.9111093,13.8851622 28.094735,13.9770493 28.2783607,14.1608235 C28.4619864,14.11488 29.0128636,13.8851622 29.2423957,13.7473316 C29.2423957,13.9770493 29.4719279,14.2067671 29.6555536,14.2527106 C29.7473665,14.1608235 29.8850858,14.0689364 30.022805,13.9311058 C29.8850858,13.8392187 29.8850858,13.8392187 29.8391793,13.6095009 C29.7932729,13.4257267 29.8391793,12.6906299 29.8391793,12.369025 C29.70146,12.1852508 29.5178343,11.9555331 29.3342086,11.8177024 C29.1964893,11.9555331 29.0128636,12.0933637 28.7833314,12.369025 C28.9669572,12.369025 29.2883022,12.4149686 29.2883022,12.5527992 C29.2883022,12.7365734 29.3342086,13.1041218 29.2883022,13.4257267 C29.2423957,13.7473316 28.41608,13.6095009 28.41608,13.3797832 C28.41608,13.1500654 28.4619864,12.5527992 28.4619864,12.2771379 C28.3701736,12.0933637 28.2783607,12.0014766 28.0488286,11.8177024 Z M22.6318699,19.2146142 L22.6318699,19.2146142 C22.1728056,19.1227271 21.8055541,18.8011222 21.3464898,18.617348 C20.7497062,18.3876303 20.1070162,18.8470658 20.1070162,18.9389529 C20.1070162,19.1227271 20.2906419,19.1686706 20.7497062,18.8930093 C20.3824548,19.3524448 20.7956127,19.6740497 20.7956127,19.6740497 C20.6578934,19.6281062 20.4283612,19.5821626 20.2447355,19.5362191 C20.1988291,19.6740497 20.4283612,19.7659368 20.5201741,19.8118804 C21.3923963,20.1334852 21.897367,19.3524448 22.6318699,19.2146142 Z M21.254677,19.6281062 C21.254677,19.6281062 21.4842091,19.3983884 21.4842091,19.2146142 C21.4842091,18.9848964 21.254677,18.8470658 21.254677,18.8470658 C21.4383027,18.8930093 21.8514606,19.1227271 22.0350863,19.2605577 L21.254677,19.6281062 Z M16.8476597,13.5176138 L17.0771919,13.2419525 C16.8017533,13.196009 16.9394726,13.196009 16.8017533,13.0581783 L16.8017533,12.0014766 L16.4804083,11.4960975 L16.342689,11.4960975 L15.7918118,12.0014766 C15.6540925,12.1393073 15.7918118,12.1852508 15.9295311,12.0474202 L16.2967826,12.2311944 L16.2967826,13.3338396 C16.342689,13.4716703 16.4345018,13.5176138 16.6181276,13.701388 L16.8476597,13.5176138 Z M16.9394726,9.84212969 C17.1230983,10.3475088 17.5362562,10.531283 17.8576012,10.531283 C17.949414,10.3475088 18.1330397,10.0718475 18.2248526,9.97996035 C18.3625719,9.79618614 18.2248526,9.65835549 18.1330397,9.88807325 C18.0412269,10.0718475 17.628069,9.88807325 17.4903497,9.75024259 C17.306724,9.56646839 17.1690047,9.06108932 17.306724,8.92325866 C17.4444433,8.73948446 17.6739754,8.83137156 17.9953205,8.83137156 C18.1789462,8.83137156 18.2248526,8.64759736 18.270759,8.55571025 C18.1789462,8.5097667 18.0412269,8.4178796 17.8576012,8.3259925 C17.6739754,8.46382315 17.3526304,8.69354091 17.2608176,8.78542801 C17.0771919,8.87731511 16.7558469,9.33675063 16.9394726,9.84212969 Z M17.7198819,12.6446863 C17.5362562,12.8284605 17.3985369,13.0581783 17.3985369,13.3338396 C17.3985369,13.6095009 17.4903497,13.8392187 17.7657883,13.9770493 C17.9953205,13.7932751 18.3166655,13.6095009 18.592104,13.5176138 C18.7298233,13.701388 18.9593555,13.7932751 19.0970748,13.9311058 C19.1888876,13.8392187 19.4643262,13.5635574 19.5561391,13.5176138 C19.6479519,13.4257267 19.5561391,13.3338396 19.4643262,13.4257267 C19.4184198,13.5176138 19.1888876,13.4716703 19.1429812,13.3338396 C19.1429812,13.2419525 19.0511683,12.0474202 19.0970748,12.0014766 C18.9134491,11.8177024 18.6380105,11.4042104 18.4543848,11.4042104 C18.1789462,11.450154 17.7198819,11.863646 17.628069,11.9555331 C17.5362562,12.0474202 17.628069,12.5527992 17.7198819,12.6446863 C17.6739754,12.5987428 17.7198819,12.5987428 17.7198819,12.6446863 Z M18.4543848,12.7365734 C18.2248526,12.7365734 18.0412269,12.6906299 17.8116947,12.4609121 C17.7657883,12.4149686 17.7198819,12.1393073 17.7657883,12.0474202 C17.8576012,11.863646 17.8576012,11.8177024 17.949414,11.8177024 C18.0412269,11.8177024 18.4543848,12.0933637 18.4543848,12.2311944 C18.5002912,12.369025 18.5002912,12.5527992 18.4543848,12.7365734 Z M17.9035076,12.782517 C18.0871333,12.9203476 18.2248526,12.9203476 18.4543848,12.8744041 C18.4543848,13.0122347 18.4543848,13.1500654 18.4543848,13.196009 C18.4543848,13.2419525 18.5002912,13.2878961 18.5002912,13.3338396 C18.3625719,13.3797832 18.2248526,13.4257267 18.0871333,13.4716703 C17.949414,13.3797832 17.5362562,13.1041218 17.9035076,12.782517 Z M19.5102326,10.5772265 L19.7397648,10.3015652 C19.4643262,10.2556217 19.4643262,10.2556217 19.3266069,10.1637346 L19.3266069,8.92325866 L19.0970748,8.6016538 L18.9593555,8.6016538 L18.4084783,9.10703287 C18.270759,9.24486352 18.4084783,9.29080708 18.5461976,9.15297642 L18.8216362,9.33675063 L18.8216362,10.4853394 C18.8675426,10.6231701 18.9593555,10.6691136 19.1429812,10.8528878 L19.5102326,10.5772265 Z M19.0970748,6.30447623 C19.0052619,6.30447623 18.8216362,6.48825044 19.4643262,6.58013754 C19.5561391,6.53419399 19.6938584,6.30447623 19.0970748,6.30447623 Z M19.0970748,5.89098427 C19.0052619,5.89098427 18.8216362,6.16664558 19.4643262,6.16664558 C19.6020455,6.16664558 19.6479519,5.93692782 19.0970748,5.89098427 Z M19.2347941,7.82061343 L18.9593555,7.54495212 L18.6839169,7.77466988 L18.6839169,8.09627474 L18.8675426,8.28004894 L19.0511683,8.28004894 L19.2347941,8.09627474 L19.2347941,7.82061343 Z M18.6839169,5.20183099 C18.5002912,5.06400034 18.3166655,4.74239548 17.8576012,4.74239548 C17.3985369,4.74239548 16.8935661,5.15588744 16.7099404,5.3856052 C16.4804083,5.70721006 16.7558469,6.02881492 17.0312854,6.25853268 C16.8476597,6.39636333 16.5722211,6.67202464 16.342689,6.9017424 C16.4345018,6.9936295 16.9394726,7.26929081 17.2608176,7.22334726 C17.7198819,7.22334726 18.0871333,6.9936295 18.3625719,6.76391175 C18.8216362,6.39636333 18.6839169,6.02881492 18.1789462,5.75315361 C18.1330397,5.70721006 18.0871333,5.70721006 18.0412269,5.70721006 C18.3625719,5.4774923 18.6380105,5.2937181 18.6839169,5.20183099 Z M17.5362562,6.16664558 C17.6739754,6.25853268 17.8576012,6.30447623 17.9953205,6.39636333 C18.2248526,6.53419399 18.1330397,6.8098553 17.8576012,6.9017424 C17.5821626,7.03957305 17.1230983,6.67202464 17.0312854,6.53419399 C17.1230983,6.44230688 17.306724,6.30447623 17.5362562,6.16664558 Z M17.9953205,5.52343586 C17.949414,5.56937941 17.8576012,5.66126651 17.7198819,5.75315361 C17.628069,5.75315361 17.5821626,5.75315361 17.4903497,5.75315361 C17.2608176,5.70721006 17.1690047,5.52343586 17.0312854,5.3856052 C16.9394726,5.24777455 17.2149112,5.10994389 17.3526304,5.10994389 C17.4903497,5.15588744 17.8116947,5.33966165 17.9953205,5.52343586 Z M16.1131568,6.48825044 C15.4245604,6.67202464 15.1032154,6.12070202 15.057309,5.98287137 C15.3327475,5.70721006 15.7918118,5.24777455 16.0672504,5.01805679 C15.8836247,4.83428258 15.7918118,4.55862127 15.4704668,4.55862127 C15.1950282,4.55862127 14.5064318,4.88022613 14.3687125,5.75315361 C14.2768996,6.58013754 15.0114025,7.03957305 15.6540925,7.03957305 C15.8377183,7.03957305 16.1131568,6.76391175 16.2508761,6.71796819 C16.5263147,6.58013754 16.4345018,6.44230688 16.1131568,6.48825044 Z M15.0114025,5.84504072 C14.8277768,5.2937181 14.9195897,5.10994389 15.2409347,4.83428258 C15.3327475,5.01805679 15.5163733,5.15588744 15.6081861,5.20183099 C15.4245604,5.3856052 15.1491218,5.75315361 15.0114025,5.84504072 Z M14.2309932,5.33966165 C14.3687125,5.24777455 14.2309932,5.15588744 14.1391804,5.24777455 C14.0473675,5.15588744 13.8637418,4.97211324 13.7719289,4.83428258 C13.6801161,4.92616969 13.4046775,5.06400034 13.2669582,5.15588744 C13.1751453,5.01805679 13.037426,5.01805679 12.8078939,4.83428258 C12.6701746,4.92616969 12.394736,5.10994389 12.2570167,5.2937181 C12.5324553,5.3856052 12.716081,5.3856052 12.716081,5.61532296 C12.716081,5.79909716 12.716081,6.9017424 12.716081,7.08551661 C12.8538003,7.13146016 13.037426,7.08551661 13.2210518,7.08551661 C13.2210518,6.94768595 13.2210518,5.52343586 13.2210518,5.3856052 C13.3128646,5.33966165 13.3587711,5.2937181 13.4046775,5.24777455 C13.4964903,5.2937181 13.6342096,5.52343586 13.7719289,5.61532296 C13.8637418,5.61532296 14.1391804,5.43154875 14.2309932,5.33966165 Z M12.1192975,8.18816184 C11.8438589,8.23410539 11.3847946,8.55571025 11.2929817,8.83137156 C11.2470753,8.96920222 11.2929817,9.38269418 11.3847946,9.42863773 C11.430701,9.47458128 11.430701,9.47458128 11.4766074,9.52052483 C11.2929817,9.70429904 11.109356,9.84212969 11.109356,10.117791 C11.109356,10.3934523 11.3388881,10.6231701 11.5684203,10.7150572 C11.7061396,10.4853394 11.9356717,10.3475088 12.1652039,10.3015652 C12.1652039,10.4853394 12.2111103,10.6691136 12.3488296,10.7610007 C12.4406425,10.6691136 12.8078939,10.3015652 12.8997068,10.2556217 C12.9915196,10.1637346 12.8997068,10.0718475 12.8078939,10.1637346 C12.7619875,10.2096781 12.6242682,10.117791 12.5783617,10.0718475 C12.5783617,9.97996035 12.5783617,8.78542801 12.6242682,8.73948446 C12.4865489,8.6016538 12.3029232,8.18816184 12.1192975,8.18816184 Z M12.1192975,9.38269418 C11.7979524,9.61241194 11.7061396,9.56646839 11.4766074,9.33675063 C11.3847946,9.19891997 11.3847946,8.96920222 11.430701,8.87731511 C11.5225139,8.73948446 11.7061396,8.55571025 11.7979524,8.55571025 C11.8897653,8.55571025 12.1192975,8.87731511 12.1192975,9.01514577 C12.1192975,9.10703287 12.1192975,9.24486352 12.1192975,9.38269418 Z M12.1192975,9.97996035 C12.1192975,10.0259039 12.1192975,10.117791 12.1192975,10.1637346 C12.073391,10.1637346 11.9815782,10.2096781 11.8897653,10.2556217 C11.752046,10.1637346 11.2011689,9.97996035 11.5684203,9.65835549 C11.7979524,9.79618614 11.8897653,9.70429904 12.1192975,9.56646839 C12.1192975,9.75024259 12.1192975,9.9340168 12.1192975,9.97996035 Z M11.8897653,7.49900857 C11.8438589,7.45306502 11.752046,7.36117791 11.752046,7.26929081 C11.752046,7.22334726 11.752046,6.48825044 11.752046,6.39636333 C11.752046,6.30447623 11.5684203,6.30447623 11.5684203,6.39636333 C11.5684203,6.53419399 11.5684203,6.71796819 11.4766074,6.9017424 C11.1552624,7.36117791 10.5584788,7.59089567 10.145321,6.9936295 C10.0076017,6.8098553 9.96169525,6.48825044 9.96169525,6.30447623 C9.91578882,6.02881492 10.145321,5.66126651 10.145321,5.61532296 C10.6961981,4.92616969 11.430701,5.43154875 11.4766074,5.70721006 C11.5225139,5.89098427 11.5684203,6.12070202 11.5684203,6.25853268 C11.5684203,6.35041978 11.752046,6.35041978 11.752046,6.25853268 C11.752046,6.16664558 11.752046,5.10994389 11.752046,5.01805679 C11.752046,4.92616969 11.6143267,4.92616969 11.6143267,5.01805679 C11.6143267,5.20183099 11.5225139,5.20183099 11.3847946,5.15588744 C11.109356,5.06400034 10.5125724,4.92616969 10.1912274,5.15588744 C9.86988239,5.33966165 9.4108181,5.75315361 9.4108181,6.25853268 C9.4108181,7.13146016 9.7321631,7.17740371 10.145321,7.45306502 C10.5125724,7.68278277 10.9716367,7.54495212 11.430701,7.40712147 C11.6143267,7.36117791 11.6143267,7.45306502 11.7061396,7.59089567 C11.8897653,7.77466988 11.9815782,7.63683922 11.8897653,7.49900857 Z M9.50263096,8.73948446 C9.18128595,9.19891997 9.04356666,9.9340168 9.54853739,10.3475088 C9.77806953,10.531283 10.0076017,10.7150572 10.5125724,10.6231701 C10.6043853,10.4393959 10.6502917,10.3475088 10.8339174,10.117791 C10.5125724,10.1637346 10.2371338,10.117791 9.96169525,9.9340168 C9.45672453,9.52052483 9.59444382,8.87731511 9.77806953,8.64759736 C10.0535081,8.23410539 10.466666,8.83137156 10.5125724,8.92325866 C10.6043853,8.83137156 10.7421046,8.64759736 10.9257303,8.55571025 C10.788011,8.37193605 10.6502917,8.14221829 10.5584788,8.05033119 C10.1912274,8.14221829 9.68625668,8.4178796 9.50263096,8.73948446 Z M9.68625668,12.6906299 C9.59444382,13.5176138 10.3748531,14.0229929 10.7421046,14.1608235 C10.8339174,13.9770493 11.0175431,13.6554445 11.2011689,13.4257267 C11.3388881,13.2419525 11.2011689,13.196009 11.0634496,13.3338396 C10.8798238,13.5176138 10.3748531,13.3338396 10.2371338,13.1041218 C10.466666,12.9203476 11.1552624,12.369025 11.430701,12.1393073 C11.2470753,11.9555331 10.9716367,11.5420411 10.9257303,11.2663798 C10.6502917,11.4960975 9.82397596,11.8177024 9.68625668,12.6906299 Z M10.5125724,11.8177024 C10.6043853,12.0014766 10.8339174,12.369025 10.9257303,12.4149686 C10.7421046,12.5987428 10.2830403,12.9203476 10.145321,13.0122347 C9.91578882,12.6906299 9.77806953,12.2311944 10.5125724,11.8177024 Z M12.2111103,11.4960975 C12.0274846,11.6339282 11.9356717,11.7717589 11.7061396,11.9555331 C11.7979524,12.0933637 11.9815782,12.2311944 12.0274846,12.4609121 C12.0274846,12.6906299 12.0274846,13.701388 12.0274846,13.9311058 C12.2111103,13.9311058 12.1652039,13.9311058 12.4865489,13.9311058 C12.4406425,13.7473316 12.4865489,12.4609121 12.4865489,12.2311944 C12.5783617,12.1393073 12.6242682,12.0933637 12.7619875,12.0014766 C12.8538003,12.0933637 13.0833325,12.1393073 13.0833325,12.2771379 C13.0833325,12.4149686 13.1292389,13.0581783 13.0833325,13.2878961 C13.037426,13.5635574 13.037426,13.7932751 13.2210518,14.0689364 C13.3587711,13.9311058 13.7719289,13.6554445 13.8637418,13.5635574 C13.9555546,13.4716703 13.9096482,13.4257267 13.7719289,13.4716703 C13.6342096,13.5176138 13.6342096,13.5176138 13.6342096,13.4257267 C13.6342096,13.2878961 13.5883032,12.5987428 13.5423968,12.1393073 C13.5423968,11.6798718 13.3128646,11.5879847 13.1751453,11.4960975 C13.037426,11.6339282 12.7619875,11.8177024 12.5783617,11.9555331 C12.394736,11.9555331 12.3488296,11.7258153 12.2111103,11.4960975 Z M13.9555546,10.4393959 C14.0932739,10.3015652 14.2309932,10.117791 14.2768996,10.0718475 C14.3687125,9.97996035 14.2768996,9.88807325 14.1850868,9.97996035 C14.0932739,10.0718475 13.9096482,9.88807325 13.9096482,9.88807325 C13.8637418,9.79618614 13.7260225,8.78542801 13.7719289,8.78542801 C13.7719289,8.78542801 14.4146189,8.69354091 14.5064318,8.69354091 C14.5523382,8.69354091 14.5982447,8.5097667 14.5064318,8.5097667 C14.4146189,8.5097667 13.9096482,8.55571025 13.9096482,8.5097667 C13.8637418,8.4178796 13.8178354,8.05033119 13.9555546,7.72872633 C14.0473675,7.59089567 13.9555546,7.45306502 13.9096482,7.59089567 C13.8637418,7.72872633 13.4505839,8.37193605 13.1751453,8.46382315 C12.9456132,8.55571025 12.9915196,8.6016538 13.1292389,8.64759736 C13.2210518,8.64759736 13.3587711,8.78542801 13.3128646,8.78542801 C13.3128646,9.29080708 13.2210518,9.9340168 13.4046775,10.2096781 C13.5423968,10.3934523 13.8178354,10.531283 13.9555546,10.4393959 Z M16.1590633,10.6691136 C16.0672504,10.8069443 15.9754375,10.9907185 15.699999,11.0826056 C15.8377183,11.2204362 16.021344,11.3582669 16.1590633,11.450154 C16.2967826,11.3123233 16.4345018,11.1285491 16.5722211,10.9907185 C16.4345018,10.9447749 16.2508761,10.8528878 16.1590633,10.6691136 Z M15.1491218,10.117791 C15.3327475,10.117791 15.699999,10.2096781 16.021344,10.2096781 C16.4345018,10.1637346 16.8017533,9.52052483 16.6181276,8.96920222 C16.4345018,8.46382315 15.8836247,8.55571025 15.5163733,8.46382315 C15.1950282,8.37193605 15.0114025,8.14221829 15.4245604,7.91250053 C15.8836247,7.63683922 16.3885954,8.09627474 16.4345018,8.18816184 C16.5263147,8.3259925 16.5722211,8.3259925 16.5722211,8.14221829 C16.5722211,7.72872633 16.5263147,7.95844408 16.5263147,7.59089567 C16.5263147,7.45306502 16.4345018,7.45306502 16.3885954,7.59089567 C16.3885954,7.72872633 16.2049697,7.68278277 16.1131568,7.68278277 C15.9754375,7.68278277 15.6081861,7.63683922 15.2868411,7.82061343 C15.1032154,7.95844408 14.6441511,8.28004894 14.8736832,8.73948446 C15.0114025,8.96920222 15.8836247,9.19891997 16.1131568,9.33675063 C16.342689,9.47458128 16.3885954,9.84212969 16.1590633,10.0259039 C15.8836247,10.2556217 15.1950282,10.0718475 15.057309,9.9340168 C14.9195897,9.79618614 14.8736832,9.65835549 14.8277768,9.47458128 C14.8736832,9.15297642 14.7359639,9.15297642 14.7359639,9.33675063 C14.7359639,9.52052483 14.7818704,10.117791 14.8277768,10.2556217 C14.8736832,10.3934523 15.0114025,10.3475088 15.0114025,10.2556217 C15.0114025,10.117791 15.057309,10.117791 15.1491218,10.117791 Z M14.2309932,11.9555331 C14.0473675,12.0933637 14.4146189,12.2771379 14.4146189,12.2311944 C14.4146189,12.7365734 14.3687125,13.2878961 14.5064318,13.5635574 C14.5982447,13.7473316 14.9654961,13.8392187 15.0114025,13.701388 C15.057309,13.5635574 15.3327475,13.2419525 15.378654,13.1500654 C15.4704668,13.0581783 15.378654,12.9662912 15.2868411,13.0581783 C15.1032154,13.2419525 15.0114025,13.1500654 14.8277768,13.0122347 C14.7818704,12.9203476 14.7359639,12.2311944 14.7818704,12.1852508 C14.7818704,12.1852508 15.1491218,12.1393073 15.1950282,12.1393073 C15.2409347,12.1393073 15.2409347,11.9555331 15.1950282,11.9555331 C15.1032154,11.9555331 14.7818704,11.9555331 14.7818704,11.9095895 C14.7359639,11.8177024 14.8277768,11.3123233 14.8736832,11.0826056 C14.8736832,10.9447749 14.8277768,10.8988314 14.7818704,11.036662 C14.7818704,11.1744927 14.4146189,11.8177024 14.2309932,11.9555331 Z" id="Shape"></path>
                </g>
            </g>
        </g>
    </g>
</svg>