<?xml version="1.0" encoding="UTF-8" standalone="yes"?><svg xmlns:xlink="http://www.w3.org/1999/xlink" xmlns="http://www.w3.org/2000/svg" xmlns:svg="http://www.w3.org/2000/svg" width="355.60001" height="474" viewBox="0 0 355.60001 474" version="1.1" id="svg380" style="zoom: 1;"><rect stroke="none" x="25.600597px" height="123.402023px" y="-3.404082px" id="rect1" stroke-width="3px" width="295.405151px" fill="#ffffff" visibility="visible" transform=""></rect><title id="title358" visibility="hidden">Group</title><defs id="defs368" visibility="hidden"><path d="m 338.8,0 c 0,31.164792 -0.5296,53.686171 -1.5888,67.564139 -1.3195,17.28846 -16.40763,33.329961 -32.84598,39.902311 C 299.33813,109.47637 254.21639,118.38755 169,134.2 v 0 l -0.007,-0.002 -2.52154,-0.4703 C 83.423825,118.21002 39.4116,109.45627 34.434783,107.46645 17.996433,100.8941 2.9082949,83.752599 1.5887988,66.464139 0.55340184,52.898035 0.02406967,31.422996 8.0232234e-4,2.03902 L 0,0 v 0 z" id="path-1" visibility="hidden"></path><filter x="-0.024793388" y="-0.062593147" width="1.0495868" height="1.1549925" filterUnits="objectBoundingBox" id="filter-2" visibility="hidden"><feOffset dx="0" dy="4" in="SourceAlpha" result="shadowOffsetOuter1" id="feOffset361" visibility="hidden"></feOffset><feGaussianBlur stdDeviation="3.5" in="shadowOffsetOuter1" result="shadowBlurOuter1" id="feGaussianBlur363" visibility="hidden"></feGaussianBlur><feColorMatrix values="0 0 0 0 0.450980392 0 0 0 0 0.450980392 0 0 0 0 0.450980392 0 0 0 0.231889205 0" type="matrix" in="shadowBlurOuter1" id="feColorMatrix365" visibility="hidden"></feColorMatrix></filter></defs><g id="Navigation" stroke="none" stroke-width="1" fill="none" fill-rule="evenodd" transform="translate(1.4,8.4000006)" visibility="hidden"><g id="Brand-bar/edu/D/Final" transform="translate(-604)" visibility="hidden"><g id="Group" transform="translate(611)" visibility="hidden"><g id="Combined-Shape" visibility="hidden"><use fill="#000000" fill-opacity="1" filter="url(#filter-2)" xlink:href="#path-1" id="use370" visibility="hidden"></use><use fill="#ffffff" fill-rule="evenodd" xlink:href="#path-1" id="use372" visibility="hidden"></use></g><g id="uchicago_wordmark" transform="translate(38,29)" fill="#800000" fill-rule="nonzero" visibility="visible"><path d="m 260.97805,3.7775809 v 0 -0.091887 c -0.0459,-0.6432097 -0.0459,-1.4701936 -0.0459,-2.3431211 V 1.204742 l -0.13772,0.045944 C 260.56489,1.29663 259.50905,1.29663 258.4532,1.29663 h -3.25936 c -0.64269,0 -1.23947,0 -2.01988,-0.045944 h -0.0459 -0.0459 c -0.13772,0.091887 -0.18363,0.2756613 -0.18363,0.3216048 0,0.1378307 0.0459,0.2756613 0.13772,0.3216049 l 0.32135,0.045943 c 0.87222,0.091887 0.91812,0.1837743 0.91812,2.0674599 v 6.3402104 c 0,1.883685 -0.0459,1.975573 -0.91812,2.06746 l -0.50498,0.04594 -0.0459,0.04594 c -0.0918,0.09189 -0.13772,0.275661 -0.0918,0.367548 0,0.137831 0.0918,0.229718 0.18362,0.275661 h 0.0459 0.0459 c 0.82632,-0.04594 1.4231,-0.04594 2.20351,-0.04594 0.6886,0 1.33129,0 2.34123,0.04594 h 0.0459 0.0459 c 0.13772,-0.04594 0.18363,-0.229717 0.18363,-0.321604 0,-0.137831 -0.0459,-0.275662 -0.13772,-0.321605 l -0.64269,-0.09189 c -0.91813,-0.09189 -0.96404,-0.183775 -0.96404,-2.06746 V 7.9125005 c 0,-0.3216048 0,-0.3216048 0.45907,-0.3216048 h 1.19357 c 0.59678,0 1.10175,0 1.33128,0.091887 0.22953,0.091887 0.36725,0.2297177 0.45907,0.5513226 l 0.18362,0.7350968 0.0459,0.045944 c 0.18363,0.1378306 0.55088,0.1378306 0.64269,-0.045944 v -0.045943 -0.045944 c 0,-0.1837742 0,-0.4134919 -0.0459,-0.6891533 0,-0.3216048 -0.0459,-0.6891532 -0.0459,-1.0107581 0,-0.3675484 0,-0.7350968 0.0459,-1.0567017 0,-0.2756613 0.0459,-0.505379 0.0459,-0.7350968 v -0.045944 -0.045943 c -0.0918,-0.1378307 -0.27544,-0.1378307 -0.32135,-0.1378307 -0.13771,0 -0.27543,0.045944 -0.32134,0.1378307 l -0.18363,0.7810404 c -0.0918,0.4134919 -0.22953,0.4594355 -0.36725,0.505379 -0.18362,0.045944 -0.7345,0.091887 -1.469,0.091887 h -1.19357 c -0.45907,0 -0.45907,0 -0.45907,-0.3216048 V 2.6749357 c 0,-0.5513226 0,-0.5513226 0.41316,-0.5513226 h 1.05585 c 0.7345,0 1.28538,0 1.65263,0.091887 0.73451,0.1837741 0.96404,0.6891532 1.14766,1.5620807 v 0.045944 l 0.0459,0.045944 c 0.0459,0.045944 0.18362,0.091887 0.27544,0.091887 0.0918,0 0.27544,-0.091887 0.32134,-0.1837742 M 249.1801,7.1774037 c 0,-2.9863308 -1.97398,-6.20237944 -6.24327,-6.20237944 -3.67252,0 -6.4269,2.75661314 -6.4269,6.34021014 0,3.0322746 2.2035,6.1104926 6.4269,6.1104926 3.53479,0.04594 6.24327,-2.664726 6.24327,-6.2483233 z m -2.06579,0.5513226 c 0,3.6295407 -2.1576,4.9159597 -3.99386,4.9159597 -3.62661,0 -4.59064,-3.6754838 -4.59064,-5.8807743 0,-3.6754841 2.20351,-4.9619035 4.08567,-4.9619035 3.35117,0 4.49883,3.2160486 4.49883,5.9267181 z M 232.69969,37.775809 c 0,7.62663 5.64649,14.334388 15.05731,14.334388 8.17135,0 14.69006,-6.202379 14.69006,-14.793824 0,-7.442855 -4.91199,-14.518162 -14.69006,-14.518162 -8.67631,0.04594 -15.05731,6.523984 -15.05731,14.977598 z m 4.22339,-1.332363 c 0,-9.280597 5.6924,-12.266928 10.09942,-12.266928 8.07953,0 11.15526,7.534742 11.15526,14.518162 0,8.315783 -4.82017,12.129098 -9.91579,12.129098 -8.26316,0 -11.33889,-8.132009 -11.33889,-14.380332 z m -9.319,-34.5495507 c 0.0918,-0.091887 0.13772,-0.1837742 0.13772,-0.3216049 0,-0.1378306 -0.0918,-0.2756613 -0.18363,-0.3216048 h -0.0459 -0.0459 c -1.23947,0.091887 -1.97398,0.091887 -3.30526,0 h -0.0459 -0.0459 c -0.0918,0.045944 -0.18362,0.1378306 -0.18362,0.2756613 -0.0459,0.1378306 0,0.2756613 0.13772,0.3675484 l 0.0459,0.045943 0.36725,0.045944 c 0.32135,0.045944 0.55088,0.1378307 0.59679,0.1837742 -0.0459,0.2297177 -0.6886,1.3783065 -1.05585,2.1134034 l -0.0918,0.1378306 c -0.41316,0.8269839 -0.91813,1.6999114 -1.51491,2.7566131 -0.45907,-0.8269839 -0.91813,-1.745855 -1.3772,-2.664726 -0.18362,-0.3675484 -0.36725,-0.6891533 -0.50497,-1.0567017 -0.13772,-0.2756613 -0.50497,-1.1485887 -0.55088,-1.2864194 0,-0.045943 0.0918,-0.091887 0.64269,-0.1837742 l 0.27544,-0.045944 0.0459,-0.045943 c 0.0918,-0.091887 0.13772,-0.2756613 0.0918,-0.413492 -0.0459,-0.1378306 -0.0918,-0.2297177 -0.22953,-0.2297177 h -0.0459 -0.0459 c -0.41316,0.045944 -1.05585,0.045944 -1.88217,0.045944 -0.82631,0 -1.469,0 -2.01988,-0.045944 h -0.0459 -0.0459 c -0.0918,0.045944 -0.13772,0.1378306 -0.18363,0.2756613 -0.0459,0.1378306 0,0.2756613 0.0918,0.3675484 l 0.0459,0.045943 0.55088,0.091887 c 0.45906,0.091887 0.6886,0.1378307 1.28538,1.2864195 l 2.06579,4.0430325 c 0.50497,0.9648146 0.55088,1.1485888 0.55088,2.1134034 v 0.9188703 c 0,1.92963 -0.0459,2.021517 -0.91813,2.113404 l -0.59679,0.04594 -0.0459,0.04594 c -0.0918,0.09189 -0.13772,0.275661 -0.0918,0.367548 0,0.137831 0.0918,0.229718 0.18363,0.275662 h 0.0459 0.0459 c 0.96404,-0.04594 1.56082,-0.04594 2.29532,-0.04594 0.73451,0 1.33129,0 2.38714,0.04594 h 0.0459 0.0459 c 0.0918,-0.04594 0.13772,-0.137831 0.18363,-0.275662 0,-0.13783 0,-0.275661 -0.0918,-0.367548 l -0.0459,-0.04594 -0.73451,-0.04594 c -0.82631,-0.04594 -0.91812,-0.183774 -0.91812,-2.113404 V 9.4745813 c 0,-1.332363 0.0459,-1.4701937 0.82631,-2.8025567 l 1.10176,-1.9296291 c 0.0918,-0.1837742 0.18362,-0.3216049 0.27543,-0.5053791 0.6886,-1.1945323 1.19357,-2.0674598 1.92807,-2.2052905 l 0.59679,-0.1378306 z m -6.19737,21.5934697 c -0.7345,-0.183775 -2.98392,-0.64321 -5.37105,-0.64321 -6.381,0 -10.55848,1.975572 -13.40468,4.961903 -2.61667,2.802557 -3.81023,6.432097 -3.81023,10.015695 0,3.721427 1.33128,7.075306 3.90204,9.602202 3.25936,3.307935 7.85,4.686242 12.89971,4.686242 2.29532,0 5.32515,-0.505379 7.57456,-1.102645 0.78041,-0.229718 1.56082,-0.367549 2.06579,-0.367549 0.18363,-0.13783 0.18363,-0.367548 0.0459,-0.505379 -0.78041,-0.275661 -1.00994,-1.332363 -1.00994,-2.986331 v -2.389064 c 0,-2.159347 0.0459,-3.353879 1.83625,-3.537654 l 0.6886,-0.09189 c 0.27544,-0.275661 0.27544,-0.872927 -0.0459,-1.056701 -1.37719,0.09189 -2.8462,0.13783 -4.49883,0.13783 -2.47894,0 -4.82017,-0.04594 -6.05965,-0.13783 -0.27544,0.13783 -0.32134,0.872927 0,1.056701 l 1.88217,0.229718 c 2.61666,0.275661 2.75438,0.551323 2.75438,4.088976 v 1.699911 c 0,1.332364 -0.22953,2.113404 -0.41315,2.435009 -0.45907,0.735096 -2.01989,1.286419 -4.63655,1.286419 -8.49269,0 -12.67018,-6.386154 -12.67018,-14.518162 0,-6.34021 3.5807,-12.175041 11.79795,-12.175041 4.31521,0 7.48275,1.42425 8.67632,6.018605 0.27544,0.275661 1.00994,0.229718 1.14766,-0.137831 -0.36725,-2.526895 -0.64269,-4.732186 -0.64269,-6.156436 -0.59678,0.04594 -1.88216,-0.229717 -2.70848,-0.413491 z M 214.1994,1.0209678 V 0.9750243 0.9290808 c -0.0459,-0.13783066 -0.22953,-0.13783066 -0.32134,-0.13783066 -0.0459,0 -0.0918,0 -0.18363,0.0459435 h -0.0459 l -0.0459,0.0459436 c -0.22954,0.41349196 -0.32135,0.41349196 -1.23948,0.41349196 h -7.29912 c -0.78041,0 -1.14766,-0.045944 -1.19357,-0.41349196 V 0.8371936 0.79125005 c -0.0459,-0.0459436 -0.13772,-0.0918871 -0.22953,-0.0918871 -0.0459,0 -0.18362,0 -0.27544,0.0459435 l -0.0459,0.0459436 v 0.0459435 C 203.18187,1.5263468 202.95234,2.6749357 202.6769,3.455976 V 3.50192 l 0.0459,0.045943 c 0.0918,0.2297178 0.45907,0.321605 0.64269,0.1837744 h 0.0459 v -0.045944 c 0.18363,-0.4134921 0.36725,-0.7810405 0.78041,-1.1485888 0.36725,-0.3675484 1.28538,-0.4134919 2.06579,-0.4134919 h 0.96403 c 0.41316,0 0.41316,0 0.41316,0.4134919 v 7.9022904 c 0,1.929629 -0.0918,1.975573 -0.96403,2.06746 l -0.64269,0.04594 h -0.0459 c -0.0918,0.04594 -0.18363,0.183774 -0.13772,0.367549 0,0.13783 0.0459,0.275661 0.18363,0.321605 h 0.0459 0.0459 c 1.05585,-0.04594 1.74444,-0.04594 2.43304,-0.04594 0.6886,0 1.23947,0 2.29532,0.04594 h 0.0459 0.0459 c 0.13772,-0.09189 0.18363,-0.275662 0.18363,-0.321605 0,-0.137831 -0.0459,-0.275662 -0.13772,-0.321605 l -0.64269,-0.09189 c -0.87222,-0.09189 -0.91813,-0.183774 -0.91813,-2.06746 V 2.4911615 c 0,-0.1837742 0,-0.3675484 0.0459,-0.3675484 0.0459,-0.045944 0.22953,-0.045944 0.36725,-0.045944 h 1.23947 c 0.96404,0 1.60673,0.1378307 1.97398,0.413492 0.18363,0.1378306 0.32134,0.5513226 0.36725,1.1945323 v 0.045944 l 0.0459,0.045943 c 0.0459,0.091887 0.18362,0.1378307 0.32134,0.1378307 0.18363,0 0.32135,-0.091887 0.36725,-0.1837742 v -0.045944 -0.045944 c -0.22953,-0.505379 -0.13772,-1.9296291 0.0459,-2.6187824 z M 198.13215,10.393452 V 4.0991858 c 0,-1.9296292 0.0459,-2.0674599 0.96404,-2.1134034 l 0.45906,-0.045944 h 0.0459 c 0.0918,-0.045943 0.13772,-0.1837742 0.13772,-0.3216048 0,-0.045944 -0.0459,-0.2756613 -0.18363,-0.3216049 h -0.0459 -0.0459 c -0.82632,0.045944 -1.46901,0.045944 -2.15761,0.045944 -0.7345,0 -1.37719,0 -2.2035,-0.045944 h -0.0459 -0.0459 c -0.13772,0.091887 -0.18362,0.2756613 -0.18362,0.3216049 0,0.1378306 0.0459,0.2756613 0.13772,0.3216048 h 0.0459 l 0.45907,0.045944 c 0.91813,0.091887 0.96403,0.1837742 0.96403,2.1134034 v 6.2942662 c 0,1.883686 -0.0459,1.975573 -0.96403,2.113404 l -0.50497,0.04594 -0.0459,0.04594 c -0.0918,0.09189 -0.13772,0.275661 -0.0918,0.367548 0,0.137831 0.0918,0.229718 0.18362,0.275662 h 0.0459 0.0459 c 0.91812,-0.04594 1.469,-0.04594 2.2035,-0.04594 0.6886,0 1.28538,0 2.15761,0.04594 h 0.0459 0.0459 c 0.13772,-0.09189 0.18363,-0.275662 0.18363,-0.321605 0,-0.137831 -0.0459,-0.275662 -0.13772,-0.321605 l -0.50497,-0.09189 c -0.91813,-0.137831 -0.96404,-0.229718 -0.96404,-2.113404 z m -2.8921,40.016834 c -1.83626,-0.229718 -2.38714,-0.826984 -3.58071,-4.502468 l -5.78421,-16.999114 c -0.64269,-1.883686 -1.33128,-3.813315 -1.88216,-5.651057 -0.0918,-0.275662 -0.36725,-0.367549 -0.64269,-0.367549 -0.45906,0.551323 -1.19357,1.332363 -2.20351,1.608025 0.13772,0.689153 -0.13772,1.470193 -0.7345,2.98633 l -4.31521,11.439945 c -1.79035,4.732186 -2.98391,7.488799 -3.71842,9.418428 -0.59678,1.516137 -1.51491,1.975572 -2.52485,2.06746 l -1.37719,0.13783 c -0.27544,0.229718 -0.18363,0.872928 0.0918,1.056702 1.14766,-0.04594 2.66257,-0.137831 4.03977,-0.137831 1.97397,0.04594 3.30526,0.04594 4.40701,0.137831 0.36725,-0.183774 0.36725,-0.826984 0.0918,-1.056702 l -1.3772,-0.13783 c -1.00994,-0.09189 -1.23947,-0.321605 -1.23947,-0.826984 0,-0.459436 0.27544,-1.608025 0.91813,-3.49171 l 1.469,-4.456525 c 0.27544,-0.872927 0.55088,-1.010758 1.60673,-1.010758 h 6.38099 c 1.28538,0 1.4231,0.137831 1.74445,1.056702 l 1.88216,5.742944 c 0.32135,1.010758 0.55088,1.791798 0.55088,2.251234 0,0.413492 -0.59679,0.689153 -1.46901,0.78104 l -1.23947,0.137831 c -0.27544,0.229718 -0.27544,0.872927 0.0918,1.056702 1.23947,-0.04594 2.8462,-0.137831 4.86608,-0.137831 1.88217,0 3.39708,0.04594 5.09562,0.137831 0.22953,-0.183775 0.27543,-0.826984 0,-1.056702 z M 184.31431,38.878454 h -5.18742 c -1.19357,0 -1.23948,-0.04594 -0.87222,-1.010758 l 2.66257,-7.350968 c 0.45906,-1.28642 0.87222,-2.297178 1.00994,-2.480952 h 0.0918 c 0.27544,0.505379 0.64269,1.653968 0.96404,2.664726 l 2.29532,6.891533 c 0.36725,1.148589 0.27544,1.286419 -0.96404,1.286419 z m 1.74445,-35.2387038 c 0,-0.6891532 0.27544,-1.837742 1.97398,-1.837742 1.56081,0 2.01988,1.0107581 2.24941,1.8836856 l 0.0459,0.045944 c 0.0459,0.091887 0.13772,0.091887 0.27544,0.091887 0.13772,0 0.32134,-0.045944 0.41315,-0.1837742 v -0.045943 0.045943 c 0,-0.7350968 -0.13771,-1.7458549 -0.32134,-2.2052904 l -0.0459,-0.091887 h -0.0918 c -0.13772,0 -0.36725,-0.045944 -0.59678,-0.091887 -0.41316,-0.091887 -1.10176,-0.2297178 -1.65264,-0.2297178 -2.24941,0 -3.71842,1.2864195 -3.71842,3.1701051 0,1.6080243 1.23948,2.6647259 1.97398,3.170105 l 1.65263,1.1026453 c 1.23948,0.7810403 1.37719,1.6080252 1.37719,2.3431212 0,0.918871 -0.64269,1.883686 -2.06579,1.883686 -1.79035,0 -2.57076,-1.378307 -2.8921,-2.526895 v -0.04594 c -0.0459,-0.09189 -0.13772,-0.137831 -0.27544,-0.137831 -0.13772,0 -0.27544,0.045944 -0.36725,0.183775 l -0.0459,0.04594 v 0.04594 c 0.0459,0.78104 0.27544,2.113403 0.50497,2.526895 v 0.04594 h 0.0459 c 0.36725,0.183774 1.33129,0.689153 2.80029,0.689153 2.34123,0 3.90205,-1.378307 3.90205,-3.399823 0,-1.4242505 -0.7345,-2.5728393 -2.24942,-3.4917103 l -1.4231,-0.8729275 c -0.55087,-0.3675484 -1.469,-1.1026452 -1.469,-2.1134034 z m -4.45292,9.6481458 c 0.0918,-0.04594 0.13771,-0.183774 0.0918,-0.275661 0,-0.09189 -0.0918,-0.183774 -0.13772,-0.229718 h -0.0459 c -0.41316,-0.04594 -0.82631,-0.183774 -1.14766,-0.459435 -1.19357,-1.010759 -2.1576,-2.5268959 -3.53479,-4.6402992 -0.0918,-0.1378307 -0.0918,-0.2297178 -0.0918,-0.2297178 0.59679,-0.2297177 2.24942,-1.1026452 2.24942,-3.0322744 0,-1.4701936 -0.82632,-2.2052904 -1.51491,-2.5728389 -0.87223,-0.4594355 -2.01989,-0.5513226 -2.98392,-0.5513226 -1.60673,0 -2.8462,0.045944 -3.94795,0.1378307 h -0.0459 c -0.0918,0.045944 -0.18363,0.1837742 -0.18363,0.3216048 0,0.1378307 0.0459,0.2756613 0.13772,0.3675485 h 0.0459 l 0.59678,0.091887 c 0.59679,0.091887 0.64269,0.1837741 0.64269,1.9296291 v 6.3402098 c 0,1.883686 -0.0459,1.975573 -0.91813,2.06746 l -0.50497,0.04594 -0.0459,0.04594 c -0.0918,0.137831 -0.0918,0.275662 -0.0918,0.413492 0.0459,0.137831 0.0918,0.229718 0.18363,0.229718 h 0.0459 0.0459 c 0.78041,-0.04594 1.4231,-0.04594 2.20351,-0.04594 0.7345,0 1.33129,0 2.1117,0.04594 h 0.0459 0.0459 c 0.13772,-0.04594 0.18363,-0.229718 0.18363,-0.321605 0,-0.13783 -0.0459,-0.275661 -0.0918,-0.367548 l -0.0459,-0.04594 -0.41316,-0.04594 c -0.91813,-0.137831 -0.91813,-0.183774 -0.91813,-2.06746 V 8.2341054 c 0,-0.2297178 0,-0.2297178 0.6886,-0.2297178 0.68859,0 0.91813,0.1837742 1.14766,0.5053791 0.27544,0.3675484 0.59678,0.8729275 0.87222,1.3783066 0.32134,0.5053787 0.59678,0.9648147 0.82632,1.2864197 1.19356,1.745855 2.11169,2.297177 3.76432,2.297177 0.22953,-0.09189 0.50497,-0.13783 0.73451,-0.183774 z M 176.3266,6.7179682 c -0.50497,0.3675484 -1.19357,0.413492 -1.74445,0.413492 -0.78041,0 -1.05585,-0.045944 -1.10175,-0.045944 0,-0.091887 0,-0.2756613 0,-0.5053791 V 2.4452179 c 0,-0.413492 0,-0.413492 1.00994,-0.413492 1.97398,0 2.66257,1.3783066 2.66257,2.5728389 0,1.0107582 -0.27544,1.6539679 -0.82631,2.1134034 z m -9.13538,3.9511458 v 0 -0.09189 c -0.0918,-0.183775 -0.27544,-0.229718 -0.41316,-0.229718 -0.0918,0 -0.18363,0.04594 -0.22953,0.04594 l -0.0459,0.04594 c -0.50497,1.010758 -0.96403,1.516137 -1.19357,1.653968 -0.36725,0.183774 -0.91813,0.229718 -2.20351,0.229718 -1.469,0 -1.83625,-0.183775 -2.01988,-0.367549 -0.22953,-0.275661 -0.32134,-0.826984 -0.32134,-1.745855 V 7.7746699 c 0,-0.3216049 0,-0.3216049 0.45906,-0.3216049 h 1.00994 c 0.59679,0 1.05585,0 1.33129,0.091887 0.22953,0.045944 0.36725,0.2297178 0.45906,0.5513226 l 0.13772,0.6891533 0.0459,0.045944 c 0.0459,0.091887 0.18362,0.1378306 0.32134,0.1378306 0.18363,0 0.27544,-0.045943 0.36726,-0.1837742 v -0.045943 -0.045944 c 0,-0.1837742 0,-0.413492 -0.0459,-0.6432097 0,-0.3216049 -0.0459,-0.6891533 -0.0459,-1.0567017 0,-0.3675484 0,-0.7350968 0.0459,-1.0567017 0,-0.2756613 0.0459,-0.5053791 0.0459,-0.6891533 V 5.201831 5.1558874 c -0.0459,-0.091887 -0.18363,-0.1837742 -0.36726,-0.1837742 -0.13772,0 -0.27543,0.045944 -0.32134,0.1378307 l -0.18363,0.7810404 c -0.0918,0.4134919 -0.18362,0.4594355 -0.32134,0.505379 -0.18363,0.045944 -0.7345,0.091887 -1.46901,0.091887 h -1.00994 c -0.45906,0 -0.45906,0 -0.45906,-0.3675484 V 2.6749357 c 0,-0.5513226 0,-0.5513226 0.41315,-0.5513226 h 1.28538 c 0.73451,0 1.33129,0 1.69854,0.091887 0.78041,0.1837741 0.96404,0.6891532 1.19357,1.4701936 l 0.0459,0.091887 0.0459,0.045944 c 0.0459,0.091887 0.18363,0.091887 0.27544,0.091887 0.13772,0 0.27544,-0.045944 0.36725,-0.1378307 l 0.0459,-0.045943 -0.0459,-0.2756614 c -0.0918,-1.0107581 -0.18362,-1.8836856 -0.27544,-2.1593469 l -0.0459,-0.1378306 -0.13772,0.045943 c -0.18363,0.045944 -1.28538,0.045944 -2.34123,0.045944 h -3.30526 c -0.6886,0 -1.23948,0 -2.06579,-0.045944 h -0.0459 -0.0459 c -0.13771,0.091887 -0.18362,0.2756613 -0.18362,0.3216049 0,0.1378306 0.0459,0.2756613 0.13772,0.3216048 l 0.32134,0.045944 c 0.91813,0.091887 0.96404,0.2297178 0.96404,2.0674598 v 6.3402094 c 0,1.929629 -0.0918,1.975574 -0.96404,2.06746 l -0.64269,0.04594 -0.0459,0.04594 c -0.0918,0.09189 -0.13772,0.275661 -0.0918,0.367549 0,0.13783 0.0918,0.229718 0.18363,0.275661 h 0.0459 0.0459 c 1.00994,-0.04594 1.65263,-0.04594 2.38714,-0.04594 h 1.60672 c 1.51491,0 3.07573,0 4.72836,0.04594 h 0.0918 l 0.0459,-0.09189 c 0.18363,-0.321605 0.64269,-1.699912 0.73451,-2.343121 z M 155.11783,1.8938953 c 0.0918,-0.091887 0.0918,-0.2756613 0.0918,-0.3675484 0,-0.1378307 -0.0918,-0.2297178 -0.13772,-0.2756613 h -0.0459 -0.0459 c -0.59679,0.045944 -1.14766,0.045944 -1.69854,0.045944 -0.6886,0 -1.37719,0 -1.83626,-0.045944 h -0.0459 -0.0459 c -0.0918,0.045944 -0.18363,0.1837742 -0.18363,0.3216048 0,0.1378307 0.0459,0.2756613 0.13772,0.3675484 l 0.0459,0.045944 0.36725,0.045944 c 0.59678,0.091887 0.6886,0.1837743 0.6886,0.1837743 0,0.1378306 0,0.2756613 -0.13772,0.6432097 -0.32135,0.7810403 -1.14766,2.8025566 -1.65263,3.9511454 -0.13772,0.3216049 -0.27544,0.6891533 -0.45907,1.1026452 -0.32134,0.7810404 -0.7345,1.745855 -1.10175,2.5268956 -0.82632,-1.9296294 -1.60673,-3.8592586 -2.38714,-5.7888877 -0.50497,-1.2864195 -0.82631,-2.2052905 -0.87222,-2.4350082 0.0459,-0.045944 0.18363,-0.1378307 0.6886,-0.1837743 l 0.32134,-0.045944 0.0459,-0.045944 c 0.0918,-0.091887 0.13772,-0.2297177 0.13772,-0.3675484 0,-0.1378306 -0.0918,-0.2756613 -0.18363,-0.3216048 h -0.0459 -0.0459 c -0.78041,0.045944 -1.4231,0.045944 -2.1117,0.045944 -0.7345,0 -1.28538,0 -1.83625,-0.045944 h -0.0459 l -0.0459,0.045944 c -0.0918,0.045944 -0.18362,0.1837742 -0.18362,0.3216049 0,0.1378306 0.0459,0.2756613 0.13772,0.3216048 l 0.0459,0.045944 0.36725,0.045944 c 0.6886,0.091887 0.91813,0.413492 1.33129,1.3783066 l 3.02983,7.5806861 c 0.36725,0.91887 0.64269,1.699911 0.82631,2.343121 v 0.04594 l 0.0459,0.04594 c 0.0918,0.04594 0.22953,0.04594 0.32134,0.04594 0.0918,0 0.18363,-0.04594 0.27544,-0.09189 l 0.0459,-0.04594 v -0.04594 c 0.32134,-0.964814 1.14766,-3.032274 1.83626,-4.5943547 l 0.96403,-2.1593469 c 0.82632,-1.8377421 1.51491,-3.2619922 1.97398,-4.0430325 0.22953,-0.3675484 0.45906,-0.5053791 0.82631,-0.5513227 l 0.59679,-0.045943 z M 143.59531,26.473695 c -3.21345,2.480952 -5.32514,6.523985 -5.32514,11.210227 0,5.467282 2.61666,9.326541 6.01374,11.623718 3.07573,2.06746 6.70234,2.848501 10.51257,2.848501 2.70848,0 5.7383,-0.64321 6.70234,-0.964815 0.45906,-0.183774 0.96403,-0.321605 1.46901,-0.413492 0.64269,-0.826984 1.74444,-3.583597 2.01988,-5.788887 -0.18363,-0.275662 -0.82632,-0.367549 -1.10176,-0.183775 -0.96403,2.480952 -3.39707,6.064549 -8.85994,6.064549 -6.93187,0 -12.57836,-4.91596 -12.57836,-13.783065 0,-8.775219 5.50877,-12.864195 11.98158,-12.864195 6.15146,0 8.03362,3.307936 8.67631,6.20238 0.27544,0.275661 0.91813,0.229717 1.14767,-0.09189 -0.32135,-2.572839 -0.55088,-5.237565 -0.59679,-6.20238 -0.36725,0.04594 -0.68859,-0.04594 -1.19357,-0.183774 -1.97397,-0.551323 -5.18742,-1.010758 -7.48274,-1.010758 -4.36111,-0.09189 -8.30907,1.102645 -11.3848,3.537653 z M 138.17835,10.393452 V 4.0991858 c 0,-1.9296292 0.0459,-2.0674599 0.96404,-2.1134034 l 0.45906,-0.045944 h 0.0459 c 0.0918,-0.045943 0.13772,-0.1837742 0.13772,-0.3216048 0,-0.045944 -0.0459,-0.2756613 -0.18363,-0.3216049 h -0.0459 -0.0459 c -0.82632,0.045944 -1.46901,0.045944 -2.1576,0.045944 -0.78041,0 -1.3772,0 -2.20351,-0.045944 h -0.0459 -0.0459 c -0.13772,0.091887 -0.18363,0.2756613 -0.18363,0.3216049 0,0.1378306 0.0459,0.2756613 0.13772,0.3216048 h 0.0459 l 0.45906,0.045944 c 0.87222,0.091887 0.96404,0.2297178 0.96404,2.1134034 v 6.2942662 c 0,1.883686 -0.0459,1.975573 -0.96404,2.113404 l -0.50497,0.04594 -0.0459,0.04594 c -0.0918,0.09189 -0.13772,0.275661 -0.0918,0.367548 0,0.137831 0.0918,0.229718 0.18363,0.275662 h 0.0459 0.0459 c 0.91813,-0.04594 1.469,-0.04594 2.20351,-0.04594 0.68859,0 1.28538,0 2.1576,0.04594 h 0.0459 0.0459 c 0.13772,-0.09189 0.18363,-0.275662 0.18363,-0.321605 0,-0.137831 -0.0459,-0.275662 -0.13772,-0.321605 l -0.50497,-0.09189 c -0.91813,-0.137831 -0.96404,-0.229718 -0.96404,-2.113404 z M 129.36432,45.03489 V 29.965405 c 0,-4.502468 0.0918,-5.191621 2.57076,-5.421339 l 1.05585,-0.09189 c 0.27544,-0.183774 0.18362,-0.918871 -0.0918,-1.056702 -2.11169,0.09189 -3.53479,0.137831 -5.23333,0.137831 -1.79035,0 -3.21345,-0.04594 -5.32514,-0.137831 -0.27544,0.137831 -0.32135,0.872928 -0.0918,1.056702 l 1.05585,0.09189 c 2.47895,0.229718 2.57076,0.918871 2.57076,5.421339 V 45.03489 c 0,4.502468 -0.0918,5.099734 -2.57076,5.375396 l -1.05585,0.13783 c -0.27544,0.275662 -0.18362,0.918871 0.0918,1.056702 2.11169,-0.09189 3.53479,-0.137831 5.32514,-0.137831 1.69854,0 3.12164,0.04594 5.23333,0.137831 0.27544,-0.137831 0.32135,-0.872928 0.0918,-1.056702 l -1.05585,-0.13783 c -2.47895,-0.275662 -2.57076,-0.872928 -2.57076,-5.375396 z m 2.1576,-43.1409947 c 0.0918,-0.091887 0.13772,-0.2297178 0.0918,-0.3675484 0,-0.1378307 -0.0918,-0.2297178 -0.18362,-0.2756613 l -0.0459,-0.045944 h -0.0459 c -0.59678,0.045944 -1.05584,0.045944 -1.79035,0.045944 -0.64269,0 -1.19356,0 -2.06578,-0.045944 h -0.0459 -0.0459 c -0.0918,0.045944 -0.18362,0.1378307 -0.18362,0.2756613 -0.0459,0.1378307 0,0.3216049 0.13772,0.413492 l 0.0459,0.045943 0.32135,0.045944 c 0.59678,0.091887 0.91813,0.1837742 1.00994,0.2756613 0.22953,0.3216049 0.32134,1.6539679 0.32134,3.583597 v 3.7673712 c 0,0.1837742 0,0.3675485 0,0.5053786 -0.59678,-0.6432092 -1.23947,-1.3323625 -2.06578,-2.2512335 L 124.54414,5.1099439 C 122.7997,3.1343712 121.78976,1.8479517 121.56023,1.2966291 l -0.0459,-0.091887 h -0.0918 c -0.22953,0.045944 -0.50497,0.045944 -0.78041,0.045944 -0.32135,0 -1.23948,0 -1.97398,-0.045944 h -0.0459 -0.0459 c -0.0918,0.045944 -0.13772,0.1378307 -0.18363,0.2756613 -0.0459,0.1378307 0,0.3216049 0.0918,0.413492 l 0.0459,0.045943 0.36725,0.045944 c 0.45907,0.045944 0.82632,0.1837742 1.00994,0.3675484 0.32135,0.3675484 0.36726,0.6891533 0.36726,1.1945323 V 8.785428 c 0,0.8729275 0,2.8485 -0.22954,3.399823 -0.0459,0.09189 -0.18362,0.229718 -0.68859,0.275661 l -0.50497,0.04594 -0.0459,0.04594 c -0.0918,0.09189 -0.13772,0.183774 -0.0918,0.321605 0.0459,0.137831 0.0918,0.229718 0.13772,0.321605 l 0.0459,0.04594 h 0.0459 c 0.59678,-0.04594 1.10175,-0.04594 1.83626,-0.04594 0.59678,0 1.19356,0 2.06579,0.04594 h 0.0459 l 0.0459,-0.04594 c 0.0918,-0.04594 0.13772,-0.137831 0.13772,-0.275661 0,-0.137831 0,-0.275662 -0.0918,-0.367549 l -0.0459,-0.04594 -0.59678,-0.04594 c -0.41316,-0.04594 -0.73451,-0.13783 -0.78041,-0.275661 -0.18363,-0.321605 -0.32135,-1.653968 -0.32135,-3.5835972 V 4.7423955 c 0,-0.3216049 0,-0.6432097 0.0459,-0.8729275 0.27544,0.3216049 0.7345,0.8729275 1.14766,1.3783065 0.27544,0.3216049 0.55087,0.6432098 0.7345,0.8729275 l 4.08567,4.640299 c 1.3772,1.562081 2.01989,2.297177 2.24942,2.664726 l 0.0459,0.04594 h 0.0918 c 0.22953,0 0.41316,-0.09189 0.45906,-0.275661 v -0.04594 -0.04594 c -0.0459,-0.183774 -0.0459,-0.918871 -0.0459,-3.078218 V 5.5693794 c 0,-0.918871 0,-2.8025566 0.22953,-3.3538792 0,-0.045944 0.22953,-0.1837743 0.87222,-0.2756614 z m -15.79181,0 c 0.0918,-0.091887 0.13772,-0.2297178 0.0918,-0.3675484 0,-0.091887 -0.0918,-0.1837742 -0.18362,-0.2756613 h -0.0459 -0.0459 c -0.59678,0.045944 -1.10175,0.045944 -1.83625,0.045944 -0.6886,0 -1.33129,0 -2.01989,-0.045944 h -0.0459 l -0.0459,0.045944 c -0.0918,0.045944 -0.13772,0.1378307 -0.13772,0.2756613 0,0.1378307 0,0.2756613 0.0918,0.3675484 l 0.0459,0.045944 0.50497,0.045944 c 0.41316,0.045944 0.6886,0.1378307 0.78041,0.3216049 0.18363,0.3675484 0.32135,1.6539679 0.32135,3.583597 v 2.0215163 c 0,2.0674595 -0.59679,4.5484115 -3.39708,4.5484115 -2.34123,0 -3.44298,-1.470194 -3.44298,-4.5943551 V 4.0991858 c 0,-1.8836856 0.0459,-2.0215163 0.91813,-2.0674599 l 0.45906,-0.045944 h 0.0459 c 0.0918,-0.045944 0.13772,-0.1837742 0.13772,-0.3216049 0,-0.1378306 -0.0459,-0.2756613 -0.18363,-0.3216048 h -0.0459 -0.0459 c -0.82632,0.045943 -1.4231,0.045943 -2.1576,0.045943 -0.73451,0 -1.33129,0 -2.15761,-0.045943 h -0.0459 -0.0459 c -0.13772,0.045943 -0.18363,0.2297177 -0.18363,0.3216048 0,0.1378307 0.0459,0.2756613 0.13772,0.3216049 h 0.0459 l 0.45906,0.045944 c 0.87223,0.091887 0.91813,0.2297178 0.91813,2.0674599 v 4.1808631 c 0,2.1134031 0.45907,3.4457661 1.4231,4.2727501 0.78041,0.64321 1.92807,1.010758 3.39708,1.010758 1.37719,0 2.70848,-0.505379 3.44298,-1.332363 0.87222,-0.918871 1.28538,-2.3431207 1.28538,-4.3186935 V 5.9369278 c 0,-0.8729275 0,-2.9863308 0.22953,-3.5376535 0.0918,-0.1837741 0.36725,-0.3216048 0.78041,-0.3675484 z M 95.485374,24.452179 c 0.275438,-0.183774 0.183626,-0.918871 -0.09181,-1.056702 -1.836257,0.09189 -3.259357,0.137831 -4.911988,0.137831 -1.836257,0 -3.259356,-0.09189 -5.325146,-0.137831 -0.275438,0.137831 -0.321345,0.872928 -0.09181,1.056702 l 1.101755,0.09189 c 2.203508,0.183774 2.478947,0.872928 2.478947,5.329452 V 45.12678 c 0,4.456525 -0.09181,4.870017 -2.433041,5.283509 l -0.734503,0.13783 c -0.275438,0.275662 -0.183626,0.918871 0.09181,1.056702 1.652632,-0.04594 3.075731,-0.137831 4.911988,-0.137831 1.652631,0 3.075731,0.04594 5.371052,0.137831 0.275439,-0.137831 0.321345,-0.872928 0.09181,-1.056702 l -1.239473,-0.13783 C 92.31783,50.134624 92.134204,49.583302 92.134204,45.126777 v -5.972661 c 0,-1.28642 0.09181,-1.332363 2.111696,-1.332363 h 12.07339 c 2.01988,0 2.1117,0.09189 2.1117,1.332363 v 5.972661 c 0,4.456525 0,4.870017 -2.57076,5.283509 l -0.82632,0.13783 c -0.27544,0.275662 -0.18362,0.918871 0.0918,1.056702 1.88217,-0.09189 3.39708,-0.137831 5.09562,-0.137831 1.65263,0 3.07573,0.04594 5.09561,0.137831 0.27544,-0.137831 0.32135,-0.872928 0.0918,-1.056702 l -1.00994,-0.13783 c -2.43304,-0.275662 -2.52485,-0.826984 -2.52485,-5.283509 V 29.873518 c 0,-4.456524 0.0918,-5.099734 2.52485,-5.329452 l 0.87223,-0.09189 c 0.27543,-0.183774 0.18362,-0.918871 -0.0918,-1.056702 -1.88216,0.09189 -3.35117,0.137831 -5.0038,0.137831 -1.74444,0 -3.16754,-0.04594 -5.09561,-0.137831 -0.27544,0.137831 -0.32135,0.872928 -0.0918,1.056702 l 0.82631,0.09189 c 2.47895,0.275661 2.57076,0.872928 2.57076,5.329452 v 4.870017 c 0,1.332363 -0.0918,1.332363 -2.11169,1.332363 H 94.199994 c -2.019883,0 -2.111696,-0.04594 -2.111696,-1.332363 v -4.870017 c 0,-4.456524 0.09181,-5.099734 2.524854,-5.329452 z M 93.786836,10.669114 v 0 -0.09189 c -0.09181,-0.183775 -0.275439,-0.229718 -0.413158,-0.229718 -0.09181,0 -0.183626,0.04594 -0.229532,0.04594 l -0.04591,0.04594 c -0.504971,1.010758 -0.964036,1.516137 -1.193568,1.653968 -0.367251,0.183774 -0.918128,0.229718 -2.203508,0.229718 -1.469006,0 -1.836257,-0.183775 -2.019883,-0.367549 -0.229532,-0.275661 -0.275439,-0.826984 -0.275439,-1.745855 V 7.7746699 c 0,-0.3216049 0,-0.3216049 0.459065,-0.3216049 h 1.009941 c 0.596784,0 1.055848,0 1.331286,0.091887 0.229533,0.045944 0.367252,0.2297178 0.459065,0.5513226 l 0.137719,0.6891533 0.04591,0.045944 c 0.04591,0.091887 0.183625,0.1378306 0.321344,0.1378306 0.183626,0 0.275439,-0.045943 0.367252,-0.1837742 v -0.045943 -0.045944 c 0,-0.1837742 0,-0.413492 -0.04591,-0.6432097 0,-0.3216049 -0.04591,-0.6891533 -0.04591,-1.0567017 0,-0.3675484 0,-0.7350968 0.04591,-1.0567017 0,-0.2756613 0.04591,-0.5053791 0.04591,-0.6891533 V 5.201831 5.1558874 c -0.04591,-0.091887 -0.183626,-0.1837742 -0.367252,-0.1837742 -0.137719,0 -0.275438,0.045944 -0.321344,0.1378307 l -0.183626,0.7810404 c -0.09181,0.4134919 -0.183626,0.4594355 -0.321345,0.505379 -0.183626,0.045944 -0.734503,0.091887 -1.469006,0.091887 h -1.009941 c -0.459065,0 -0.459065,0 -0.459065,-0.3675484 V 2.6749357 c 0,-0.5513226 0,-0.5513226 0.413158,-0.5513226 h 1.28538 c 0.734503,0 1.331287,0 1.698538,0.091887 0.826316,0.1837741 0.964035,0.6891532 1.193567,1.4701936 l 0.04591,0.091887 0.04591,0.045944 c 0.04591,0.091887 0.183626,0.091887 0.275439,0.091887 0.137719,0 0.275438,-0.045944 0.367251,-0.1378307 l 0.04591,-0.045943 -0.04591,-0.2756614 C 92.639175,2.4452179 92.547362,1.5722904 92.45555,1.2966291 l -0.13772,-0.091887 -0.137719,0.045944 c -0.183626,0.045944 -1.28538,0.045944 -2.341228,0.045944 H 86.53362 c -0.688596,0 -1.239474,0 -2.065789,-0.045944 h -0.04591 -0.04591 c -0.137719,0.091887 -0.183626,0.2756613 -0.183626,0.3216048 0,0.1378307 0.04591,0.2756613 0.137719,0.3216049 l 0.321345,0.045943 c 0.918129,0.091887 0.964036,0.2297178 0.964036,2.0674599 v 6.3402103 c 0,1.929629 -0.09181,1.975573 -0.964036,2.06746 l -0.64269,0.04594 -0.04591,0.04594 c -0.09181,0.09189 -0.137719,0.275661 -0.09181,0.367548 0,0.137831 0.09181,0.229718 0.183626,0.275661 h 0.04591 0.04591 c 1.009941,-0.04594 1.652631,-0.04594 2.387134,-0.04594 h 1.606725 c 1.514912,0 3.075731,0 4.728362,0.04594 h 0.09181 l 0.04591,-0.09189 c 0.183625,-0.367548 0.64269,-1.745855 0.780409,-2.389064 z M 79.050872,10.393452 V 4.0532422 c 0,-1.8836856 0.04591,-1.9755727 0.918129,-2.0674598 l 0.367251,-0.045944 0.04591,-0.045943 c 0.09181,-0.045944 0.137719,-0.1837742 0.137719,-0.3216049 0,-0.045943 -0.04591,-0.2756613 -0.183626,-0.3216048 h -0.04591 -0.04591 c -0.872222,0.045944 -1.423099,0.045944 -2.065789,0.045944 -0.78041,0 -1.377193,0 -2.111696,-0.045944 h -0.04591 -0.04591 c -0.137719,0.091887 -0.183625,0.2756613 -0.183625,0.3216048 0,0.1378307 0.04591,0.2756613 0.137719,0.3216049 l 0.413158,0.045943 c 0.918128,0.091887 0.964035,0.2297178 0.964035,2.0674599 v 2.0215162 c 0,0.413492 0,0.413492 -0.734503,0.413492 h -5.049708 c -0.734502,0 -0.734502,0 -0.734502,-0.413492 V 4.0072987 c 0,-1.8836856 0.04591,-1.9755728 0.918128,-2.0674599 l 0.321345,-0.045943 0.04591,-0.045944 c 0.09181,-0.045944 0.137719,-0.1837742 0.137719,-0.3216048 0,-0.045944 -0.04591,-0.2756613 -0.183626,-0.3216049 h -0.04591 -0.04591 c -0.780409,0.045944 -1.377193,0.045944 -2.019883,0.045944 -0.459064,0 -0.872222,0 -1.28538,-0.045944 -0.275438,0 -0.596783,0 -0.918128,-0.045943 h -0.04591 -0.04591 c -0.09181,0.1378306 -0.09181,0.3675484 -0.09181,0.4134919 0,0.1378307 0.04591,0.2756613 0.137719,0.3216049 h 0.04591 l 0.504971,0.045943 c 0.780409,0.045944 0.918128,0.2297178 0.918128,2.0674599 v 6.3402102 c 0,1.837742 -0.04591,1.929629 -0.918128,2.06746 l -0.321345,0.04594 -0.04591,0.04594 c -0.09181,0.09189 -0.137719,0.275661 -0.09181,0.367548 0,0.137831 0.09181,0.229718 0.183626,0.275661 h 0.04591 0.04591 c 0.229532,0 0.459064,0 0.688596,0 0.413158,0 0.826316,-0.04594 1.331287,-0.04594 0.64269,0 1.239473,0 2.249415,0.04594 h 0.04591 0.04591 c 0.137719,-0.04594 0.183625,-0.229717 0.183625,-0.321604 0,-0.137831 -0.04591,-0.275662 -0.137719,-0.321605 l -0.550877,-0.09189 c -0.826316,-0.09189 -0.964035,-0.183775 -0.964035,-2.06746 V 7.866557 c 0,-0.413492 0,-0.413492 0.734503,-0.413492 h 5.049707 c 0.734503,0 0.734503,0 0.734503,0.413492 v 2.480952 c 0,1.883685 0,1.929629 -0.964035,2.06746 l -0.367252,0.04594 -0.04591,0.04594 c -0.09181,0.09189 -0.137719,0.275661 -0.09181,0.367548 0,0.137831 0.09181,0.229718 0.183626,0.275661 h 0.04591 0.04591 c 0.826316,-0.04594 1.469005,-0.04594 2.111696,-0.04594 0.688596,0 1.28538,0 2.111695,0.04594 h 0.04591 0.04591 c 0.137719,-0.09189 0.183626,-0.275661 0.183626,-0.321604 0,-0.137831 -0.04591,-0.275662 -0.137719,-0.321605 l -0.459065,-0.09189 c -1.055848,-0.04594 -1.101754,-0.137831 -1.101754,-2.021517 z M 64.54444,1.0209678 V 0.9750243 L 64.49853,0.9290808 C 64.45262,0.79125014 64.223091,0.79125014 64.177185,0.79125014 c -0.04591,0 -0.09181,0 -0.183626,0.0459435 h -0.04591 l -0.04591,0.0459436 C 63.672218,1.2966291 63.580405,1.2966291 62.662277,1.2966291 h -7.299123 c -0.780409,0 -1.147661,-0.045944 -1.193567,-0.41349194 V 0.8371936 L 54.123677,0.7912501 C 54.077767,0.7453065 53.985957,0.699363 53.894144,0.699363 c -0.04591,0 -0.183625,0 -0.275438,0.0459435 l -0.04591,0.0459436 V 0.8371936 C 53.435077,1.5263469 53.205545,2.6749357 52.930106,3.455976 V 3.50192 l 0.04591,0.045943 c 0.09181,0.2297178 0.459064,0.3216049 0.64269,0.1837743 h 0.04591 v -0.045944 c 0.183626,-0.413492 0.367252,-0.7810404 0.78041,-1.1945323 0.367251,-0.3675484 1.28538,-0.413492 2.065789,-0.413492 h 0.964035 c 0.413158,0 0.413158,0 0.413158,0.413492 v 7.902291 c 0,1.92963 -0.09181,1.975573 -0.964035,2.06746 l -0.64269,0.04594 h -0.04591 c -0.09181,0.04594 -0.183625,0.183774 -0.137719,0.367548 0,0.137831 0.04591,0.275661 0.183626,0.321605 h 0.04591 0.04591 c 1.101754,-0.04594 1.744444,-0.04594 2.43304,-0.04594 0.688597,0 1.239474,0 2.295322,0.04594 h 0.04591 0.04591 c 0.137719,-0.04594 0.183626,-0.229718 0.183626,-0.321605 0,-0.137831 -0.04591,-0.275661 -0.13772,-0.321605 l -0.64269,-0.09189 C 59.724276,12.369015 59.67837,12.277131 59.67837,10.393445 V 2.4911615 c 0,-0.1837742 0,-0.3675484 0.04591,-0.3675484 0.04591,-0.045944 0.229532,-0.045944 0.367251,-0.045944 h 1.239474 c 0.964035,0 1.606725,0.1378307 1.973977,0.413492 0.183625,0.1378306 0.321345,0.5513226 0.367251,1.1945323 v 0.045944 l 0.04591,0.045943 c 0.04591,0.091887 0.183625,0.1378307 0.321344,0.1378307 0.183626,0 0.321346,-0.091887 0.367252,-0.1837742 V 3.6856938 3.6397502 C 64.223095,3.1343712 64.360815,1.7101211 64.54444,1.0209678 Z M 52.562862,37.683922 c 0,5.467282 2.616667,9.326541 6.013742,11.623718 3.075731,2.06746 6.702339,2.848501 10.512573,2.848501 2.708479,0 5.738303,-0.64321 6.702339,-0.964815 0.459064,-0.183774 0.964034,-0.321605 1.469005,-0.413492 0.64269,-0.826984 1.744445,-3.583597 2.019883,-5.788887 -0.183626,-0.275662 -0.826316,-0.367549 -1.101754,-0.183775 -0.964035,2.480952 -3.397076,6.064549 -8.859941,6.064549 -6.931871,0 -12.578362,-4.91596 -12.578362,-13.783065 0,-8.775219 5.508772,-12.864195 11.981578,-12.864195 6.151462,0 8.033625,3.307936 8.676315,6.20238 0.275439,0.275661 0.918129,0.229717 1.147661,-0.09189 -0.321345,-2.572839 -0.550877,-5.237565 -0.596783,-6.20238 -0.367252,0.04594 -0.688597,-0.04594 -1.193568,-0.183774 -1.973976,-0.551323 -5.187426,-1.010758 -7.482748,-1.010758 -4.407017,0 -8.309063,1.194532 -11.430701,3.583597 -3.167543,2.435008 -5.279239,6.478041 -5.279239,11.164283 z M 41.545319,30.516728 V 1.0209678 C 17.857601,-1.2762098 0,1.0209678 0,1.0209678 c 0,0 0,29.4957602 0,29.4957602 1.8821636,19.985445 20.611987,22.328566 20.749706,22.282622 3.397076,-0.551322 19.051169,-3.721427 20.795613,-22.282622 z M 6.7023387,37.867696 c 0.3672515,0.275661 0.8263158,0.367548 1.2394736,0.551323 0.5049708,1.332363 0,2.618782 -0.2754385,2.067459 C 7.161403,39.567607 6.9318709,38.786567 6.7023387,37.867696 Z m 0,-14.472219 v 0 c -0.045906,-0.04594 -2.6625729,1.608025 -4.3611108,0.826984 1.2394736,-0.689153 5.6005844,-3.445766 6.7941516,-4.226806 0.5508772,0.13783 0.7804093,-0.09189 0.9640355,-0.183775 -0.4590648,0.04594 -1.9739769,0.275662 -1.1935676,-1.102645 0.2754386,1.194532 2.3871346,0.09189 3.1675436,-0.09189 2.111696,-0.505379 2.111696,1.791798 1.92807,2.71067 -0.04591,0.367548 0.64269,0.597266 1.009942,0.551322 -0.596784,1.470194 -1.652632,0.09189 -1.744445,0.64321 -0.04591,0.229718 -0.734503,0.413492 -0.734503,0.964815 0,0.78104 0.321345,0.367548 0.321345,0.964814 0.04591,0.597266 -0.229532,0.137831 -0.183625,0.78104 0.09181,1.010759 1.79035,-0.13783 2.478947,0.137831 0.367251,0.137831 0.596783,0.459436 0.918128,0.367548 0.09181,-0.09189 0.04591,-0.459435 0.04591,-0.597266 -0.04591,-0.321605 -0.64269,-0.367548 -0.918129,-0.78104 -0.229532,-0.367549 0.275439,-1.516137 0.550877,-1.883686 0.413158,1.883686 2.157603,1.28642 2.433041,3.307936 0.183626,0.551323 -0.596783,1.194532 0,2.113403 -0.459064,0.459436 -1.009941,2.618783 -0.04591,3.629541 -0.183626,0.459435 -0.367252,1.516137 0.50497,2.159347 -0.275438,0.64321 -0.229532,1.378306 0,2.159347 -0.550877,0 -0.413157,-3.032275 -3.672514,-3.170105 -0.09181,-0.04594 -0.09181,0.367548 0,0.505379 0.413158,0.689153 0.918129,0.64321 0.780409,2.251234 -0.04591,0.551322 -0.367251,-0.09189 -0.550877,-0.229718 -0.413158,-0.367548 -0.688596,-0.413492 -0.872222,-1.516137 -1.331286,1.056702 -1.193567,2.297177 -1.101754,2.940387 0,0 -0.275439,-0.78104 -0.64269,-1.608024 0,-0.04594 1.331286,-1.699911 1.560818,-2.06746 2.754386,-4.961904 -1.79035,1.608024 -1.79035,1.562081 -0.229532,-0.551323 -0.459065,-1.056702 -0.596784,-1.194532 0.04591,-0.04594 0.780409,-0.918872 1.147661,-1.608025 2.111696,-4.410581 -1.28538,1.470194 -1.377193,1.378307 -0.275439,-0.229718 -0.459064,-0.505379 -0.64269,-0.413492 -0.04591,0.689153 -0.183626,0.597266 -0.137719,1.286419 -0.367252,0.459436 -1.1017548,1.240476 -1.6526319,1.608024 0,0 -0.1377193,-1.240475 -0.091813,-1.286419 0.2754386,-0.321605 1.3312869,-1.470194 1.5149119,-1.791798 3.488889,-5.467283 -1.6526312,1.332363 -1.6526312,1.240475 -0.045906,-0.229717 -0.321345,-0.597266 -0.5967835,-0.872927 0,0 1.1476607,-1.562081 1.4230993,-2.113403 2.1116954,-4.364638 -1.6985379,1.929629 -1.7444444,1.929629 -0.091813,-0.09189 -0.1377192,-0.09189 -0.2295321,-0.137831 -0.091813,-0.04594 0.1377193,-1.240476 0.2754386,-1.975573 0.2754386,-1.470193 -0.5049708,-0.275661 -0.6885965,2.021517 -0.1836257,0.04594 -0.6885964,0.09189 -0.8722221,0.229717 0.1377193,0.597267 0.2754385,0.137831 0.5049707,0.735097 0.321345,0.689153 -0.4131579,1.883686 0.2295321,2.71067 0.2295322,0.321605 0.2754386,0.275661 0.2295322,0.505379 -0.4131579,-0.04594 -0.64269,-0.04594 -0.9181286,0.275661 -0.5049707,-2.20529 -0.4590643,-3.261992 -0.3672514,-5.513226 0.045906,-1.010758 0.3672514,-2.572839 0.2295321,-2.572839 -0.091813,-0.04594 -2.4330408,5.926718 -2.9839179,7.075307 -0.964035,-0.321605 0.5967836,-5.467283 2.6166665,-7.948234 0.1836257,-0.781041 -1.0558479,0.78104 -1.7903508,1.42425 -0.6885964,0.597266 -1.5608186,1.332363 -2.4789472,1.056701 1.1935672,-1.286419 3.947953,-3.675484 4.269298,-4.27275 0.2754385,-0.505379 -1.8821637,1.608024 -4.1315787,0.826984 1.4690057,-0.735097 4.8660815,-2.480952 4.8660815,-3.721428 z m 4.0856723,11.210227 c 0,0.551323 -0.04591,0.964814 0.137719,1.516137 0.275439,0.826984 0.13772,0.597266 -0.229532,0.275661 -0.275438,-0.321604 -0.550877,-0.551322 -0.688596,-0.918871 0,-0.275661 0.183625,-0.275661 0.780409,-0.872927 z m 5.462865,-13.415517 c -0.321345,-0.551323 0.413158,-1.102645 0.413158,-1.102645 0,1.56208 2.019883,0.505379 3.075731,1.010758 0.275438,0.137831 0.413158,0.321605 0.550877,0.597266 -1.193567,-0.826984 -3.305263,0.78104 -4.039766,-0.505379 z M 4.3611108,8.5097667 c -1.7903507,0 -1.7444443,-2.7106695 0,-2.7106695 1.7903508,0 1.7903508,2.7106695 0,2.7106695 z m 0,5.4213393 c -1.8362572,0 -1.8362572,-2.71067 0,-2.71067 1.7903508,0 1.7903508,2.71067 0,2.71067 z M 6.197368,6.534194 H 7.7581866 V 8.0962747 H 6.197368 Z m 0,5.421339 h 1.5608186 v 1.562081 H 6.197368 Z m 14.2769,4.226807 c 0,0 -1.652632,-0.872928 -3.580702,-1.010758 -1.882163,-0.137831 -5.646491,1.378306 -8.5385958,1.194532 V 3.5478631 c 0,0 3.3052628,0.4594356 4.6824558,-0.091887 4.636549,-1.7917985 7.482748,0.2297178 7.482748,0.2297178 V 16.18234 Z m 3.21345,2.06746 c 0.09181,0.459435 -0.367252,0.597266 -0.367252,0.597266 0.688597,0.183774 1.009942,-0.229718 1.147661,-0.505379 0.275439,1.102645 -0.872222,1.148588 -1.193567,1.240476 0,0 0.550877,0.183774 0.596783,0.551322 0.09181,0.918871 0.688597,0.872928 0.826316,0.781041 0,0.09189 -0.229532,0.689153 -0.872222,0.183774 -0.137719,0.09189 0.183626,0.275661 0.229532,0.735097 0.09181,0.597266 0.04591,1.148588 0.734503,1.470193 -0.413158,0.321605 -0.918129,-0.551322 -0.964035,-0.413492 -0.04591,0.137831 0.596784,0.413492 -0.09181,2.06746 -0.321345,-0.183774 -0.137719,-0.137831 -0.504971,-0.597266 -0.275438,-0.229718 -0.367251,-0.275661 -0.137719,0.09189 0.413158,0.505379 0.504971,1.653968 0.367252,1.975573 -0.321345,-0.137831 -0.229533,-0.413492 -0.64269,-0.781041 -0.04591,0.137831 0.137719,0.918871 0.550877,1.28642 0.688596,0.64321 0.964035,1.42425 0.964035,1.562081 0.04591,0.597266 -0.13772,1.332363 -0.183626,2.113403 -0.321345,-0.04594 -0.64269,-1.010758 -0.688596,-0.964815 -0.09181,0.04594 0.04591,0.964815 0.688596,1.562081 0.321345,0.918871 0.183626,1.378307 0.09181,1.42425 -0.09181,0.04594 -0.459064,-0.918871 -0.64269,-0.735097 0.918128,2.297178 0.275438,3.124162 0.04591,3.859259 -0.183625,-0.735097 -0.275438,-1.28642 -0.50497,-2.113404 -0.504971,0.367549 -0.596784,0.964815 -1.239474,1.516138 0,-0.964815 -0.550877,-3.216049 -0.964035,-3.767372 0,-0.04594 -0.780409,2.021517 -1.147661,2.986331 -0.459064,1.194532 -0.504971,2.664726 0,3.859258 -1.101754,-1.608024 -1.239473,-4.594355 -0.275438,-4.961903 0.09181,-0.229718 -0.04591,-0.918871 -0.275439,-0.826984 -0.04591,0.321605 0,0.64321 -0.321345,0.964815 -0.734503,-0.229718 -0.413158,-1.148589 -0.321345,-1.424251 0.964035,-1.148588 0.367251,-1.42425 0.321345,-1.378306 -0.09181,0.275661 -0.183626,0.597266 -0.504971,0.689153 -0.596783,-1.056702 -0.229532,-2.756613 0.964035,-3.997089 0.04591,-0.459435 -0.50497,0.367549 -0.918128,0.321605 -0.09181,-0.918871 0.229532,-2.435008 1.882163,-2.526895 -0.321345,-0.09189 -0.50497,-0.137831 -0.550877,-0.413492 0.504971,-0.09189 2.06579,-0.183774 1.836257,-1.42425 -0.137719,0.13783 -0.183625,0.367548 -0.596783,0.643209 -0.275439,0.183775 -0.596784,0.183775 -0.734503,-0.04594 0.734503,-0.229718 0.504971,-1.148589 -0.459064,-0.872928 -0.275439,0.09189 -0.734503,-0.229717 -0.734503,-0.551322 0.229532,0.229718 0.64269,0.04594 0.872222,-0.09189 1.055848,-0.689154 1.744444,0.321605 1.882164,0.551322 0.04591,0 0.459064,-1.010758 -1.055848,-1.286419 -0.13772,-0.367548 -0.459065,-0.964815 -1.514913,-0.918871 -0.321345,-1.194533 -1.377192,-0.597266 -1.331286,-0.04594 -1.101754,-0.826984 0,-1.837742 0.459064,-1.975572 0.321345,0.04594 0.229532,1.010758 0.78041,0.826983 0.137719,-0.04594 -0.413158,-0.689153 -0.229533,-0.964814 0.504971,-0.275661 0.504971,0.367548 0.734503,0.137831 0.13772,-0.413492 0.596784,-0.64321 1.009942,-0.689154 1.055848,-0.367548 1.92807,0.872928 2.983918,0.275662 z m 10.053508,-1.883686 c -2.433041,0.137831 -7.436842,-1.240476 -8.722222,-1.240476 -2.662573,0 -3.902046,1.010758 -3.902046,1.010758 0,0 0,-11.9912667 0,-12.4507022 0,0 3.488888,-1.6080243 6.013742,-0.6891533 3.075731,1.1485888 6.656432,0.6432097 6.656432,0.6432097 l -0.04591,12.7263638 z m 3.21345,-4.91596 c 1.331286,-0.183774 1.560819,1.378307 1.560819,1.378307 v 0 c -0.321345,-0.275662 -1.009942,-0.367549 -1.4231,-0.09189 -1.514912,0.964815 -2.846198,0.964815 -2.846198,0.964815 V 11.26638 c -0.04591,0.04594 0.229532,0.551322 2.708479,0.183774 z m 1.606725,-3.3079357 c 0,-0.091887 -0.04591,-0.1837742 -0.04591,-0.3216049 C 38.469588,7.5908957 37.780992,7.453065 37.321927,7.6368392 36.633331,7.9584441 34.934793,8.9232587 34.292103,8.7394845 V 6.3044762 c 1.560819,0.6891533 2.157602,0.045944 2.662573,0.045944 1.514912,0 1.606725,1.4242501 1.606725,1.4242501 -0.04591,0.1837742 -0.04591,0.2756613 0,0.367548 z M 36.816957,33.181454 c -0.459065,0.137831 -1.652632,0.597266 -1.92807,1.056701 0.137719,-2.572838 -0.688597,-5.099734 -0.964035,-5.697 -0.504971,-1.194532 0.229532,2.756613 0.275438,3.675484 0,0.04594 -4.269298,-5.513226 -1.698538,-1.240476 0.688597,1.102646 1.698538,1.837742 1.698538,1.837742 0,0.781041 -0.04591,1.332363 -0.183626,1.745855 -0.275438,0.229718 -5.830116,-7.396911 -2.754385,-2.113403 0.367251,0.64321 2.616666,2.618782 2.57076,2.664726 -0.13772,0.321605 -0.413158,0.735097 -0.734503,1.056702 -0.04591,-0.04594 -1.28538,-0.964815 -1.28538,-1.010758 -0.09181,-0.597267 -0.09181,-1.148589 -0.826316,-0.735097 0,0 -2.754386,-3.170105 -1.469006,-0.964815 0.550877,0.964815 0.918129,1.102645 1.055848,1.240476 0,0 -0.413158,0.597266 -0.550877,1.194532 -0.04591,0.229718 -2.387134,-2.572838 -1.469006,-0.78104 0.275439,0.551323 1.331287,1.194532 1.331287,1.240476 -0.09181,0.367548 -0.229532,0.735097 -0.321345,0.964814 -0.13772,0.275662 -2.203509,1.92963 -2.157602,1.92963 0,0 0.413157,-1.28642 1.28538,-1.92963 0.50497,-0.367548 0.50497,-0.275661 0.826315,-0.505379 0,-0.183774 -0.183625,-0.505379 -0.413158,-0.597266 -0.275438,-0.09189 -1.239473,0.09189 -1.239473,0.09189 0.09181,-0.459435 -0.321345,-1.516137 -0.321345,-2.664726 -0.367252,0.04594 -1.009942,0.597266 -1.147661,0.918871 -0.09181,1.883686 -0.504971,1.332363 -0.918129,2.71067 -0.413157,-0.551323 0.04591,-1.378307 -0.367251,-1.929629 -0.550877,-0.735097 -0.64269,-1.240476 -0.734503,-2.159347 0.137719,-0.09189 0.688597,-0.689153 0.183626,-2.06746 -0.09181,-2.113403 0.872222,-2.894444 -0.826316,-4.364637 0.137719,-0.04594 0.229532,-1.102646 0.229532,-1.102646 1.239474,0.64321 1.009942,-0.78104 1.469006,-1.056701 0.780409,-0.459436 0.64269,-0.918871 0.275439,-1.470194 2.203508,0.64321 -0.09181,2.113403 0.872222,2.159347 0.734503,0 1.193567,-0.137831 1.514912,-0.64321 0.321345,-0.505379 -0.04591,-0.826984 0.872222,-1.653968 0.09181,-0.09189 0.321345,-0.643209 -0.413158,-0.78104 -0.183625,-0.04594 0,-0.64321 0,-0.64321 -0.596783,0.505379 -0.780409,1.194533 -1.698538,0.735097 -0.50497,-0.229718 -0.780409,0 -1.009941,0.09189 0,0 -0.09181,-0.413492 0.321345,-0.551322 1.055848,-0.367549 1.28538,-0.781041 1.239474,-0.964815 -0.13772,-0.551323 -0.183626,0 -0.13772,-0.551323 0,-0.229717 0.275439,-0.551322 0.504971,-0.78104 0.688596,-0.826984 1.193567,-0.551323 1.377193,-0.459436 0.413158,-0.321604 0.459064,-0.275661 0.872222,-0.459435 0.64269,-0.275661 2.065789,0.183774 2.846199,0.551323 0.367251,0.183774 0.826315,0.275661 1.28538,0.183774 0,0.229718 -0.183626,0.367548 -0.321345,0.413492 -0.229532,0.09189 -0.550877,0 -0.504971,0.183774 0,0.09189 0.367251,0.137831 0.550877,0.183774 1.147661,0.321605 2.662573,1.378307 1.698538,1.148589 -0.137719,-0.04594 0.734503,0.64321 1.331286,1.470194 l 2.203509,2.159347 c -0.09181,0.13783 -0.872222,0 -3.351169,-2.297178 -0.367252,0.321605 2.983918,2.8485 4.407017,5.513226 -0.137719,0.09189 -1.836257,-0.551322 -2.478947,-1.194532 -0.964035,-1.010758 -2.065789,-3.537654 -2.524854,-3.170105 -0.04591,0 1.836257,2.940387 2.754386,4.686242 0.459064,0.872927 0.872222,2.113403 0.872222,3.078218 0.137719,4.686242 -0.550877,4.318694 -0.550877,4.318694 -1.101754,-3.675484 -1.606725,-7.948235 -3.21345,-9.923807 -0.64269,-0.781041 1.698538,3.445766 1.790351,7.259081 z m -4.820176,4.180863 c -0.50497,0.413492 -0.826315,0.597266 -0.688596,0.367548 0.137719,-0.229717 0.229532,-0.459435 0.275439,-0.643209 0,0 0.413157,0.275661 0.413157,0.275661 z m -0.321345,-0.551323 c 0.09181,-0.413492 0.09181,-0.643209 0.183626,-1.010758 0,-0.13783 0.04591,-0.13783 0.04591,-0.275661 0,-0.04594 1.055848,0.872927 1.14766,0.918871 -0.275438,0.321605 -0.50497,0.459435 -0.734503,0.689153 -0.275438,-0.13783 -0.688596,-0.275661 -0.64269,-0.321605 z m 3.442983,1.194533 c -1.469006,1.470193 -3.718421,0.918871 -5.462865,1.699911 -1.606725,0.597266 -2.754386,2.06746 -4.407018,2.435008 -0.50497,0.137831 -0.550877,0.413492 -0.275438,0.413492 0.183625,0 1.193567,1.056702 2.800292,0.229718 0.550877,-0.275661 2.249415,-1.194532 2.524854,-1.286419 -0.918129,0.872927 -1.377193,1.653967 -2.203509,2.113403 -0.504971,0.275661 -2.524854,1.010758 -4.544737,0.597266 -0.918128,-0.183774 -1.606725,0.64321 -1.377192,0.64321 0.459064,-0.137831 1.009941,-0.04594 1.331286,0.367548 0.596784,0.459436 1.423099,1.056702 2.157602,0.183775 0.229532,-0.275662 1.423099,-0.872928 2.478947,0.229717 -1.14766,-0.04594 -1.055848,2.021517 -3.259356,1.791799 -0.826316,0 -2.616667,-1.883686 -3.121637,-1.28642 -0.918129,1.010758 1.973976,1.975573 0.734503,3.261992 -1.101755,1.148589 -2.478948,-0.91887 -2.478948,-0.91887 0.688597,0.275661 1.973977,0.505379 1.4231,-0.64321 -0.229533,-0.459436 -0.64269,-0.872928 -0.64269,-1.699912 -0.09181,-0.413492 -2.662573,3.307936 -4.361111,1.608025 -0.688597,-0.64321 -2.019883,-2.113404 -3.259357,-2.664726 3.259357,-0.275662 3.718421,1.010758 3.902047,1.240476 1.055848,1.378306 1.973976,0 2.203508,-0.275662 0.321345,-0.367548 0.826316,-0.918871 0.64269,-1.010758 -1.239473,-0.597266 -2.708479,-0.735097 -3.764327,-0.229718 2.295322,-3.170105 4.085672,-0.183774 4.085672,-0.183774 0.229533,0.137831 -0.04591,-1.883685 -2.341227,-1.975573 -1.4231,-0.09189 -2.662573,1.194533 -3.626608,1.194533 -0.78041,0 -3.21345,-1.608024 -3.764328,-3.078218 1.4231,1.056701 3.21345,1.653968 4.315205,0.964814 2.111696,-1.240476 4.728362,0.64321 4.866081,0.413492 -0.596783,-0.459435 -1.92807,-2.251234 -5.508771,-1.240475 -1.377193,0.78104 -1.973977,-0.597267 -2.846199,-0.597267 1.469006,-1.286419 2.478947,-0.643209 2.983918,-0.597266 0.137719,0 -0.596784,-0.597266 -1.101754,-0.64321 -3.9938596,-0.413492 -6.5187133,-1.516137 -6.5187133,-1.516137 0,0 0.321345,-0.78104 2.019883,-0.229718 0,0 -1.5149122,-0.918871 -1.5149122,-2.159346 0.045906,-0.735097 0.4131578,-1.562081 -0.1377193,-2.159347 2.2953215,-0.09189 0.6885964,3.124161 2.2953215,3.951145 0.045906,0 -0.4590643,-0.78104 0.2295321,-1.378307 0.321345,0.964815 1.1476612,1.424251 1.7444442,1.608025 0.137719,-0.09189 0.321345,-0.367549 0.321345,-0.367549 -0.596783,-1.010758 -0.688596,-2.20529 -0.504971,-3.537653 h 0.04591 c 0.137719,0 0.367251,0.459435 0.504971,0.78104 0.321345,0.735097 0.321345,1.745855 1.009941,2.618783 0.367251,0.459435 0.596784,0.964814 0.918129,1.194532 0.137719,-0.321605 0.04591,-0.918871 0,-1.056702 -0.09181,-0.551322 -0.413158,-1.516137 0.50497,-2.343121 0.459065,1.240476 1.009942,0.918871 1.101755,1.516137 0.09181,0.826984 0.09181,0.735097 0,1.378307 0.04591,0.918871 0.872222,1.148589 1.560818,1.745855 1.652632,0.872927 2.70848,1.378306 3.442982,2.526895 0.367252,-1.929629 -4.820175,-2.297177 -4.177485,-6.018605 -0.09181,-1.470194 0.183626,-1.608024 -0.872222,-2.526895 2.06579,0.04594 3.21345,3.49171 3.305263,4.088976 0.229532,1.148589 0.918129,1.194532 1.836257,2.710669 0.13772,0.04594 -1.698538,-3.997089 0.504971,-7.442855 0,0 0.734503,1.791798 0.413158,2.986331 -0.229532,0.689153 0,1.470193 0.04591,1.929629 0.04591,0.459436 -0.09181,-1.653968 1.469006,-2.710669 0.09181,0.78104 0.872222,2.021516 0.137719,3.307935 -0.872222,1.608024 -0.918128,1.010758 -0.964035,2.986331 0.09181,-0.04594 0.321345,-1.332363 0.918129,-2.113403 1.28538,-1.562081 0.367251,-2.435009 1.606725,-3.813315 0.09181,0.689153 0.275439,0.413492 0.367251,1.010758 0.183626,1.378307 -1.28538,2.8485 -0.964035,2.802557 0.367252,-0.04594 0.964035,-0.367549 1.147661,-1.42425 0,0 0.504971,0.964814 0.04591,1.286419 -0.872223,0.551323 -1.055848,1.194532 -0.918129,1.883686 0.688596,-0.826984 1.652631,-1.745855 1.469006,-2.940388 0.09181,-0.735097 0.872222,-1.010758 1.009941,-2.664726 0.04591,-0.275661 0.321345,-0.597266 0.596784,-0.78104 -0.13772,0.918871 0.596783,1.883686 -0.229532,3.032274 0.183625,0.09189 0.872222,-0.872927 1.92807,-0.551322 -2.06579,0.367548 -1.469006,2.618782 -3.029825,3.62954 -0.459064,0.321605 -0.413158,0.64321 -0.550877,0.689154 1.423099,-0.09189 2.478947,-1.745855 2.662573,-1.883686 1.423099,-0.964815 1.698538,-1.102645 2.295322,-2.664726 0.229532,-0.597266 0.04591,-0.826984 0.826315,-1.653968 0.321345,0.78104 -0.137719,2.389065 -0.275438,2.756613 -0.275439,0.735097 -1.147661,1.378307 -0.964035,1.378307 3.764327,-1.653968 3.718421,-2.802557 4.636549,-3.997089 0.275439,-0.459436 1.606725,-1.240476 2.111696,-1.332363 -0.137719,0.229718 -0.64269,0.689153 -0.688596,1.102645 -0.04591,0.826984 -0.321345,1.332363 -0.734503,2.021516 0.229532,0.275662 0.688596,-0.551322 1.14766,-0.13783 -0.50497,0.321604 -0.780409,1.010758 -1.239473,1.42425 z m 0.64269,-0.229718 c -0.229532,1.102645 -0.596784,2.113403 -1.28538,3.078218 -0.459065,0.689153 -0.64269,-0.64321 -0.275439,-1.883686 0.596784,-0.275661 1.147661,-0.689153 1.560819,-1.194532 z M 32.869004,9.7502426 c -0.09181,-0.045944 -0.275439,-0.045944 -0.367252,-0.045944 -0.09181,0 -0.183626,0.1837743 -0.04591,0.1837743 0.09181,0.045943 0.275438,0.045943 0.413158,0.045943 0.137719,0.045944 0.09181,-0.1378307 0,-0.1837742 z m -0.413158,0.5513224 c 0.09181,0.04594 0.275438,0.04594 0.413158,0.04594 0.09181,0 0.09181,-0.183774 0,-0.183774 -0.09181,-0.04594 -0.275439,-0.04594 -0.367252,-0.04594 -0.137719,0 -0.229532,0.137831 -0.04591,0.183774 z m 0,2.389065 c -0.09181,-0.09189 -0.321345,-0.275661 -0.504971,-0.413492 -0.137719,0.09189 -0.367251,0.275661 -0.504971,0.367548 -0.09181,-0.13783 -0.275438,-0.321604 -0.50497,-0.505379 -0.13772,0.09189 -0.550878,0.459436 -0.688597,0.551323 0.229532,0 0.596784,0.09189 0.596784,0.321605 0,0.183774 0,1.332363 0,1.516137 0.137719,0.04594 0.321345,0 0.550877,0 0,-0.183774 0,-1.470194 0,-1.653968 0.09181,-0.04594 0.137719,-0.09189 0.183626,-0.137831 0.09181,0.04594 0.321345,0.367549 0.50497,0.413492 0.09181,-0.09189 0.367252,-0.321604 0.459065,-0.413492 0.137719,-0.04594 0,-0.13783 -0.09181,-0.04594 z m -0.688597,-1.883686 c 0.13772,-0.229717 0.321345,-0.643209 0.321345,-0.9648143 0,-0.3675484 -0.229532,-0.9648146 -0.826315,-1.1485888 -0.688597,0.2297178 -1.147661,0.8269839 -1.147661,1.4701941 0,0.367548 0.321345,1.194532 1.009941,1.194532 0.229532,-0.183774 0.413158,-0.413492 0.64269,-0.551323 z m -0.413158,0.137831 c -0.137719,-0.04594 -0.596783,-0.413492 -0.734502,-0.735097 -0.13772,-0.3675483 -0.13772,-0.7810403 0.275438,-1.0567016 0.321345,0.1378307 0.688597,0.413492 0.734503,0.6891533 0,0.4134923 -0.09181,0.8729273 -0.275439,1.1026453 z M 31.308185,8.0043876 31.813156,7.453065 c 0,0 -0.229532,-0.1837742 -0.367252,-0.3216048 0,-0.1378307 0,-1.2404759 0.04591,-1.2864195 -0.367252,-0.3216048 -0.64269,-0.3675484 -0.826316,-0.3675484 -0.321345,0.045944 -0.64269,0.4594355 -0.734503,0.5972662 -0.09181,0.091887 -0.04591,0.2297177 0,0.2756613 0.04591,0.045943 0.137719,0.091887 0.229532,0.1378306 0,0 -0.04591,0 -0.04591,-0.045943 -0.137719,0.1378306 -0.367252,0.5053791 -0.367252,0.7810404 0,0.2756613 0.229533,0.6432097 0.413158,0.7810403 0.183626,-0.1378306 0.459065,-0.3675484 0.826316,-0.4594355 0.09181,0.2297178 0.183626,0.3675484 0.321345,0.4594355 z M 31.032746,6.7179682 c -0.229532,-0.091887 -0.734502,-0.3216049 -0.918128,-0.4594355 -0.04591,-0.045944 -0.04591,-0.045944 0,-0.1378307 0.09181,-0.1837742 0.229532,-0.3216048 0.321345,-0.3216048 0.09181,0 0.596783,0.2756613 0.550877,0.4134919 0.04591,0.091887 0.04591,0.3216049 0.04591,0.5053791 z m 0,0.7810404 c -0.137719,0 -0.229532,0.045943 -0.413157,0.1378306 -0.13772,-0.091887 -0.504971,-0.5513226 -0.229533,-1.0107581 -0.04591,0 -0.09181,-0.045944 -0.09181,-0.045944 0.229532,0.1378307 0.50497,0.2756613 0.734502,0.3216049 0,0.1837742 0,0.3675484 0,0.413492 0,0.045944 0,0.091887 0,0.1837742 z M 29.563741,5.201831 c -0.13772,0 -0.918129,0 -0.918129,-0.045944 -0.04591,-0.1837742 -0.09181,-0.3675484 0.04591,-0.6891532 0.04591,-0.1378307 -0.04591,-0.1837742 -0.13772,-0.045944 -0.04591,0.1378307 -0.459064,0.6891533 -0.872222,0.8729275 -0.229532,0.091887 0.275439,0.2756613 0.229532,0.2756613 0,0.5513226 0.09181,1.332363 0.183626,1.6539679 0.09181,0.1837742 0.275439,0.505379 0.459064,0.4134919 0.09181,-0.045943 0.321345,-0.4594355 0.367252,-0.5513226 0.137719,-0.091887 0,-0.2756613 -0.09181,-0.1378306 -0.09181,0.091887 -0.183626,-0.045944 -0.229532,-0.1378307 -0.04591,-0.091887 -0.13772,-1.2864194 -0.09181,-1.2864194 0,0 0.964035,-0.1378307 1.055848,-0.1378307 0.09181,0.045943 0.09181,-0.1837742 0,-0.1837742 z M 26.947074,7.3611779 27.360232,6.8557988 C 27.084793,6.8098553 26.947074,6.7639117 26.763448,6.534194 V 5.2937181 l -0.413157,-0.413492 h -0.13772 l -0.64269,0.5513226 c -0.04591,0.091887 0.09181,0.091887 0.183626,0 l 0.459064,0.2756614 V 6.947686 c 0.04591,0.1378306 0.13772,0.2756613 0.321345,0.4594355 h 0.413158 z M 26.625729,4.5586213 26.855261,4.3748471 V 4.0532422 L 26.579823,3.7775809 26.304384,4.0072987 V 4.3748471 L 26.48801,4.5586213 Z M 25.615788,4.1910729 c -0.183626,0 -0.734503,0.045943 -0.918129,0.045943 -0.183626,0.045944 -0.183626,0.1378307 -0.04591,0.1378307 0.183625,0 0.183625,0.045943 0.275438,0.2756613 0.09181,0.2297177 -0.321345,1.2404759 -0.413158,1.4701936 -0.137719,-0.1837742 -0.550877,-1.1026452 -0.550877,-1.2404759 0,-0.091887 0.183626,-0.1837742 0.275439,-0.1837742 0.137719,-0.045943 0.137719,-0.1378306 0.04591,-0.1837742 -0.321345,-0.045943 -1.514912,-0.1378306 -1.698538,-0.1837742 -0.137719,0 -0.229532,0.1378307 -0.04591,0.1378307 0.183626,0 0.367251,-0.045944 0.596784,0.2297177 0.229532,0.3216049 0.964035,1.9296292 1.14766,2.6187825 0.09181,-0.1378307 0.826316,-2.2971776 0.872222,-2.5268954 0.04591,-0.2297177 0.229533,-0.4594355 0.413158,-0.505379 0.229532,0 0.229532,-0.091887 0.04591,-0.091887 z m -3.488889,5.1916213 c 0,0.8729278 0.367252,0.9648148 0.780409,1.1945328 0.367252,0.229717 1.009942,0.183774 1.514913,0.04594 0.183625,-0.04594 0.275438,-0.04594 0.275438,0.09189 0,0.09189 0.137719,0.09189 0.137719,0 0,-0.09189 0,-0.8269837 0,-0.9188709 0,-0.091887 -0.137719,-0.091887 -0.137719,0 0,0.1378307 0,0.1837743 -0.137719,0.3216049 -0.321345,0.505379 -1.147661,0.459436 -1.606725,-0.1378306 -0.137719,-0.1837743 -0.275439,-0.4594356 -0.137719,-0.5513227 0.183625,-0.045943 0.734502,0.045944 1.055847,0.091887 0.229533,0 0.688597,0.045944 0.78041,0.091887 0.04591,0.045944 0.137719,0.091887 0.137719,0 0,-0.091887 0,-0.4594355 0,-0.5513226 0,-0.091887 -0.09181,-0.045943 -0.137719,0 -0.04591,0.045944 -0.596784,0.1378307 -0.78041,0.1837742 -0.229532,0.045944 -0.872222,0.091887 -1.009941,0.045944 -0.183626,-0.045944 -0.137719,-0.413492 0.04591,-0.5972662 0.459065,-0.5972662 1.377193,-0.5513226 1.698538,-0.045943 0.09181,0.1837742 0.09181,0.2297177 0.09181,0.3675484 0,0.091887 0.137719,0.091887 0.137719,0 0,-0.091887 0,-1.0107582 0,-1.0567017 0,-0.091887 -0.137719,-0.091887 -0.137719,0 0,0.045943 -0.137719,0.091887 -0.275438,0.045943 -0.275439,-0.091887 -1.101755,0.045944 -1.469006,0.2297178 C 22.585964,8.4178798 22.1269,8.8313718 22.1269,9.3826944 Z m 0.137719,1.5620808 c 0,0.275661 0.09181,2.435008 0.09181,2.756613 0,0.183774 0.229532,0.367548 0.413158,0.505379 0.09181,-0.137831 0.321345,-0.459435 0.504971,-0.597266 0.09181,-0.09189 0.04591,-0.137831 -0.04591,-0.137831 -0.183625,0.09189 -0.321345,0 -0.367251,-0.183774 0,-0.183774 0,-2.06746 0,-2.343121 -0.09181,0.04594 -0.459064,0.04594 -0.596784,0 z m 1.790351,1.791798 c -0.137719,0.137831 -0.413158,0.50538 -0.413158,0.735097 0,0.275662 0.13772,0.505379 0.275439,0.689153 0.275438,-0.183774 0.413158,-0.459435 0.872222,-0.597266 0.04591,0.183775 0.183626,0.229718 0.367251,0.367549 0.09181,-0.09189 0.459065,-0.551323 0.550878,-0.64321 0.09181,-0.09189 0.04591,-0.137831 -0.09181,-0.09189 -0.13772,0.09189 -0.183626,0.04594 -0.413158,-0.183774 0,-0.137831 0,-1.056702 0.04591,-1.102646 -0.183625,-0.183774 -0.367251,-0.459435 -0.550877,-0.459435 -0.321345,0.04594 -0.688596,0.551323 -0.780409,0.689153 -0.09181,0.09189 0,0.505379 0.04591,0.551323 0.09181,0.04594 0.09181,0.04594 0.09181,0.04594 z m 0.229532,0.183775 c 0.183626,0.09189 0.275439,0.04594 0.504971,0 0,0.183774 0,0.321605 0,0.413492 -0.137719,0.09189 -0.275439,0.13783 -0.413158,0.229717 -0.137719,-0.13783 -0.321345,-0.229717 -0.09181,-0.643209 z m -0.137719,-0.781041 c 0.09181,-0.183774 0.183626,-0.183774 0.275439,-0.183774 0.09181,0 0.413157,0.229718 0.367251,0.367549 0,0.09189 0,0.275661 0,0.505379 -0.229532,0.04594 -0.413158,0.04594 -0.64269,-0.183775 -0.04591,-0.04594 -0.04591,-0.413492 0,-0.505379 z m 1.882164,-0.367548 c -0.183626,0.09189 0.275438,0.275661 0.229532,0.275661 0,0.551323 -0.09181,1.378307 0.09181,1.653968 0.09181,0.183774 0.367251,0.275661 0.550877,0.229718 0.183625,-0.04594 0.367251,-0.413492 0.459064,-0.459436 0.137719,-0.09189 0,-0.183774 -0.09181,-0.09189 -0.09181,0.09189 -0.367251,0.04594 -0.413158,-0.04594 -0.04591,-0.09189 -0.04591,-1.240476 0,-1.28642 0,0 0.321345,0 0.413158,0 0.09181,0 0.09181,-0.229718 0,-0.229718 -0.137719,0 -0.367251,-0.04594 -0.413158,-0.09189 -0.04591,-0.09189 0,-0.459435 0.09181,-0.597266 0.09181,-0.13783 -0.04591,-0.229718 -0.137719,-0.04594 -0.09181,0.183774 -0.413158,0.505379 -0.780409,0.689153 z m 0.09181,-2.3890648 c 0,0.5053791 -0.229532,1.0107578 -0.50497,1.2864198 0.50497,-0.137831 0.550877,-0.413492 0.826316,-0.7810407 0.137719,0.2297177 0.413157,0.5053787 0.642689,0.5972657 0.13772,-0.09189 0.550878,-0.5513222 0.642691,-0.6432093 -0.275439,-0.091887 -0.826316,-0.3675484 -0.964036,-0.6891533 -0.09181,-0.2297177 -0.09181,-0.3216048 0.04591,-0.505379 0.09181,0.1378306 0.780409,0.4594355 1.101754,-0.091887 -0.321345,-0.1378307 -0.64269,-0.3216049 -0.734503,-0.5053791 -0.09181,0.091887 -0.367251,0.413492 -0.550877,0.5053791 -0.04591,-0.1837742 -0.321345,-0.3675485 -0.550877,-0.413492 -0.09181,0.091887 -0.596784,0.4594355 -0.826316,0.5972662 -0.09181,0.045943 -0.04591,0.1837742 0.04591,0.1378306 0.09181,-0.045943 0.275438,-0.1837742 0.459064,-0.2756613 0.09181,0.091887 0.367251,0.3216049 0.367251,0.7810404 z m 2.341228,0.091887 c 0.04591,-0.3216049 0.275439,-0.413492 0.367252,-0.5053791 0.137719,0.1378307 0.275438,0.3216049 0.504971,0.3216049 0.183625,0 0.413157,-0.091887 0.459064,-0.1837742 -0.183626,-0.1378307 -0.550877,-0.5513226 -0.64269,-0.5972662 -0.183626,0.091887 -1.055848,0.5513226 -1.101754,1.0567017 -0.09181,0.7350967 0.137719,0.8729277 0.459064,1.2864197 0.183626,0.229718 0.504971,0.229718 0.64269,0.229718 0.137719,-0.09189 0.688596,-0.64321 0.780409,-0.689154 0.04591,-0.04594 -0.04591,-0.13783 -0.09181,-0.04594 -0.04591,0.04594 -0.04591,0.09189 -0.137719,0.09189 -0.09181,0 -0.459064,0.09189 -0.688596,-0.04594 -0.27544,-0.183784 -0.596785,-0.5053887 -0.550879,-0.9188807 z m -0.413157,2.3431208 c -0.13772,0.137831 -0.321345,0.275662 -0.550878,0.50538 0.183626,0 0.321345,0.04594 0.367252,0.229717 0.09181,0.137831 0,0.826984 0.04591,1.102646 0,0.229717 0.183626,0.321604 0.367252,0.505378 0.183625,-0.04594 0.734503,-0.275661 0.964035,-0.413491 0,0.229717 0.229532,0.459435 0.413158,0.505379 0.09181,-0.09189 0.229532,-0.183775 0.367251,-0.321605 -0.137719,-0.09189 -0.137719,-0.09189 -0.183626,-0.321605 -0.04591,-0.183774 0,-0.918871 0,-1.240476 -0.137719,-0.183774 -0.321345,-0.413492 -0.50497,-0.551323 -0.13772,0.137831 -0.321345,0.275662 -0.550878,0.551323 0.183626,0 0.504971,0.04594 0.504971,0.183774 0,0.183774 0.04591,0.551323 0,0.872928 -0.04591,0.321605 -0.872222,0.183774 -0.872222,-0.04594 0,-0.229718 0.04591,-0.826984 0.04591,-1.102645 -0.09181,-0.183774 -0.183625,-0.275661 -0.413157,-0.459436 z m -5.416959,7.396912 v 0 c -0.459064,-0.09189 -0.826316,-0.413492 -1.28538,-0.597266 -0.596784,-0.229718 -1.239474,0.229718 -1.239474,0.321605 0,0.183774 0.183626,0.229718 0.64269,-0.04594 -0.367251,0.459436 0.04591,0.781041 0.04591,0.781041 -0.13772,-0.04594 -0.367252,-0.09189 -0.550878,-0.137831 -0.04591,0.137831 0.183626,0.229718 0.275439,0.275661 0.872222,0.321605 1.377193,-0.459435 2.111696,-0.597266 z m -1.377193,0.413492 c 0,0 0.229532,-0.229718 0.229532,-0.413492 0,-0.229718 -0.229532,-0.367548 -0.229532,-0.367548 0.183626,0.04594 0.596784,0.275661 0.780409,0.413492 z m -4.407017,-6.110492 0.229532,-0.275661 c -0.275439,-0.04594 -0.137719,-0.04594 -0.275439,-0.183775 v -1.056701 l -0.321345,-0.50538 h -0.137719 l -0.550877,0.50538 c -0.137719,0.13783 0,0.183774 0.137719,0.04594 l 0.367252,0.183774 v 1.102646 c 0.04591,0.13783 0.137719,0.183774 0.321345,0.367548 z m 0.09181,-3.6754844 c 0.183625,0.5053794 0.596783,0.6891534 0.918128,0.6891534 0.09181,-0.183774 0.275439,-0.459435 0.367252,-0.5513227 0.137719,-0.1837743 0,-0.3216049 -0.09181,-0.091887 -0.09181,0.1837747 -0.504971,0 -0.64269,-0.1378307 -0.183626,-0.1837742 -0.321345,-0.6891533 -0.183626,-0.8269839 0.137719,-0.1837742 0.367251,-0.091887 0.688596,-0.091887 0.183626,0 0.229533,-0.1837742 0.275439,-0.2756613 -0.09181,-0.045944 -0.229532,-0.1378307 -0.413158,-0.2297178 -0.183626,0.1378307 -0.504971,0.3675484 -0.596783,0.4594355 -0.183626,0.091887 -0.504971,0.5513226 -0.321345,1.0567017 z m 0.780409,2.8025564 c -0.183626,0.183775 -0.321345,0.413492 -0.321345,0.689154 0,0.275661 0.09181,0.505379 0.367251,0.643209 0.229532,-0.183774 0.550877,-0.367548 0.826316,-0.459435 0.137719,0.183774 0.367251,0.275661 0.504971,0.413492 0.09181,-0.09189 0.367251,-0.367549 0.459064,-0.413492 0.09181,-0.09189 0,-0.183774 -0.09181,-0.09189 -0.04591,0.09189 -0.275438,0.04594 -0.321345,-0.09189 0,-0.09189 -0.09181,-1.28642 -0.04591,-1.332363 -0.183626,-0.183775 -0.459065,-0.597267 -0.64269,-0.597267 -0.275439,0.04594 -0.734503,0.459436 -0.826316,0.551323 -0.09181,0.09189 0,0.597266 0.09181,0.689153 -0.04591,-0.04594 0,-0.04594 0,0 z m 0.734503,0.09189 c -0.229532,0 -0.413158,-0.04594 -0.64269,-0.275661 -0.04591,-0.04594 -0.09181,-0.321605 -0.04591,-0.413492 0.09181,-0.183774 0.09181,-0.229718 0.183626,-0.229718 0.09181,0 0.504971,0.275662 0.504971,0.413492 0.04591,0.137831 0.04591,0.321605 0,0.505379 z m -0.550877,0.04594 c 0.183625,0.137831 0.321345,0.137831 0.550877,0.09189 0,0.137831 0,0.275661 0,0.321605 0,0.04594 0.04591,0.09189 0.04591,0.137831 -0.137719,0.04594 -0.275438,0.09189 -0.413158,0.13783 -0.137719,-0.09189 -0.550877,-0.367548 -0.183625,-0.689153 z m 1.606725,-2.20529 0.229532,-0.275662 c -0.275439,-0.04594 -0.275439,-0.04594 -0.413158,-0.13783 V 8.9232587 L 19.097075,8.6016538 h -0.13772 l -0.550877,0.5053791 c -0.137719,0.1378306 0,0.1837742 0.13772,0.045943 l 0.275438,0.1837742 v 1.1485879 c 0.04591,0.137832 0.137719,0.183776 0.321345,0.36755 z M 19.097075,6.3044762 c -0.09181,0 -0.275439,0.1837742 0.367251,0.2756613 0.09181,-0.045943 0.229532,-0.2756613 -0.367251,-0.2756613 z m 0,-0.4134919 c -0.09181,0 -0.275439,0.2756613 0.367251,0.2756613 0.137719,0 0.183626,-0.2297178 -0.367251,-0.2756613 z m 0.137719,1.9296291 -0.275439,-0.2756613 -0.275438,0.2297178 v 0.3216048 l 0.183626,0.1837742 h 0.183625 L 19.234794,8.0962747 Z M 18.683917,5.201831 C 18.500291,5.0640003 18.316665,4.7423955 17.857601,4.7423955 c -0.459064,0 -0.964035,0.4134919 -1.147661,0.6432097 -0.229532,0.3216049 0.04591,0.6432097 0.321345,0.8729275 -0.183625,0.1378306 -0.459064,0.4134919 -0.688596,0.6432097 0.09181,0.091887 0.596784,0.3675484 0.918129,0.3216049 0.459064,0 0.826315,-0.2297178 1.101754,-0.4594356 0.459064,-0.3675484 0.321345,-0.7350968 -0.183626,-1.0107581 -0.04591,-0.045943 -0.09181,-0.045943 -0.137719,-0.045943 0.321345,-0.2297178 0.596783,-0.413492 0.64269,-0.5053796 z m -1.147661,0.9648146 c 0.137719,0.091887 0.321345,0.1378306 0.459064,0.2297177 0.229533,0.1378307 0.13772,0.413492 -0.137719,0.5053791 C 17.582163,7.0395731 17.123098,6.6720246 17.031285,6.534194 17.123095,6.442307 17.306724,6.3044762 17.536256,6.1666456 Z M 17.99532,5.5234359 c -0.04591,0.045943 -0.137719,0.1378306 -0.275438,0.2297177 -0.09181,0 -0.137719,0 -0.229532,0 -0.229532,-0.045943 -0.321345,-0.2297177 -0.459065,-0.3675484 -0.09181,-0.1378307 0.183626,-0.2756613 0.321345,-0.2756613 0.13772,0.045943 0.459065,0.2297177 0.64269,0.413492 z M 16.113157,6.4882504 C 15.42456,6.6720246 15.103215,6.120702 15.057309,5.9828714 15.332748,5.7072101 15.791812,5.2477745 16.06725,5.0180568 15.883625,4.8342826 15.791812,4.5586213 15.470467,4.5586213 c -0.275439,0 -0.964035,0.3216048 -1.101754,1.1945323 -0.09181,0.8269839 0.64269,1.2864195 1.28538,1.2864195 0.183625,0 0.459064,-0.2756614 0.596783,-0.3216049 0.275439,-0.1378307 0.183626,-0.2756613 -0.137719,-0.2297178 z M 15.011403,5.8450407 c -0.183626,-0.5513226 -0.09181,-0.7350968 0.229532,-1.0107581 0.09181,0.1837742 0.275438,0.3216048 0.367251,0.3675484 -0.183626,0.1837742 -0.459064,0.5513226 -0.596783,0.6432097 z m -0.78041,-0.5053791 c 0.13772,-0.091887 0,-0.1837742 -0.09181,-0.091887 -0.09181,-0.091887 -0.275438,-0.2756613 -0.367251,-0.4134919 -0.09181,0.091887 -0.367251,0.2297177 -0.504971,0.3216048 -0.09181,-0.1378306 -0.229532,-0.1378306 -0.459064,-0.3216048 -0.137719,0.091887 -0.413158,0.2756613 -0.550877,0.4594355 0.275438,0.091887 0.459064,0.091887 0.459064,0.3216049 0,0.1837742 0,1.2864194 0,1.4701936 0.137719,0.045944 0.321345,0 0.504971,0 0,-0.1378306 0,-1.5620807 0,-1.6999114 0.09181,-0.045944 0.137719,-0.091887 0.183626,-0.1378307 0.09181,0.045944 0.229532,0.2756614 0.367251,0.3675485 0.09181,0 0.367251,-0.1837743 0.459064,-0.2756614 z m -2.111695,2.8485002 c -0.275439,0.045944 -0.734503,0.3675485 -0.826316,0.6432098 -0.04591,0.1378306 0,0.5513226 0.09181,0.5972661 0.04591,0.045944 0.04591,0.045944 0.09181,0.091887 -0.183625,0.1837742 -0.367251,0.3216049 -0.367251,0.5972663 0,0.275661 0.229532,0.505379 0.459064,0.597266 0.13772,-0.229718 0.367252,-0.367548 0.596784,-0.413492 0,0.183774 0.04591,0.367549 0.183626,0.459436 0.09181,-0.09189 0.459064,-0.459436 0.550877,-0.505379 0.09181,-0.09189 0,-0.183774 -0.09181,-0.09189 -0.04591,0.04594 -0.183626,-0.04594 -0.229532,-0.09189 0,-0.091888 0,-1.2864201 0.04591,-1.3323636 C 12.486551,8.6016477 12.302925,8.1881557 12.1193,8.1881557 Z m 0,1.1945324 C 11.797952,9.6124119 11.70614,9.5664684 11.476607,9.3367506 11.384795,9.19892 11.384795,8.9692022 11.430701,8.8773151 c 0.09181,-0.1378306 0.275439,-0.3216048 0.367251,-0.3216048 0.09181,0 0.321346,0.3216048 0.321346,0.4594355 0,0.091887 0,0.2297177 0,0.3675484 z m 0,0.5972662 c 0,0.045944 0,0.1378306 0,0.1837746 -0.04591,0 -0.13772,0.04594 -0.229533,0.09189 -0.137719,-0.09189 -0.688596,-0.2756616 -0.321345,-0.5972665 0.229532,0.1378306 0.321345,0.045943 0.550878,-0.091887 0,0.1837742 0,0.3675484 0,0.413492 z M 11.889765,7.4990086 c -0.04591,-0.045944 -0.137719,-0.1378307 -0.137719,-0.2297178 0,-0.045943 0,-0.7810404 0,-0.8729275 0,-0.091887 -0.183626,-0.091887 -0.183626,0 0,0.1378307 0,0.3216049 -0.09181,0.5053791 -0.321345,0.4594355 -0.918128,0.6891533 -1.331286,0.091887 C 10.007602,6.8098553 9.9616953,6.4882504 9.9616953,6.3044762 9.9157888,6.0288149 10.145321,5.6612665 10.145321,5.615323 c 0.550877,-0.6891533 1.28538,-0.1837743 1.331286,0.091887 0.04591,0.1837742 0.09181,0.4134919 0.09181,0.5513226 0,0.091887 0.183626,0.091887 0.183626,0 0,-0.091887 0,-1.1485888 0,-1.2404759 0,-0.091887 -0.137719,-0.091887 -0.137719,0 0,0.1837742 -0.09181,0.1837742 -0.229532,0.1378306 -0.275439,-0.091887 -0.872223,-0.2297177 -1.193568,0 -0.3213446,0.1837742 -0.7804089,0.5972662 -0.7804089,1.1026453 0,0.8729275 0.321345,0.918871 0.7345029,1.1945323 0.367251,0.2297178 0.826316,0.091887 1.28538,-0.045943 0.183626,-0.045944 0.183626,0.045943 0.275439,0.1837742 0.183625,0.1837742 0.275438,0.045943 0.183625,-0.091887 z M 9.502631,8.7394845 C 9.181286,9.19892 9.0435667,9.9340168 9.5485374,10.347509 c 0.2295321,0.183774 0.4590646,0.367548 0.9640346,0.275661 0.09181,-0.183774 0.13772,-0.275661 0.321345,-0.505379 -0.321345,0.04594 -0.596783,0 -0.8722217,-0.1837742 C 9.4567245,9.5205248 9.5944438,8.8773151 9.7780695,8.6475974 10.053508,8.2341054 10.466666,8.8313716 10.512572,8.9232587 10.604385,8.8313716 10.742105,8.6475974 10.92573,8.5557103 10.788011,8.3719361 10.650292,8.1422183 10.558479,8.0503312 10.191227,8.1422183 9.6862567,8.4178796 9.502631,8.7394845 Z M 9.6862567,12.69063 c -0.091813,0.826984 0.6885963,1.332363 1.0558483,1.470193 0.09181,-0.183774 0.275438,-0.505378 0.459064,-0.735096 0.137719,-0.183774 0,-0.229718 -0.137719,-0.09189 -0.183626,0.183774 -0.688597,0 -0.826316,-0.229718 0.229532,-0.183774 0.918128,-0.735097 1.193567,-0.964815 -0.183626,-0.183774 -0.459064,-0.597266 -0.504971,-0.872927 -0.275438,0.229717 -1.101754,0.551322 -1.2394733,1.42425 z m 0.8263153,-0.872928 c 0.09181,0.183775 0.321345,0.551323 0.413158,0.597267 -0.183625,0.183774 -0.64269,0.505379 -0.780409,0.597266 -0.2295322,-0.321605 -0.3672515,-0.781041 0.367251,-1.194533 z m 1.698538,-0.321605 c -0.183625,0.137831 -0.275438,0.275662 -0.50497,0.459436 0.09181,0.137831 0.275438,0.275661 0.321345,0.505379 0,0.229718 0,1.240476 0,1.470194 0.183625,0 0.137719,0 0.459064,0 -0.04591,-0.183774 0,-1.470194 0,-1.699912 0.09181,-0.09189 0.137719,-0.13783 0.275439,-0.229717 0.09181,0.09189 0.321344,0.13783 0.321344,0.275661 0,0.137831 0.04591,0.78104 0,1.010758 -0.04591,0.275661 -0.04591,0.505379 0.13772,0.78104 0.137719,-0.13783 0.550877,-0.413491 0.64269,-0.505379 0.09181,-0.09189 0.04591,-0.13783 -0.09181,-0.09189 -0.137719,0.04594 -0.137719,0.04594 -0.137719,-0.04594 0,-0.137831 -0.04591,-0.826984 -0.09181,-1.28642 0,-0.459435 -0.229532,-0.551322 -0.367252,-0.64321 -0.137719,0.137831 -0.413157,0.321605 -0.596783,0.459436 -0.183626,0 -0.229532,-0.229718 -0.367252,-0.459436 z m 1.744445,-1.056701 c 0.137719,-0.137831 0.275438,-0.321605 0.321345,-0.367548 0.09181,-0.091888 0,-0.1837747 -0.09181,-0.091888 -0.09181,0.091888 -0.275439,-0.091887 -0.275439,-0.091887 -0.04591,-0.091887 -0.183626,-1.1026453 -0.137719,-1.1026453 0,0 0.64269,-0.091887 0.734503,-0.091887 0.04591,0 0.09181,-0.1837742 0,-0.1837742 -0.09181,0 -0.596784,0.045944 -0.596784,0 -0.04591,-0.091887 -0.09181,-0.4594355 0.04591,-0.7810404 0.09181,-0.1378306 0,-0.2756613 -0.04591,-0.1378306 -0.04591,0.1378306 -0.459064,0.7810404 -0.734503,0.8729275 -0.229532,0.091887 -0.183625,0.1378306 -0.04591,0.1837742 0.09181,0 0.229532,0.1378306 0.183626,0.1378306 0,0.5053791 -0.09181,1.1485888 0.09181,1.4242502 0.137719,0.183774 0.413157,0.321605 0.550877,0.229718 z m 2.203508,0.229718 c -0.09181,0.13783 -0.183625,0.321605 -0.459064,0.413492 0.137719,0.13783 0.321345,0.275661 0.459064,0.367548 0.13772,-0.137831 0.275439,-0.321605 0.413158,-0.459435 -0.137719,-0.04594 -0.321345,-0.137831 -0.413158,-0.321605 z m -1.009941,-0.551323 c 0.183626,0 0.550877,0.09189 0.872222,0.09189 0.413158,-0.04594 0.780409,-0.6891532 0.596784,-1.2404758 -0.183626,-0.505379 -0.734503,-0.4134919 -1.101755,-0.505379 -0.321345,-0.091887 -0.50497,-0.3216049 -0.09181,-0.5513227 0.459065,-0.2756613 0.964035,0.1837742 1.009942,0.2756613 0.09181,0.1378307 0.137719,0.1378307 0.137719,-0.045943 0,-0.413492 -0.04591,-0.1837742 -0.04591,-0.5513226 0,-0.1378307 -0.09181,-0.1378307 -0.13772,0 0,0.1378306 -0.183625,0.091887 -0.275438,0.091887 -0.137719,0 -0.504971,-0.045944 -0.826316,0.1378306 -0.183626,0.1378307 -0.64269,0.4594355 -0.413158,0.9188711 0.13772,0.2297177 1.009942,0.4594355 1.239474,0.5972661 0.229532,0.1378307 0.275438,0.5053791 0.04591,0.689153 -0.275438,0.229718 -0.964035,0.04594 -1.101754,-0.091887 C 14.919593,9.7961897 14.873686,9.6583591 14.82778,9.4745849 14.87369,9.15298 14.73597,9.15298 14.73597,9.3367542 c 0,0.1837742 0.04591,0.7810408 0.09181,0.9188718 0.04591,0.13783 0.183626,0.09189 0.183626,0 0,-0.137831 0.04591,-0.137831 0.137719,-0.137831 z m -0.918129,1.837742 c -0.183625,0.137831 0.183626,0.321605 0.183626,0.275661 0,0.505379 -0.04591,1.056702 0.09181,1.332363 0.09181,0.183775 0.459064,0.275662 0.504971,0.137831 0.04591,-0.137831 0.321345,-0.459435 0.367251,-0.551323 0.09181,-0.09189 0,-0.183774 -0.09181,-0.09189 -0.183626,0.183775 -0.275438,0.09189 -0.459064,-0.04594 -0.04591,-0.09189 -0.09181,-0.781041 -0.04591,-0.826984 0,0 0.367252,-0.04594 0.413158,-0.04594 0.04591,0 0.04591,-0.183774 0,-0.183774 -0.09181,0 -0.413158,0 -0.413158,-0.04594 -0.04591,-0.09189 0.04591,-0.597266 0.09181,-0.826983 0,-0.137831 -0.04591,-0.183775 -0.09181,-0.04594 0,0.137831 -0.367251,0.78104 -0.550877,0.918871 z" id="Shape" visibility="visible"></path></g></g></g></g></svg>